<mxfile host="app.diagrams.net" agent="Mozilla/5.0 (Windows NT 10.0; Win64; x64) AppleWebKit/537.36 (KHTML, like Gecko) Chrome/135.0.0.0 Safari/537.36 Edg/135.0.0.0" version="26.2.9">
  <diagram name="Sida-1" id="e_prDyDMAKW3hbaYko7f">
    <mxGraphModel dx="768" dy="390" grid="1" gridSize="10" guides="1" tooltips="1" connect="1" arrows="1" fold="1" page="1" pageScale="1" pageWidth="827" pageHeight="1169" math="0" shadow="0">
      <root>
        <mxCell id="0" />
        <mxCell id="1" parent="0" />
        <mxCell id="2A0srAFayTk-dAzB0zZN-2" value="" style="shape=image;verticalLabelPosition=bottom;labelBackgroundColor=default;verticalAlign=top;aspect=fixed;imageAspect=0;image=data:image/png,iVBORw0KGgoAAAANSUhEUgAAAZoAAAFKCAIAAACrWg4bAAAACXBIWXMAAA7EAAAOxAGVKw4bAAAgAElEQVR4nOydeXxU1fn/z7nrLJlkSEJCCNkIYYsQlrIJKKKIKLgvWFu131oXvvZrW/tra6vWuqCtUr9Wv7Zq69Jqa624URVQiuICyo7sCBjWbGSb9W7n/P54Zg6XyZ5MMjPhvF++cHLn3jvn3nvu5zznOc95DqaUIg6Hw4kTlFKMMaWUELJx40a32z18+PAjR45s3br1kksuwRj33k8LvXdqDofD6Uu4nHE4nH4ClzMOh9NP4HLG4XD6CVzOOBxO/KDIPrrYxyONUh/8Bh885XBOH+B9h8HNPn73uXXG4XD6CVzOOBxOP4HLGYfD6Sf0he+MWAQL2LIsQRAIIRhjFhmMMUYUUUQxio0Vho32f9lG+w6t7g9/IoRaHhWzv31P+4eW+8f8Sjf27Gp5Wl5UywuPuTOt7t/hnu2cP7778wfdanlaXlTLC0+VB40QgvkA8K8g9KnB1BdyJoiCZVmbNm2SZRljHAqF0tPTQd0opYZh9EEZOBxO32CapqIolmUhhPbs2TNhwoQ+++lelzNCiGmajY2Nu3fvHj16tCzLW7ZsmTJlCkJIEiUsYFVVe7sMHA6nz5BlWZIksM5kWe7Ln+51OcMYE0Isy8rMzBw3bhwh5JtvvqmoqGjZ8TzlqFNtWraRfW51T9SiQ9Hqnq32DlrduWXfp63TdmZP1HZPp9XT2jsjLe9Gyz1RG/etVTo8bcz5W717PTxzWwXmD7r9PVEqPGhKqWVZgUCgnbLFnb7obIqiqCgKdKcxxqIownYcpf3D7XetLf9Fyx3a2RO+6vyendm5J3u2tXNvbGyL9nduWdTOn7x7e/IH3Q8edK8mz2iVXnfUYYwtiyCEJEkCSw1jbJomfNXHnkIOh9PbYIwxwpH/9y19YZ2pqhIKCZqmUUpFUbQsS1EUZpf1/TVzOJzeAzphOBH2CjeOOBxOP4HLGYfD6SdwOeNwOP0ELmccDqefwOWMw+H0E7iccTicfgKXMw6H00/gcsbhcPoJXM44HE4vkIiM+n0xK6B9LMsSRZFSihEmlLCZA8g2YQAyjguCwBKQE0JEUUyVGQWmaULhocBwOYQQURAN04BJrPZvKaVwCJvf2jdQSgVBsCyL3dieRHXb88Tjrs0shAnNJw83TVOWZcMwsI1uF6xLsDW9Y5ImEEJiigeTruGpUQqXT9nOoij2ff6vhBC5TBxRNFb5ISEY/Amf4R5KkgQiYFkW+yCKIuwpSRKckxAiSZJpmjDvOxwOOxyOmGqQeDnDGPv9flEURVGUZZlVCGR7H6DQuq5TSmGCVEQBU0TOIF8KxtiyLKjZlNJwOCwIgtPptCwLRJzJHFwm/AmvSt+UE2Ns6AZFFGMMc2x7eLYeHHyK/hFCiEWgemDU11NnoOIRQlRVNQyDtaOsfYUHpOs6VM7og4vsCZwmWoZsTaBlWZqmZWRkWJZlmqYW1jDGsiQjjJhRghAChbIsyzAMVVWhwsNUSHjugigYhgENBtRMwzCcTie0LvafTrycQbllWQYBFgUxFAqJogiqzBo3UHS4fjAfoMFMcOk7Bzw8uBbQa4yx0+lk7wmr7qy9YtslSbIbAr2KpmmKorC7SgjBuJ07DI0Njn4+5UNLKYu2TbF7tnHaUwBxh8wFkA20z1oy0zTBfJAkCR4csYisyNDqIIQs08ICRggpimpZEUsE2cxteOKGYSiK0jdlTixwW6DOy7Ks67ppmqqqOl1OuJkoYroiSZICgYCqqtB22m0UyOoqiqJhGAgjWZahWrI0Fq2+/gmWM0qppmlutxshFA6Hm5ubEUIOhyMtLU0QBNM0T5w4AS92enq62+2WJCkcDtfX14NFmpeXlxKKBk/INM1AIBAKhSzLkmV54MCB0M40NjaClqWnp6uqSgjx+/1NTU2SJGmaFggEYrqc7Weh6mE5wU5kBoh9kTH7Pm0da/8c82hYW9rynB0WyTRNXddVVQ0Gg6qqRic5RzOFRU8Vc2daJjuLpPSypXSP3YGdCuPIr2A8ZMgQ+NEjR46AsHo8HqfTiRDy+/2Q0kuSpAEDBkCP8vjx46xvlZubC12nVOlJ9Bx49LquNzQ0BAIBQkhjY2NVVVV9fT3YtgihYDDo8/kwxoqiOJ1OcCM0NTWxXDtZWVn19fWhUEhVVZ/P53K5QAoHDRqEInl6LLB47CRezrZu3fqtb30LYxwOh48dO0YIgboCelxdXW2aJqS1dLlcCKFAIHD06FGQ85ycnJSQM9aLPHHiRG1trSRJXq83OzsbNlZVVfn9fqfTqaoqvC0NDQ1Hjx51OByvvfbayy+/HCMEqO1+HHP02P9tdX/WDMZ8yM3Nve2224qLi5ubm91udzuK09aZ2bcxx4I0tPzdVs8Zc/KtW7e+8MILuq5rmsZ8WK1edVtnbrmz/fwtD2FbvF7v3//+9/LyckJIbW0tXFdJSQk4bnw+X1VVFWT083q9oLzQBtfX1weDwXPPPbflW9e/Ya6hw4cPp6WlEUIOHz4simJpaSm8y4IgNDU1HTp0SJIkp9OZlpYGGldXV6frem1t7bFjxy699NLq6mpd130+36pVq84555xQKHTkyJGFCxeCAhJCWtr3ib/RYIYIguDxeMaNG8dMSoSQKIoVFRUxNS87OzsrKws+p0qLB+VUFGVoydCSkhIUdQ2Bp3Ps2LH2axQEYciQIfn5+QihVatWVVVVgXMNsdQrHb2rqKNXuv09c3JyDMMYOHBgNy6TdZZ1XSeEBAKBAQMGgDUKwzsti2E/3L6d2XeapqWlpR05ciQYDFJKmT+4w0vrHvY2QxCEUCgExRAEYfz48TFFHTx48ODBg+2eBHiguq7ruv7pp5/C+hhsrCBVamxPgNuVnp4+adKkmK/Y5efn5w8ePDhm46hRo0zT1DTtxRdfTEtLKy8vxxjX1tbu27dv1qxZlNI333wTFDByJ1vcy8TLGSEE+hH2sT87ndmSMrQxwtf6NdqMG/aOddhB6+GeLperpKSksrKyvLy8pYXVPnYTqbm5+eDBgxjj7OzsnJwcXde7ZKTAwJZhGOFweOPGjRkZGeA8hY0ddlS7VOx2jmWtCNvSat1jG6HYCCE2DksIURSF9aG6XapUpP3rbfVbSZJ8Ph+4XNhACtu5wxuYYDnDGI8cOdJebk4CgbGkrKyszz//fMeOHczJ3bJrxg6JcZnBB3D/ZWZmVlZWOh3O6upqe4hDq2eL6S1algUtHJyqoKAA/PFstCRpYUMBsiyXlZWBezslXCJJAUUul2v8+PHgeeyqJiRezkpLS5FtGIiTQGCtis8//9zn81FKDdPo0nsIVRBFpWrnzp0+ny83NzcUDimK0qUYOkmSQqEQeEibm5t37NgRCoUURdE0jfngunp1fQPcBEqpoihDhw5FNvU/fWI1ug9GiqKAnBlG16ofSricATD0k/wNbx/T9++raZrp6ekjR46cMmUKRAB16XAIhAa5gbWiWQMbGaFvQTv9ODDoRFEcOnTol19+6Xa76+vrwduYzGuzMq+fruvgMQS7EvUsJvl0gUJVkVuRgk68D4kf2Txx4oTX640GK3EDDaGTPbjWXVcRvSAE9cxJ1BLw+OTk5Hi9Xoh9i+PJe0JmZiaTMDYwEi9AZUB5e9ig0ugC4FCTa2pqBg4cGAmoFEVKWwnH49iB5nDfvr3Dhg1jzyVCG6+DnQQ3F5TSDRs2wKuL4v1y9kvYCBqbGhXHk8OIIZNLIWmA4pEocbxkQIj2EHt4P8EuAzs0EAjs3LnTMAwIM6KUUso7Hx2AMfb7/Zs3bzaNrvUMgMRbZ9BD7jAEgQOwt45Na43vTWNT5FAydY5Y4A67/DheNYw8QMe21WiSziNEvYeWZSmyomkaxLXDmU+3ALRuAI/V5/PJSncm9iV+KEBV1cSWIeUQonGk4CkXojMHY3aLGUaM+dByZ0opzC1jM72Tx1gGz7rT6QT7sdVoW/vAKBzV1p4xZyaEmKYJEbA9VDTm7BcEwSKW2+0G0wydOtGN0w4Y44wMLzyRrk4LS7ycTZ06FVrdlhNKOa0CPRqITX/kkUccDke8zkwIOXDggMfjsXfxkoGhQ4fefvvtkyZNAs9UHBONEEK2bdu2ePHicDiMTs2T0Q1O+nkQcjqdY8aMYatlc9OsM1BK09LSpk6dIstyOBzuanuaeDmDmTTgK01sYVIIeD3S09PPPfdcl8vVqo8ZqgJsZzu05Y2G7Zqmmab517/+1ePx0GiyINTGnM0uWX+MVg9vuQOEIrJvfT7f2LFj58yZAyOk7Zg5nXe3w56EEJfLpWkaXGkPDVKow9CvNAwDkkng6PzNpGohkhMIMh8yZAjM2MdRdwrGGNGkD6MFC5+lVelyVqzTHiGuOdGcTufZZ5/Nck4l8PWLVFyYlEcRwsje4MXR0sFxXanb7tdTFAXupH3KLe9/tI9FLIRQMBiECdqnqEEn7lzi5WzPnj3l5eUomRzPpy2EUK/XG/cOXTeIsZKgv2ZZBGaDJrMhz6zacChceagSAg4ooQjzOKSOEUXR7/dv3Lhx6tSp3cinlPhAjcrKSm6H9wQcP0QxMv8/4Y8jpmAoMgBiIYTsORHjQhyLbR9uJpQcOnQIYyyJEhgdnM4QDoe//vprSPNHSNf6/ol3TzL7nJviyQCMzdFonuhEFycC9NpYFzhpq4ooipRQJCB7MI1hGqIg8hreGSD5SjAY7F5Lk2A5EwShrKysubkZUibw551YWB3CGCdVhw6cZUlVpFbBGFNM4e6ZplleXq7rusvlaitMhBMDuBrnzJmj67pDdXQ1TWnirTPIOoBtK0QkukQcTvehhBIUyS3scrkg31nyRPAlOZZlZWRkeDweURS7vl5Oon1nES9DdOYK1zJOqiNKkX6lIAjgzO7hTIPTCvDbguOsG21A4p0jEGoAbhqeUYOT0tjnn8Nn0DWYyMFttA5hs8Ri1nLr7OG9UqiuAIvrwcNOHt8zh9MNcHQdWBydfGbvf3DfWYfAGBSKTj7rVLCZjcT7ziIhkacuE8vhpCItx+MwSsahlaQFY8xWpOzGHUu8nEXgEwI4/RKMEB/T7Ct4547D4fQTuJxxOJx+ApczDofTT+Byloyw8Wk+tM/hdB4uZ0kNlzMOp/NwOeNwOP0ELmccDqefwOWMw+H0E/pCzmAmJpuzxhIMsO0xiyeyxO2RQ2ARTpqIZcETQXR6B0I8/DIJYEuZ2J8Lp9uw+6nrOm0Bm65PKdV1HUXdx+zOs8NRa57lXpczWA0ARRdJZEva4Gj2dAELoVDIfkmQhwAOxBgjjE7+d3rAVIwngEs4kOGHEJJU+SxTF0qppmmaprGFdeyASui6DvfcPoefRpdDhVneqLXGvtcnOWGMFUUJBoMwIxdKrOu6qqqgboQQRVGgrJAKFZY7ZClq2V04TfJGwT1h6xXxVyixmKbJhAxqZqJLlNrouq4oCiwO3/LbGIlA0ZRBsLg46AM8AraDnb6Ys0kpNQyjtrb2448/Jhb5ev/XlkVEQRAlESF0+PDhuro6yHAkyzIsF4oxDofDI0aMiKk9LVfEiK/AdeaEuNOLsHVynxjgzTEMAyG0fft2sG05iULTtHXr1u3evRsa5raeZkKqYvdO2PMz9+RUkM5M0zSn07l79+4YUYMs6unp6cOGDVNV1efzhcPhgwcP/vvf/1YUpaGhIRgMKooC0tby5L0vZxSZppmVlTVv3jyHw2FZ1pixY5xOp2EYkiSZpvn6v17/69/+ilpIVXp6+ttvv11SUmI3Ke03kXVX4Su2sTM3utWd8amrh9k7eu2cE5+6cGSrZ2j1t9p5Mdi3O3bsUFU1FAp1fJ85vYPD4Rg5cuSIESOgmYmpFT150KhFjbL/2fKEnaSdc3b4Zw9P25m3D0eXHDx2/NiiRYuqqqqQ7TIho8aCBQsuueQSWZZ1XZckacKECYqiiKI4adIkr9crCKJpGq32WnpfznAk18egQYNYiaHbHLEhRcEwDOgkww6QYtswDI/Hk52dbZez08SRxKoC6H5iC3OaQykdMGDAwIEDYVWORBenPwBu8WAoiBBi7z77SlEUSZK8Xi9zsmdkZFBK2XryCFGMcavPoi86m/DDrNvI3Hv2fdgoJ2xnrj7mcTt96HzbzukD7B7M060q9gZQnyVJkmUZXPsxeXpBH1iGanTqKtGwsa11o7mbmcPh9BO4nHE4nH4ClzMOh9NPSPTCdKdPaGxX4D4aDqcbJGCtgFPeVf7atsAegMJ1jcPpPLyzyeFw+glczjgcTj+ByxmHw+kncDnjcDj9BC5nHA6nn8DljMPh9BO4nHE4nH4ClzMOh9NP4HLG4XD6CVzOOBxOP4HLGYfD6SdwOeNwOP0ELmccDqefwOWMw+H0ExKQIIiTQsDqDWyhyZhlT2MWfGi5bGA738bAUyFxeg6XM06bsJVoREHUdE1VVYwwRXxhdk6SwuWM0wGw9Lcoij6f7+iRo03NTfn5+bm5uYIgCIJ9UedY44tShE9u7WA9KkqpPZknF0xON+C+M06b2BfH8/v9v1/y+wUXL5g7d+7ChQvfffddSilC9v9aQml737ayf7tn43A6gMsZp00wxrqui6JIKV27du0f//TH0tLSn/zkJ0ePHn3++edra2thjWfLsizLAtcYIZRSiihiX7EdYDlFtkYs+xM+wA4AOxuH0yV4ZzPpYAvCo47c572NpmmqqsKa1QcPHtR1/cYbb7z00kunTZt25MhRRVFCodD69evXr18/dOjQmTNnNjY2fvbZZ7NmzRo8ePD69esrKysHeAccOHhg6tSpW7du9Xg8kydPXrNmzezZsz1pnneWvTNhwoRQKPT5559PmDChvr7+8OHDc+bMOXDgwN69e88///xhw4bB2tctF5nuS5ijkCts8sPljNMmiqL4fD5PmkeW5WnTpmVlZT3wwAOrV6+eMGHC5Zdf7nK5/vKXvyxevBj07vLLL7/h+hvuvPPOW2+99eYf3Pw///M/+fn5CxcuXLx4sSiKhJDJkycLWLj33nszMjKGDx9+//3333bbbYWFhffff7/L5fJ6vSdOnHj22WdN0zx27NiyZcteeumlvLy8yDrwlK+Sw+mYZO9s8iYxsUiSZFompXTUqFEPPPDA2LFjt27Z+tBDD/3sZz/75ptvnn322bKysvfff//KK69cvnx5midtzpw5r7322vvL3z9w4MCsWbNABPPy8t57773HHntMkqVwOGyZFsa4trbWMIxx48YVFRUNHjz4H//4R0lJSTgc/sc//jFnzpzNmzc3NzcjhEzTFASBaxmnM6SAdcYVLYE4HA7octbU1EyYMGH+/Pl+v/+3v/3t888/f/bZZ9fV1U2ZMmXUyFEVFRVvvvlmfX39t7/97RUrVjzzzDMul+uiCy+SJMk0zfHjx48aNco0zc2bN0uS5En3UEq9Xq+maYqiYIyzsrIKCgry8/ODwaDH48nLyxMEIRwOQ2gb63onA7w2JjPJLmeEkParcqQz0omvUm7PJHlzVFU1TfOtt976/ZLf3/7D22fOnFlfX6+qqsvlys7O/uqrr76p/Gbjho1Op9Pr9ZaWlhYVFe3atevGG2/MG5wXCoVAmOA8uTm5hmHs2bNH1/Xq6mrwixmG4XA4wEEmiqLD4YDOqSzL8PQhhiOBgmYPHiaExHzbB1WiHVJuz5OH0PjX8KSTM7hCSZJCodBPfvITl8tlDxew3xQUjU1nR9lvbk/27O2N7RcPPsAOe/fuFQTBMIyYu4QxNk1TkZVQKJSWlhbXJ3DKr4RCIafTSQiZN2/em2++ed999yGEBEG44oorzjzzzDvuuOOuu+6aOXOmYRiXXXZZWVmZJEk333zz//7v/95xxx1OhzMUComiKMsyjF1mZmUWFBT86le/ys7O9ng8S5cuPe+881wulyiKCCGn04kxhhkIcAjcBMuyZLnvvCJ24SSEhMPhO+64IyMjQ5Zly7JQ/B50N/aMeQvs2+HPmH26umcn/405Q8z529/TsiyHwxEKhXRdb2hosN9S1OMmPOnkDC6bEKJp2qpVq5Knl9FnwCWDFSCKYswdYFVclmXDNBwOR++VBH4FPpSUlDz99NObNm2qqakpLi6eMGFCbm7uNddcU1hYuGvXroEDB86ePdvlcpmmuWDBguzs7NLSUkEUMjIyfvaznw0ZMoQQoqpqWVnZE088sX79+nHjxoXD4b179w4ZMuTnP/+5oigOh+Pb3/52IBDwer1XX3316NGj8/PzLcsCC673rrFDwuHwZ599JkmSYRhgNiawMP0ApnSiKOq6HueTJ7auGIZxxx13PPfccyDS0ONgWu50OkOhUAKLlygwxnAH7M01gxAiSRJCqKKiYvXq1R6Pp5eKQaMBYmAhSpKEKLKIRSkVBdEiliAIpmHKimxZxDQNsOPYNE94+Zn+WpalKAqIAlhhkiSBLQbGpmVZsiwbhgGmmSAImqY7HCpCWBB6q1UjhHzyySdz5swxTRPZbCIGFFKSJEIIsQjlIb49BlyicFfhtjOgBb3mmmtefPFFsNm7RNJZZwxBELxer6qq9o1tGeftW9cx22No55xtbWyrv9DqOdvf2LKoIOjwXEEFYi4kFAqZpmkYRszNiTtMkgRBUBSFUmpaJigptKu6rquqKggCokh2OhFCgiCwaFhJksC2IoSIgogQCgQCLpcLTsgMT2ilWQdTFEXQDoSQ0+nAGBuGgbGUKDudUur1ehFCkiTput7SWO72g+6wrrZaCbt6zpjPndzYk2M7LBWKNsmNjY2tXlG3STo5Y4bJwIEDn3zyyREjRghYQAhFpv/ZJgHajunixpivkmxPLGCwVuyiiaL1w+fzLVq0aOvWrQihmJatN4BqRyklFkEYMYVVFAW89ZF8G6IAsgsTPCmliqIghDRNg30wxgISXC4XivagMcZ2uy8iExSBi0oQBLg6jPHJbxNBRkbGCy+8UFRU5Ha7wRWYRJWnVZJ4T4ootFi6rtfX1994442HDx+OYwcx6eSM9bA0TRsxYkRZWdlp6D6Lwd7xbGhocDqdCCF7V66XAEMMCsAiFEFfoACwBT7ARkEQ7SWyu/Za9h1gi307FjHbAm67vsfefoClXFhYOHr0aFB28Ipwug1M8LAs6+jRo8wvES9FSzo5Q6fWp8S2zElDpLGDHmgy35AkLlr3wdHMbmBmJro4/QHaOxPXklHO7ECvJNGlSAYi0Rv8bvQxOAr7M7HlSXXshljcb2ayy1liB16TAYwwTPGhURJdotOUGFcmp4f0RsOQ7HM2OfbIAG4a9D3cIo4vOBol3hsnT3brjFcmTtyxW1gdWluQjo39yWtjD4EeBoTRxt3U5dZZSsE7OhxO23A543A4/QQuZxwOp5/A5YzD4fQTkn0ogMNpFUqpYRgwU6pl3pF2D0R2HyTzTMPsd0VR4p7mgdNncDnjpB5sRGznzp0nTpzoSbA+pbSqqmr69OmQLfKLL77gcpa6cDnjpB6QZoMQcuLEiQkTJvRwdqdpmvPnzzdNs76+/uKLL96xY0e8ysnpY7iccVISSDEky7Lb7Ua22fLdAJKXWJaVlpaWqHnvnLjA5YyTkoAAIYQEQejhZGaWIARSHsWnfJxEwOWMk3pAQjSW5xL1LFifLbBCCAFLjfba2hycXoXLGSf1sPv+e55nhuXMgFS6bDtFPJN2isHjzjgcTj+ByxmHw+kncDnjcDj9BC5nHA6nn8DljMPh9BO4nHE4nH4ClzMOh9NP4HLG4XD6CVzOOBxOP4HLGYfD6SdwOeNwOP0ELmccDqefwOWMw+H0E7iccTicpONkmqZoLvXOJGuKJAiyLEvAAsKIEmpapiiKvVdQe9IVy7Lgt6D0fIlpDud0RlEUWMgGkjUZhiFJEqVUEIRQKCTLMmwXRRGy3cUoRkTORFG0LEvEIsVUkqRelRW7ygqCADlFCSFQvt77XQ6Hk+RAKk1N00AWQNogCR1oGWxpS6AichYIBJxOJ0UUDu5VOYs5uSzLkiSZpokQ4gYah3M6A8pVU1Ozbt26QCBQUlIyZMgQh8Ph9/t37tyZlpZWVFSUlpZmWZYgtLIaYUTOZFneu3ev3++XJAkstd4rMRQC7DDLNI8dO2YYBuJaxuGc9hBCJEnyer1DhgwxDMPr9cJKDqqqDho0SFEURVEQQhhhSgkkErYfHpEzv9+/cePGwoJC1aFqmgb91d4obszPW5ZlGIbD4QiHw4QQUDQuahzOaQshxO12FxUVgaWGMTZNU1GUIflDBFGA5aLBd9ayHynBig+KohQXFzscjk8++SQtLQ0WgGA7Re0panfYM72zj0G0v6d9H/jXNM1gMBgOhxFCMCYAP83GBxBFCCN2YVzpOJyUBmSBEGKaVquvM7zmbJAQIQTLa4lSRBPY6hAtl4k4ObJpGIZhGBdddFFxcTHTI/YDMZ97+C37edM0N27cCO49WJ4H9mGuNIooRpFhDt4b5XBSHaZBlJKeL1sTQ0TOTNN0OByBQACEo89WGySEqKpKooCuIYTsliTYj6Io8nFPDifVgbUEIZLBvm5WXIjImaqopmGC+cM0pZewqxKYjmBVSpJkWZYkSeAOFEXx+PHjTqezoKDANE1Y1bV3A+I4HE7vAz0wSmncX+eInBFKKKIgKL0tGTFeOa/Xe/XVVwuCEA6HT5w4kZ+fTwhpbm7Ozs72eDyfrPnkyquuhNEN3tPktIRSFJd6wU3/PoIiimhjY+ORI0fC4TD0N0HdWM+s2296RM7ASoIhg740ggRBKCsr+/Wvf00p1XX9zTffLCoqQgg1NDSce+65giB88803CCEw2eLe0+akKJRQLGJwp1qWSanQkxpLKTIMHZZVh4aT03sQSizLev/99/Pz82+44YavvvqqoKCAUlpdXT1o0CAYx5RlmfncuyRtiX94zMcvCIKiKE6ns6mpKSMjQ1VViEfjcGIQRAEGjiRJkiSph+2cZZngL6aU9mrEJQchJIoieOqnTHyVKm0AACAASURBVJkyY8aMp59+uri4GFRs7ty5iqI0NDT84x//CIfDTqezqydPCjlDUQvT6XQqilJWVlZVVYVaG4jlcFBkKoxgGLppmhCI1JOqgjGWJEnTNNS5ec6cngANBrzvkiTl5+crikIIcblcbrebEOJwONqaktkhiZcz+/AlDHQihAihCCGoYRxOSzBGsixbltXY2CgIQiSvAT4lwcHJLa2+FOwQhAzDkGW5qampN4vMQSg6PRycZaZpCljIyckRRbGxsVHXdVVVIaJeEASInu3SyZNFziB2TlEUjLHf7xdFQdd17sjgtAr4eTHGy5cvf/zxxyEMO6Yxj8kww76C9Az2LaIoBoNBRVGCwSD4ajm9CshZJKQBR/5ECMHr73Q62Q5dNdASrxesxBArDMO34MvgjoxWgVsE3kZo5RJdIoSi9jWrgt2YwmGaJhzeYc8RLtmyrKamphUrVtAoqIXnuNX3oZU9KaIoklTLHvXN3R1xxz6REWMB4knhocN29nTAm9ml6p14OeN0CVANcJ2qqqrruqZpbU3DaP/Pzu/ZSaBIMERommaXjGvDMAQsIISCwaA9RVVbpQLXBJsuEpPqz05bV5EkzQAnjnA5SzEwxg6H0zRNQsiOHTuuuuoqRVFiXnj4YJ8za9/Yck9GzJ5tDZazjS07cd/97nevvvpqCIfu0nWJgmgRK9AcuPfee/fs2WP/xZifY/9SSnfv3p089ikn4XA5SzEopYahI4RUVfX7/Z9//jnMb00GRFGcPn16xMXb1WBIjBBClmV9+umnO3bsaN/PAD2RcDgsiqIsy7qu96zgnH4Cl7MUA95khJBhGCy0uDMeU3pqmpPe2BOinWF4GoIhO39dlmVBGgJ2knaMR4wxaBkhBALQYgy0mMK3c0Vt7dn5knN6CUrpKQPWLYetUezGpJMzm5sQU8JrVSyUUohfgVCdgoICu6LF/AuHdO/97EbqFNM08/LyMMYYYVHoWpg+PHRRFEeMGOnz+VpKT8uraL9sndnY1rGmaTY2NtbX16NoVBp0pftgCuBpDnhCm5qa1qxZAzFbqEUuspZ1j5F0cmaHtqLGHMTG/kaMGPHKK6+kp6d35qjOi1pX5Y/tD+lDEUIUUUKJ0JV1wuCK0tPTlyx5TNO0zidQift1gbl33333Pf/88ywzPaVUwHwti14HOh+DBw8uLy/vRhKdpJYzTkswxpBSCSGkKMqQIUPcbneiCxUBQm2gge3qUACohq7rAwcOhPV7eqmQnSEYDHo8HqfTCRFtPp+PkFZSOXPijmVZhBCn05mTkwMtXIrFnXG6imVZiqLIsgyDAEkVG8WiNLpaKjhEVVVonxMoHJRSCDeBuBNRFF0ulyiK4VDY5XYlqlSnD5qmGYbBupNdyonG5SzFUFV14cKFZ555pmEYRUVFEGqY6EJFYIuJSZIE04Y6fyz0LAghGGGKOo6k7T0gJH3mzJkgzYqieDweQogkS10NpuN0FZaHAkeXlOtSTUjAs7G/fvYYIhR1J8Ml6boe9yYaXhhRiEytEEUxsi4poS1foVaDrbr3bVzAGCOMXC7XrbfeygKpe5IcKu7YX/WuJjROHhsTrmLBggXz58+HZGpwn/u4GJRSwzAgqBDqKvwLQ8bQo7d3xyilUI1hwBdjbBiGLCsYn2xmUHRBW13XZVkhxMLRuSVslNyyiCQlbLgDyqDreqpOQYfJdzi6VgBoWX19PShaHH/IsixREDHGpmUyO1YURUooLP8ex9/qPXB0XRhOr5IMNxnWnzVN0zCMUCjkdruhFwyWLxt+YZOBBEHACIN1KYqioihs/Q3waaLoLC5RFAmxQDsg2AWsY0EQJEnsho4kCYlvEh0OBzwwQRCampoCgcCJEycg01l8U4mLohgKhyzLCgQCNdU1fr8fYuuxgLsRxc7h9CrQxvt8vieffHL27NnnnXfevffee/z4cairEHUYDodZq08p1XUdwvegtY7YOIQiFhJoRSbVGoYhCCJ8gEgU0C+w41JUy1AyyBlLsGuapqZpwWAQAk/AYI67Y2jDhg0/+MEPFly8YNGiRe+8844gCKFQCGz4+P4Qh9NDCCHLli1bsmSJw+EYPXr0Cy+88NBDD2maFgqFYAeYtAvJGmh0FrdlEXtGCsj+Cu8RoQSacEmSCLGCwSD8iqZpYKOlerBngk0SSml9ff3ixYvhCR05cqS0tBQhVF1d/cUXX5x77rnxlbNwOHz33ffs3r1r0qRJn3/++RdffDFixMhRo0biU9f143CSAUrpls1bNE27//77p0yZ8sQTT6iqCr3FHTt2VFVVFRQUlJaWHjhwoKamZuzYsaqqbtu2DQyuhoaGESNG7Nu3Ly8vz+Fw1NXVjRw5khCyZ8+ewsLC6urqhoaGYcOGHTt2TNf10aNH79u3LxgMTpgwwe129zzBb6LoFTmDhZcQQuBoh7QHzONomqYW1vwBf1NTk8/n27x58+rVq6G/CbvBntnZ2fPmzZs3bx4EB3dy2k07EEKCweD27V/deOONd9555/bt2//2t7/pukYI8fl8e/fudTgcw4cPNwyjsrIyKysrNze3sbHx0KFDGRkZhw4dKi0tDQaDfr9/+PDhBw4cyMzM9GZ46xvqjx49esYZZ+zatSsnJycjPeOr7V+Vl5dblnX06FGv11tcXIxSdsFjSpF9Cgkh5PDhw5988klDQ0NOTs7o0aNHjRqFoqsIWqYlK3LUQLBYDCT7k81GMk1TEiUsYIwxoohQAieH/r6u6zAdXZZlTdPAAGEB4qcPlFDLsoaPGI4QevLJJ48cObJgwYKSkhLLsl599dV7771X13VFUR5++OG0tLQf/vCHjz322FlnnXXLLbeUlpamp6e//fbbXq+3ubn5oosuKiwsfPbZZ1999VVRFK+44orHH3/8yy+/fPXVV71eb1NTk6ZpkyZN2r17dygU+s53vnP//fen7rocvSJn4K2klIIzEiGk63pdXV1NTcRjxbK8y7I8fvz4m266CSo9Qgh8AbIsq6o6ZswYt9sdLyHAGDudzkGDBq1Zs6akpGTYsGH33HPPkCFDqqurf/KTn6xfvx5jPGfOnN/c95tFixa53e5XX331T3/609/+9rdFixYtWbIkPz/f7/dTSh999NG77rrriiuuuP2/b7/99tsNw3j44YevvPLKwYMHu1yu3bt3T5o0SRTF9evXjxkz5qmnniooKFSUPlq3NN7EToR8++23f/GLX3i9XoyxoigPPfTQVVddZZqmKIiyIkOfHUbWwN/M4oZgcXvw9SAUWdke9A7WDwNNhGE7aAUh7ItGF81O0Res+2BECJk/f/7Bgwc/++yzBx54QBCE//7v/547d+6jjz5aVla2aNGiRx555KWXXnr66aezs7Pffvttn8936NChu391tzvN/de//rW8vHzx4sUlJSX//ve/m5ubHQ6H3+8PhUI+n+/6669/7bXXBg0a9OCDDy5atKiqquq3v/3tvffeu2HDBlDJRF98N4m/nEHVlGU5FApBR/3AgQObNm3CGI8cOXL06NHp6engejRNMxgM7t+/f8aMGYZhQAssCCKMraDotOR4FUzX9fT09HvuuefXv/71L37xC1mWzznnnEcfffTFF19cu3btvffee+DAgaeeemr+/Pnz589/4IEHNmzY8MorrwwfPvy6665bvnz5J598snjx4okTJ0KbFggEsIAJIdXV1SNHjrzkkkteeuml3/72t3v37v3jH//4+yW/r6ioePLJJ48dO1ZYWNg/3kYYZUMI3XvvvUVFRY888sjNN9985pln5uXlabqGEJJlRdPCMMMRR5fkgYcIprckSX6/3+V0hUIhyArPbHZd12GgWRAEXdMhOsHn87nd7nA4nJGekeir72tg+kdWVtZdd92FMa6srLzllluWLFmSlpbm9/uvuuqqK6644tNPP125cqWiKOeff/4///nPgwcPjho16szpZ+7fv9/hcJx77rkXL7iYIvr666+LohgIBCBCFXKjqqp6xhlnnHPOOWlpaSNHjpw+fXpGRgbMS030pXef+MsZBHOBabZnzx7ovZ9zzjmZmZnRkWAJfJOSJDkcDnD5ezweuI9MyGDPOPrOYGmos846a+XKldXV1e+9997vfve7OXPmfPjhhyNGjLjkkkuqqqqee+65AwcOTJo0SVXVP/zhD0eOHPnVL38limJGRsaIESPAijx+/Dg0XzD47XK5IIfikCFDZsyYIUmS2+2edc6sdevWSZIUCAT6zbCpKIrQZxw2bNjMmTO3bt26YcOGAwcOPP7447t27RIE4dprr73mmmuOHTv21FNPbdq0adiwYXfccUdBQcFzzz23YsWK9PT0m2++efr06Y8teWzVqlWiKF566aULFy50u90rVqx47rnn/H5/YWHhj370o+HDh7/yyitvvPGGrusLFy684YYbWk/2368Blf/1r38N7WhpaWlubu7hw4czMzMNw/j666+PHz9+8ODB9PT0tLS0K6+88m9/+9uWLVt+/vOfZ2RkKIpiGEZmZiZFlBCSkZFBKfX7/Y2NjQghj8cDAR+Q+BNeWF3X09LSfD4fSuXElr1iMoiiWFtb+8477xw6dGjevHmTJk0aOHAgBIvD0juIItbRgDtLLMIkDM4ATXocS0UI2bZt29y5c1966aXc3NxBgwZBaEhhYWFTU1NNTc2xY8cCgYDT6ayoqKioqFi5cmVxcfHkKZMjIYtYIIQoigKDoXBIc3Ozz+eDnhc4esKhsKqqqqrC+jQgAalbP2KAaCZBEA4fPrx//35JktLS0sDOdTqdv/zlL7/++uu///3vf//73+fNm7dz58633nrro9UfPfzww+Xl5RjjF154IRAIeL3e2bNnOxyOu+66a/369V999dUdd9xRV1eXl5f31ltvrVmzZt26dXfeeWdubm55eflDDz20ffv2+IbspAQQ4Dpt2rTDhw9fc801559//vLly2fOnDllypTvfve7f/rTn6688sqPP/747LPP9nq9Y8aMmT17dnFx8eWXXw4vDqU0HA7DSUaOHIkxfvDBB//4xz8ZhvHBBx9omhYOh6GBdzgcMGcuGAzCJLPUvdtxsBoopT6fLz09HW5QOBzevHmz3++fPn36gAED2Aqg0AFxOBwIIdEWdgwChwUsCzK1JbSilHY1srx9MMYlJSW5ubm///3v33777ZqamoyMjHHjxlVUVNx0003XX399IBAYPXr0jBkznE7ngw8+uGDBgquvvnrIkCEQEwe+oVAolJaWlp+fv2zZsm+++ebrr7+mlO7fvx8h5HA4dF13p7lDoRCMfIPbGzpQcbyQRAEPUdf12267TZblqqqq66+//ozyM4Lzg5999llZWdl//vOfw4cPp6WlWZa1d+/ehQsXLliw4ODBg263+8CBAzNmzJg7d25aWtqECRNWrVpVUVHx0UcfHT169IsvvmhoaHj55ZdN03z//fczMjJWrFih67rL5RIEobGxce/evWeccYa9SUjFcZVugDGeO3fuX/7yl08++eT48eM//OEPr7jiCq/X++Mf/7i4uHjv3r033njjpZdeCm3/okWLtm7dOmzYMEppfn7+7bffPnHiRPBIzpw58+GHH963b9+sWbO2bdsmimJmZuZtt91WXl7udDpvuummzMxMt9t93XXXwXTg1B3ij4OcGYbhdrtNw1QUpampacOGDenp6dOnT4dVP2nnF8Kgp1TTuFdZy7IyMjIe//3jL7z4wu7duysqKubOnTtt2jSE0JIlS1599dWMjIxrrrmmtLRUkqSKiorvfe97F198MYysTZ06FQaVVFWVJOmXv/zlX/7yl7KysosvvvitN98Kh8MTJ070eDzZ2dlFRUVXX311dnZ2cXHxtddeO2DAgG6sr5WcWJYly7IgCIMGDSotLR07duxVV121a/euhQsXjh49GrQ7HA4vXLhQFMX33ntv+fLlu3buuu839z300EPvv//+c8899+677/7mN7+54447PB4PWOuNjY2yLDscjuzs7MrKSpfL5fP5YIxo//79aWlp8+bNg/HT0xBwL5533nmzZ89GCCGKBFGA+w8T3aCrCO6aSZMmfetb3wLrITc39/777wdrQBCE9PT07373u/DVBRdcAAf++Mc/FgRREPB//dd/Qa/oBz/4AXvECb7y7hIHOYNpZWE9bGnW0qVLZ86cWVJSwuZM9Pz88QKM8JKhJQ8++CCbxSZLMkX08ssvv+iii2AEgxX7wQcfhArhdrtvu+02hBCLxr7wwgvPO+88MMtvuOEGSZKmTJliWZau67NmzTrrrLMgzfSZZ57J1uboBwYFS2149913n3322YqimIa5Zs0aTdMuvfTS3bt3b9++3bKs1157bdWqVXffffePfvSjnbt2/uc//3nzzTevu+46wzDWrVu3ZcuWo0eP/vSnP9U0bcuWLW63u7y83OfzPfHEEwMHDoSEPGeccYbT6Zw8efJ555136NChwYMH94O71w1isuwKosA8y+C3gSE1tvwVeMHAvIJgWnDdUEphtTc2bRMhJEkSRMA4HA7w8zAtS92RqzgUGoYvdV3/4IMPzj777KFDh0ZOLQiWZSWP10iMAg67yKQ2YoXDYcgJA3UFHiQEEyLbuhuWZUHPMdJfFkWoJQ6Hg80AZesYQYWAoYzUNd1jkCTJ4/Hk5+c7nU5wzQiiMG3atDPOOOPRRx/dt29fRUXF66+/XlFRUVdXB/r1/e9/f+LEieFw+P/9v/+3bdu2q6++esGCBdOmTXviiSfWr18/c+bMDz74oKKi4tprr33nnXdefPFFTdMkSZo3b94VV1zxz3/+85JLLvnzn/984sSJRF96YmCB/iyLpChKMMiGEWahLSg6kxfmO1uWZVmWoshQ/djIMgugAQXEGDsdThRVNxiaS/VmIw7WGUzQX7p06fnnn89aAMsiooghEEkQkiXqCqwtGJEE36coik6nE7z4MGwHKgYRUixvNZsyghFGLC2BpoPYsVaRxfpC/aM0MpM51WsJIAjClVdcOW/ePK/Xq2ka+Arz8/M/+OCD2tranJwcXdf9fn92dvayZcs0TZNlOSMjgxDyzjvv1NbWOp1Oj8ej6/q//vWvQCBAKXW73aFQKCMj44knnqipqamsrLzhhhtEUXS73Y888ohlWcFgSFUVCHNL9NUnAOZ0BqmyLEsQEMYCQojQkwHnEBPD6h5IFUxNZ7lAICYZHhliLwI9aYWxZhulcnXtppyxNCNg9K5cuXLixIm5ubmCIFgWEQQMsWOgGvEtcc9hBpTL6UI4kq4PRTPDwKWBCYZsvj+4EKg0IFLuNDeNJjiCcUwWAQ8nwRgjlMLTp2KqNcZYVuQsZxaOps93Op2EEEVWhgwZArcxLS2NUjpgwAA4lql8Xl4enMTlciGEwL6DEeE9e/Y888wzY8aMWb16tSzL4MCG8YT09HR2//vsqmnv53rqJPDTrE1lQ+TRzwhF6yfrSbC1R8EFZB9bc6gOqKgIIVYnqS31Pvvd1O1sdkfOwFRhN2737t1ZWVllZWW6brhcTmaO4eROZcMeWEx9jSkz+7blB3RqawYnZIEmbZ0wpbEH0NmvGlb8RS1uJhsDaSkKrI+Tnp6+a9eulStXOp3O66+/ftSoUXDO/mTY9gR7HTv1X4ROzRPHdN+eB812IoSj8XusTrZqjqWolqHuyRmO5iYDK/fokaPTZ0yHiBXa9STxnNMTmCSAMc7Pz3/99dcbGxslScrKynI4HJFVyDicLtId6bGvbLh69eqSoSWRUNiUtVE5fQ+MrEH4scvl8ng8sJ0nsOZ0m26qD3TLIc1ISUmJJMksmLjfRMBzehXwVWMUGTaB5rCfTaLg9DHdaQYhYYYkSXv27Dn77LNFURRFAbz+qev2ThXsI1D2zykHRHWyFVLAKIN/E5tB0L4AO7TQTG1xF1fi4PQx3fSdwTTypqam7Oxs0C+7+5YTX+zWCqWIUsLCgPt41C+OQLHZwDd0MOFfLCTyiqAmV1ZWQq4BwzAqKiogLJFrWZLT3UANi+zduzc7Ozt1X6cUxbLMbdu2NTU1wfqP48eP5+9YfIGwxD/+8Y/PPPMMQigzM/PVV1+dOHEic/YluoCcNulmoAZFdOPGjRdffDGkWox7sTht4ff777zzzrVr12KMx48f//bbb+fk5CS6UP0KYhFN1/x+v9/vFwTB7XZDMB2iiI9RJDndbNiDwaDT6YREjPEtEKdDdF1nKQ/5/Y87oiQqigJxwpRSyFIlYMEiVnwzVnHiTjd9Z36/v6SkhBAiiVIP51e3013tHzO340zUjQbpPXqv7wOKySZ4oXiPWcOTBf86brFklz2cHZZ57h7stJE8VNEJ2+0cElnQKLoPZBaA9ZB4TzPJ6ZSctXz8fr8fcrwQ0lPFgXBcjDDFJ09Foznm+dgCso9jUgSrtUPoXy8ZC2wmjc/nW7Vq1YkTJ1wuF0tEYy8Vqxgt9ajDjbAKJEyYZeueMGDo3LKsgiEFM2bO6PbsaJDjqqqqjz76CGKJWL4mVpKYYWJRFH0+3549e1imaQgf4W7i5KebYbS1tbWlpaWUIkHAPcnoD6v7wcuJELKHg3MhSzibN2++7bbb6uvrka2BiRcgECxoNmadU1mWQT0vu+yyqdOm9sQ/axjGihUrbrnllkgUCKXtp8OPTNuKRmZ0+3c5fU83PS8N9Q2OcodlmZAgrIdP/WR3A0cmx7KeCB+2SyBOpxMSMBBC3G63pmlxXBeD9WEhG0TMgzYMw6E6JDmy3FdPfghHs7SrqgrJrNqvVBDNy5az6MlPc/qYbo5smpYJqZdOGlbdwpZLJwKKNtRJPoP9dMA0I6+0YRjhcNjhcMRxrXhQGVAr3CI/PevotfyqGzgcDofDwVYLa/+EkK/CMAzQ2R7+NKcv6Y6cEUKCwdDBgwcgRxBkienez0NS+U8++QROCy8PVCO32z1mzJi0tLTunZnTc+BdBifX9OnTr7/++pZNV4xt3vk/BUFYs2bNZ599dt111w0dOhTMwFN/HWOMIRVtt3sAEPI9Y8aMp556CryNbCjA7juzOwERQqZpvvbaax9++GEc5ZvDsD1Kyu68IAinLuvanaEnif0ASx7CrKQ2j5GkWbPObmpqUlVVlmVwErdaYnt1iW5BgnDyK8uytmzZ8vjjj2uaxjLVQZJfj8ez7J1lZ4w5g7eQCQSenSAIY8eOve666+IYYwiZMi3LuvDCC8eMGdO+Jd7tOgA2/tChQ1mSZNTRewJm4/bt21etWsXrXm+Ao2tNsYzNmqYJgmARCzJKgmEObU+XHkE3XQN5eXmDBw8mhAhYoKj74/eGYQwaNKihocE+nsAmx0ky91wkEfEd2hME4cILL2xqbBo9enRXa20P4SKVQEDIICW9ZVn79u0Lh8MgZ9OmTYN4Gpj9zVKodp5uTkE/aagLJ826CEzccNsbYQSTIkEQIFU/pOE+uTulhmGk9ILM/ZL4yhnGWJIlCKBLHjnj+Tx6FUhq39DQ8NFHH+3du/eLL74wTVNV1crKyrq6OoxxIBCAEZhu5LPo5lAAGFCiEMnP28Z+7W6MpgYGdwwMJNmDmyRJ4kMB/RgIAXO5XNDl5GOIpwlgfE2ePHn//v1Llizx+XzvvvuufVEOjPHNN9/cvSXQJMQaKxz5sQ6PYdloCSKUdDnNwKn5ISjLVg59ZqjcHfrvOKkOLMigaRoEqfbiL1FEKWWzAlAnrDNYfrAXi3R6IwjCmDFjvF6vLMuhUAjed9gOrz8MdnejhYvIGcSymqbp8/lCoVCvSgkLyxAEwTRM6EujqGsGJBl1YkSC0wdEHpNpQmvJ5iSxcPmenBxCwODk8e1s2muOZZGmpsa1a9cSQtLS0tgaXVpYk5VIsC6NLgFHKdV1XRTFqqoqlMpZ85MWNs+MBfexN92yLEib2O2x7Ij+wXQTQRCWLl0Ky462OjTZcmC71eK2dRTsYB8JpZTu3bsXWml7zm5OMgAVDkUj+BFCLNIwhfwAgoA1TcvMzIQkP9i20oVdlKEdhVy4lNI1a9agFnMVOElORM4opdu2bSsqKpo6dSrEgveea5bJGdhiGzZsgNEAp9MZCAR4e5g82B2aEFYKUa+sLU0VUYMlotnqbZC5jBIqK3I4HIZcQDCfPxwOQ3/H5/PBRKtEl53TBSJy5nA4SktLNU0Lh8MxcY/IZlh13gK079nyJMwEsyxL0zRY/yIYDEqSxCtQ8gD+i2AwKAgCqBjMsWV5/RNdwE4BYw5QcoibA290OBzevXv38ePHA4FAZmampmm6rjtUh0UIxqiqqor5PTipwknrbNq0abCeLkw96b2fZNNWwNpfvny5ruuwpSez2Tlxh01vxBgfOXLk5Zdf1jTt/PPPHzVyVAq95zDEFJMbrq6ubt26dU1NTYqsNDU3qao6efLkjIwMSEcqCMLq1atT6Bo5QCTvCsxlA+yfewnWowTvMtve7bksnN4AHElgMldWVn7xxRdHjx5VVbWoqAje+ZR4WJRSl8sF2gSO/6qqqhUrVliWNXjw4PLyco/Hc/To0Q8++GDQoEGTJ0+GyslyvSW6+JwuwIN9OG3CepcY4/r6+nPPPbeioqKqqioyMqhp3Yjb7nswxuARAy3z+XwffPBBXV3dZZddVlxcDKLs9XqLioq2b9/+4YcfXnjhhSkh05yWcL87p2MwxrW1tZZpNTQ0HD9+HPJ6p1BqVkmSoMtpGMa6detqamrmz59fUFDAhrwgA9LQoUNra2sTXVhO9+FyxmkTmL8N/c3i4uLGpsZ//etfH3300eHDh7udHrbvgfJDhPbx48e3bt06efLk4cOHw6xAFvfEos8SXV5O9+EPj9MmkPMatMCyrO3bt3/++eemaaanp8clDVnfADlvYVbAvn37LMsaO3YsxtjpdKLowBTkd+xeJDoneeByxmkPCHEwTbO2tra6uvqmm26aOHHiSy+9VF9fn0KGiX31nAAAIABJREFUjGVZLpfLMIyqqqqCgoL09PTIChVRXC4Xjq4kAJfMLbVUhLdFnDaRJEnTNPCUNzc3b926NRAIPPLIIx9//HFqhcvD9AZBEHw+3/Dhw9k0AOgvC4IQCAQ2b9585MiRbdu2hUKh2bNnO51OPs6ecvD2h9MmsOgRpbS5uXn69OlPP/30BRdc8Prrr48bNw5CtBJdwM4C/U2EECRPZhvhA6W0vr7+66+/9nq911xzTWlp6bFjx+DqeN8zteByxmkTSJ4OM4QQQj6fb8qUKT/96U+nT5/ucrnimJm2t2HzUtxud319fUwePUJIXl7eRRdd5PV6X331nx6PZ8aMGallfnIA3vhw2gSGAkzT1DRt+PDhV1xxBeiCoiimaaaQnLFEIF6v98iRI5qmOZ1OGMpky7lmZ2dblvWtb02cOHEixhjyOvAEoqkFt844bQIvPFueEiGkqipkjo2XlvWNcwq0TBCE0tLSurq6Q4cOQXgw+4pGl3wPh8OiKEKQWsyUFU7yw+WM01lis6jH8cS9DEttUFJSUlBQsG7dOl3XNU0zTRNEDbz+hmGkxDwHTltwOeP0f9hqsF6vd/LkyXV1dcuXL4e8ocz+gj41N8dSGi5nnP6PYRgsOGPEiBEVFRWHDh1auXJlXV0dy4n6zTfffPTRR+fPOT/RheV0Hz4UwOn/MF8YpKKcOXOmw+HYvXv3qlWrMjMzFUUJBAJOp/Oyyy7LysriWTRSFy5nqQd0iFiS+/ZfP8iHASnwXS4XHKXruqqqLRPb2VcGgXE9yKwJowGEEraIl2EYEJLW+WIzpzubIxkMBisrKwmxTBP36oR2uExIEQ6Zwc8888yCgoK1a9dijHNycgoLC2VZNk0zFAohdHKplN4rEqc34HKWesDMcPBhd5jwEqPIWg1Op9M0TUmUEEagRKIoxgwttnyBQXpUVaWUwqpLhmGoqtq9VR3YIXC2d999d+/evZs2bZo6dWpXT9UTYFXa3Nzc+fPnV1dX19bW7tu3j41jwvyn2tra9tfE4CQhXM5SD+g6wSokTU1N7S9DgxCmlEB6MpAwQRAoRZQSyIVvf2ljlNHv98M+hmGsXr168eLFF154YV5eHigaRNjaf8t+nlZLxbLxEEKWLl26YcMGWZYrKir6WDXCYU0UBEmSFFkpLi7OysrSdZ2tigb3ZMCAAZBDvC8LxukhXM5SD7DIYAH5gwcPdhjqqShKKBTyeDyvv/56QUHB+PHjw+GwIAgQDWvfE+QPIYQxohQdOnQI5vpQSgOBQE1NDcSgEkLgWNZ/jB7bej5hu1qBuUcIqaurkyTpvvvuczgcfawakiRCGapqqrZt24YQSktLo5QahgFXJElSTU0Nj6FNObicpR4Qc2Ca5oABA8aPH+/xpLOvQIZiPoD8NTY2bt68uamp6Xvf+57T6QQzDY6yHXKKleR2uyBoVhTFefPmPfDAA+medCxgURQhp36XgmBjlsKZMWMGW06lj6dGCoLQ2Ni4YcOGY8eOud1uRVHcbndRUVFmZiZT5xUrVqTK2i4cBg/USEnYenGCIGCM2H8IxX4ghCCKEEJbt27dsGHDe++9V1lZCTYIM81shwgxQKApZED0eDyKqkBmV4fDIQpi7N7twrLxwJ9ut1tVVYfDoapqrwoHpZTZodCRbGxsXL58+a5du9xu98yZM2fPnq2q6htvvLFlyxZmoMHO3EBLLbh11s+hlIa1MKX02WefDQaD4XD4448/Hj16NGp9DfOOvVgnLbKeBfP3We4djLGmacwA9Pl8y5Yta25unjFjxogRI2RZFkWxrKwsNzd3+/bt69evP/PMM1FnbgQn+eDWWcqD2wUsqYMHD0LvCWO8dOlSCEdo/8A+k5s+wDRN6FlblrVp06ajR49ecMEFZ5xxhsPhgDy0qqpmZWWVl5fv3r2bC1nqwuUs5aHtAsOIK1euDIVCsJL55s2bP/jgA8sibN51zM6MRF9Z3FAUBbqNNTU169evnzJlSlFREaxHlZaWBtEnyDYXipOi8IeX8hCLWDaIRWALsYhlEYxxc3Pz8uXLUTR+IhgMLl26VNPCpmkSQm07Wy3VMNEXFx/YrID9+/cHg8ExY8ZC3xOmbbJkR/bhEU4qwn1nKQaLihBFsbGxceXKle33CgVB+OyzzzZt2sTiKiRJ+vjjj//1r39lZmbGuLohzIL1NA8ePBgKhWDQIKXzssI4AEzMLC4uzs7OggtUFMW+0jvcnHA47HA44A7zJI6pRQrX0dMTeOUgSMrtdpeXl0dWJDrVM08RxQhTRCmlJ06cuPjiiwkhJ06ccLvd6enphJDc3FxwhMO4J0XU/hPwtouiqKoqLBeQ0pYaaBMhJBAIlJSUsBA5ZouFw+EDBw4cO3asurr6yy+/LCwsBIMupUX8NIQ/rRQDPFwQsO50OgsKCljy+1axLOvaa6+9/vrrKaVffvnloEGDigqLKKLgMGprpiS88LW1tfBWw6yg1B0cYFKsaZrH4wF1ZpeDMT5w4MCWLVvGjh07evToxsbGuro6EHHe90wtuJylGDiaOhVjbJqWZXagMoIgOJ1O+4REiihEgSmK0v6xsEQbvNKthvunCqZpwAen0wnTwk5qGcKU0rKyMoRQVVXV0qVLZ82aNXLkSFVVUXS2PydV4HKWerC+EsZIlDoIQIVQWOgqgg6y8TsBC/Y+JoPtjBCCwH04T+q+20yUc3JyKisrw+EwSDzGWBCFcDisKEpZWZnX662pqZk2bRp4zSRJghFPTqqQdLa0PelCYkuSfGCETzq2WGhF+7FjlmWJogiLmcNREDiKwL/WGhGxEwSMMeQIw72/5jlcC6IIhiBBgmGaPSEEAuXgW4Qi+8C4JPzb/skhubYoioWFhSdOnKirq2OpaGHCA7NVIeAW7gBoGdyH7l5VPKtxvxlutvcw4nvmZLfOWLt62hJTfeE1hgEByPPTfv2OKFd0N1EU4QPc2JguJPzJ3HPwFWgHvPO9cYFAOBz+5ptvIO2HN8ObPTAbZBemuzscDl3XYQwENGjdunXr12/4zneug4SLHfa4wfE/eHB+Tk7Op59+etlll4EJRimFdBqKotg9iazNYP10u9HaJdghPbyBMYentK5BQxX3S0h2OetR29gviLl8MLUopSBM4XA4shvC0HNkHwAIqoKAA03TNE0Lh8MYY8jdePJNQ5giyhoPsGUaGxuhCQVN7MUJjBQdOXLkuuuuq66uFkXR5XJ9//vfv/XWW2GWu9/vV1UVQsNAmAzDePfdd5955pkLLpibmZnZmV+ADHE5OQOnTp26bNmyzz77bOLEiR6PB+4G3MxQKNTqWsj41KyWcb3yLhDTcUnpZr6XbmOyy1lKN0G9AbNEDMOoq6tbu3ZtbLWmp8ympJSymPhNmzbl5eUNHjwYIQS+oZYKxbqokiQdOnQoFAqxfkHvvT+gvxBFMX/+/H//+9+/+93vZsyYOXnyJMMwXS4XxL6xVCIIIcjg1vmfgCFaRVFGjBhRXV29fv168Jfl5uaC8XXo0KEvv/zynHPOablgFZsm0eM7EIe32O5t6Om5EgJFCCMwseN+7mSXM0KIgIVT39D26I09E0yLUoIXzLIsr9d7zjnnuN3udo62DwKoqjpixIi8vDzmU2vrKHh1N23alJ6eDn0x6OHG4XLaAPxW+fn5t9xyi2EY27ZtCwT8zc3Nzz//fGVlZX5+/lVXXVVUVBQMBt94443Nmzdv27bN4XBYlmWaZocJOaBfAyaYLMvf+ta3JEnat2/f7t27hwwZkp6eXllZKQjCnDlzvF5vzA0XRRFmC5x8Azv9GoJMx6uHEeMzFXDSWWcQ7djBThghGokEjHsDmXRyxp6ZpmmvvfZaVlZWokuUYGLehFAodPDgQXi7oEvY/svM2kB47SE5D0IIUua3tTOK+msNw4BfiYxsUmSYBgtDY963luIYdcMhhKhlWZDUu/1yYoy3bNly2223bdiwoaCgoLCg8ODBgzt37tQ07Y033qisrFyyZMn//d//LVmyZMSIEUeOHAHLsTNOPdY9hzGNAQMGTJs2zev1Hj9+/MSJE6IoTp48OSsrS5Zl6GyCMYijc8JefvnlwsJCwzBgmBhGe8Hca/+nWVddFMW5c+cWFRX15AUGFVu3bt3WrVtTN3MR6y40NjaCNyOOJ086OYPGBzKU/u53v+Mj5S2BWwR+pXBYa986Q7aU1qyfYleiVg9hkge7sbk+FFFZksPhMKweAKcCswUMOnjNmAMuGAw6HA5RFIOhoMvlaqeQuq47HI7a2tqdO3eGQqGmpqbjVccnT5589913a5p24sSJvXv3+v3+t956q6ys7K9//euLL774hz/8Ae6Ay9VeIDF4nXVdZ3YcpdThcI4bN66kpKSmpmbbtm3bt2+H9c8lURJEQVGUAwcOQIMRDAYff/xxdoFCdJEEEPEO77wsy1CHX3311cLCwvb3bx94XsuWLXv88cdR6sfEgckPn+Nl+CednMGFgVuk/Xj30xOwMnRdhz6gqna8nBKbidlyaLz9Y0EIRFFk5hhYamyWFXR7wWBhK78hFPGMYIxhkRTTNNvXMoSQIAi6rl9yySWLFy/+6KOPvve9761Zs6ampuauu37p9WZUV1fn5OTA0EdpaanH41FVFQRIUeT2zwzXDgl4QYAkSbIsE2Ps9XrT09OHDRsGVwdjnWCUrVmzBsZVYdjE3gDYQ9Lat7agwDB/Q1XVzvSLO7xF7J6n6FAANAxQhxVFia+9knRyBrUfAoV4lEZLWM8ObLQOawO8qHAU3FLmTWvZJLYMCgFFgzcZZjv5/X5CSGNjo9PphGFBQkh9fT28t5ZlqaqakZHh8XhcLleaOw1Ur8NHCfscOnRo+fLlO3fuBK1Zvnw5Idaf//zn73znOy6XS9f1zMzMvXv3rl+/fvXq1QMGDAgEAqFQKC0trf3mXdO0urq6I0eOwG7QcWYuLfsgL+tC+nw+JmH2ED8wVCFODXXCRIIeLor64NrfuX3gvWAxOq0OwiY/YNcbhiHLMhuXjxdJJ2fw8mCMMzMzf/Ob3xQWFrIXD586ERq3mBeNo3Px2CGsX4CiLzCLt4rZ3vL1bjUmq9Uyd7hnW6WKCf5qq1T2y/T7/ffcc8/+/ftR1P/V0Rt1MgKW5eYXBIESSlAHryIMBUIBFEUJh8Offvrpp59+mpWVlZOT895775WXl48dO3bYsGEej2fIkCHwvmmaVl9fv3///pqaGrfbPXXqVJfLxXx2bQHXsnHjxu3bt+u6PnHixNmzZ7tcrrfffvvaa68dPHjwgQMHNm7ceN111/3iF7+49dZbhw4dSgh555137r777vavAmOcnZ2dm5tbX18vyzKxCKGRODLQa1itCvTa4XDAy+b3+1tWMEmSQM4qKiruvPNOmP5p3yHmQQtCZMpBKBQaN25cz9tmXde//e1vT5o0iYU3gxfPbne3ZYa3fDtavlAkurIXO3Orb1yrZ7P/lv1AewmZB9Pv99fX199zzz11dXU9vCd2kk7OoEcAZvlZZ501atSoBEb6JBuU0qampieffPLQoUOwKt3GjRs7fEmgYlmWtW3btqqqqtzcXKheHUrh119/DQmCKKXV1dVr164dMGDAtddeu379+unTpzc2Ns6fPz83Nxfi2sBwAENmcN5gQomu65WVlR9++OG4cePy8/PbyU4BivPYY4+Fw2Fd13NyciZOnDhgwIC8vLwBAwY0NTXNnTt37dq1gwYNmjNnTk5OTl1d3VlnnbVjx4709HR2Le1ciNvtHjduHIr6+FuOWqBTV2ahlGZkZEAf0x6LB8cSQtxu97x589LS0tq/+WAOS5IEHaseyhl080eOHDls2LDUjceE26vrekNDwwMPPNCyzegJSSdnrDcEvqHUfWxxh9LIKDhz3zidzqKiotzc3M4cDu7I0tLSgQMHwpa2zFv7L0KvFkLzR40aVVxcTAg5duwYQkiW5YyMDBiRYMOLbLRBRKKqqiNHjhw4cOAXX3yRk5PDPKGEEIyFmKeanp5+ySWXxJR5wIABl112GXy+/PLL4cP8+fPhw9ChQ1mxYw5sZwuE47YDs9rs1go7A8R8MOOrQ5MTPjgcjvZ/tDOwOwyX0PLZ9fwn+gA21oeiN9A+PaCHV5F0csbpEDajUJKk7Oxsl9PFYujswXSRz9G/wT0kyzLkJmQ9Aoyw7XBqP4vb7QY/nSAIAwcOzM/PxxiDN5p0YpUj0FyPx1NSUvLll1/OmnUOLHCJEKKU4OQLm+KkOrxKpRgQNgFNNGgKRRQhShG1f2CfLcsKh8PMgR3TsUIRCWOHIIROKiA4vCHKAUTw2LFjb775JkxF6rDrBDsEg8Hi4uLjx4+HQkFogzs0ajic7sFrVYqBo9loQdSgl9cOkiQ5HA7wW7HMZXZncDuwUVE2hrBjx45XXnnlm2++gZO0X1QILMjIyBBFEVxRCFH7dG4OJ77wzmaKAQNwdtFpf382G8ZumsGE8w6PtYfLwOFZWVnDhg3Lzs6Gvmqkb9pGig7o24IPNBQKgQMe28Zte3grTnNibrX9q87cW3pq3pT+AZezFANH0z+wIXNK2rZ0MKL0/7d3bsFtXGUcP2fPXrSyLcuOr4njxM4FX9IkbVqSDpmSIZ0hFNqmTGkHGPrCDDzwAm/A8MoMT8AjT30q0ALTls5w7fQCHdIZHNqESdq4TUhiO4mdOLYsS7L2enj4a0/WK/kuS5Zyfg+OIq2k3bNH3/nOd+U+KXhX0NLc931OeaQQvnBKht8dttHmcjnG2PDw8A9+8IOrV69SSh3HIZSIakUkqGHNgyKRjuPE43Fd12/duoUiP8IFuRrjvWR5sJiVDOgTRY1wTMkDxCKEcML6GH8pzmoPoeDk8/lPPvkEVi28VDICDhHYhJCbN282NDTAjua6rqZq6I0S+WShx01OTjqOYxgGrGZ3795tb2/fuXMneutCqmK36zgOY8x1bUQVIYiMMWZZFmPs8uXLn/nMZ0RZxPBuV7JuRJkTP2iWihIpCCURUWklR1uEB9dudkFJpDirPbDwIkHk2rVrK2bpQ5wxxubn52/dmsSTruvquh5pvBbZety8edP3fdu2KaWZTGZkZOTUqVNwbjLGRPFIkZVNg6K1+BwkeIyMjNi2vW/fvg3GxEsiMMY813M8B4sHD4XaI9wXqplI1Yq8HXcK9oS6WV2kOKs9RNmv5ubmxx9/vLGxccW3IKiCMbZjx46enh7EKi9fUYMQommaaZq5XM4wjJ07d+7evfvPf/5zOp2+fv16Y2Pj+fPnGWOPPPJIQ0NDa2srflQQdtlsNpfLTUxM5PP5ZDJ55MiR8K9lNSY/yYr4nk8V6tke7iZGFWE00Jexuy/pdcHz2WxW07S62WkSKc5qEahLyH1bZdADDaWkiAJeZCWLFd6iBL3p9u/bPzAwcOXKlUOHDk1PTz/33HOu605NTU1MTCiKYpqmpumOY0MvUBT24IOHk8kkpK3KVCI9AGWFKvTatWsffvjh0NDQ/v37fd+fm5v717/+1dHREYvFrl69+thjj7W2tlJKsRkNj7yiKB9//PGPf/zjZ5999hvf+MaKaRW1ghRntQd2dpZliZ5MyyA2gLDrCx8lXi3pEQu/usj/RYmmaQMDA+FXEc/hOI6oRYEKHMJSVvz5krLgOE4ul/v+979/7NixF1980TCMN99883vf+953vvMdx3FeeumlV1999bOf/SxjjHPftj3U7xR1oubm5t5///3HHnsMZodqX015kOKs9uBB7YdIhnBJhIeLBBVfUYaQh3qAL/MtPFRcKHK8cJnRoJmAMDATKbkqQl9f38GDB997772xsbG+vr7XX389kUi88MIL+Xz+6NGjw8PDqVSKUtrU1JTJZFCjHHdnZmYmm82GyzHUB1Kc1R6QFOjp63srVMUQYkV4G6Fq0ZUqOJJQyiHEWXG+ekR4Cdm33iuTrAFN0+bn55944on33ntvZGREVdWzZ8/29fXt2LHjD3/4w6uvvtre3v6Tn/xkYGAgkUi8/fbbTzzxxI9+9CPDMH71q1/97ne/Qx+csCe02hdUBqQ4q1UURVFV1bIt3Vpup1Awmfncsi3bdnjQEKzkDI5kAtu2jWxn7EdKanPh/akQjjxogrfxy5Qshe/zlpaW48ePJxKJv/3tb6qqptNpZOyPjn5y9uxZ0zR7enpeeumlL33pS319fS+++OKJEycURfnZz362d+/ejo6O0dFRoelX+2rKgxRnNQbkESFEVdU7d+789a9/DStNEeMXCapiQLf6+OOPE4lET0+P53kIoy02ogn7GqV0bGwsnU4L61uxdiYUsUiIkxRkFUBRaC6X27dv35e//OW33357amqqoaHh0WOP6rquqoXxP378+J/+9Kcf/vCHjLGvfvWrFy5cwB7zpz/9KWPsySefNE0zn7eamlaoMlIrSHFWYwgJ4vt+IpF49NFHV1GCnHLuO47T3Ny8d+/ezs5OuriMZcngW875f//7X5RjREWz5RNipBSrPDDhP//88y+//PLExMQLL7wwfGC4UJggiKolhMTjcVEAHcEZyWQynU4HYbdK3ZR9luKsVkENsq6uruVbnwhPVj6fb21tbWtra2trE9Wll/+KlpYW0zQXFhYIIXD2l/MCJBsDKbGc88OHDw8MDHz66aff/va3RdwsCRKYsAKhEjrnfHh4eHZ29pe//KXrupZl3bhxQ9O0+pBlRFbUqEVEsMVqevkI2zwNOg+J/674XmxssdRrWonAC0kVEbt7XddPnz79yCOP7Nq1C9p0V1dXb2+vqqqNjY3d3d2EEM/zenp6dF0/efLkc88999Zbb01NTT399NMffvih53q13hRKILWz2iPsPVxRYxIBtHiALHRsM4v3hpFpHfZXIne9fBchKQ+Komia9s1vfvPpp59OJpOKosTj8a9//etf/OIXd+/evWfPnmPHjg0ODlqW9dvf/ra1tTWRSPziF78YHR3t7e1ljF27do1Q6QqQVA8eVH8mq1OyxH4TsRoikaD4vZEoJDwU7125wbWkgogegIyx7du3c04YKzRF7ejoaGtrw8azv78fGhzkFyEkFosdOXKEEMI5TyQSy/RwqDnq50ruHyCVEIW/4sHh0hfC8L+UThfZlirKvT49nuehAZJkS1Ec22wYBglFyRSn9IZzAOrMeyPFWY0Be5bv+/F4nHM+MTHR3Ny8zPGQevg7Ozt78+bNQgNgz1eYElmZRZYS/Ji3bt1COTPRMWCTL04i2RBSnNUqjuNYlpVKpdLp9DLalvDQU0qnpqaQuE6CfqbhI/FAxKkhrU/oa3CGbv5lSSTrR4qzGoMGlftRWHFwcDAebyCFriXFe08u9C/f97PZ7ODgoIg7w9+wJKS0YIsRBWdM00Q/cFqqqKlEsqXYouJMWp1LwgkhnKDmIhIwCSGattxN5D7nhIt+kZGehsVmYL64Aj2UODQxKfvlSCQrwEut0Uuz+eKME/ycYI1G70USyvLDUTTow8qD/o/QQWToZhhKCVUo4s6Ev3L5IfK5L2pvIHQWShbMYaJhHdwFJLgRwkIsTGkrdtUsZsveu40kyYvdN4Zoy17jlgU/as/1SFBFMpKRQoJeB4UYI3JvkgvhQAKHVcSVsenbB8gy9KMPfz2uQZT9xYWJqueEEMuyZG2GksA8TwIn/WreUhw6i0UFP0tFURzHKa6uIeJ1OecNDQ3SdkaCGYvNvpyf64YqNJznK57XdR0mDhKUUCahIlciwAibjOLJv+naWdiKzINy8kLKwuoMzzGSomlQIBgvcZ/LzIXw/cbPCcHfhSFaVkHADLAsS1VVhSqe63mexxQGrU1kF0C6RVQwKGVoSoASuJtzfbUEDfX3K1mDX7I8YgBt24bwCks0bCAcx3Ecx9ANsngNhtYGM4vv+0xhka3oposzce8hwhzHwWmpqor1zTAMhAWIWCoRIcUY83yPcjlj7sGDFnMYN7LSfgcLCW6/53tMvScBeVAmiHOOfhmRj9J13TCMVCoFiSa1MxIabTSHr6cY1MoA5aYQmB3qXY1XofFYlqXruud7qEwFxxQW5sIe3y+hmpGKuQJSqdQHH3wAmXX37t14PJ5IJNBQ1jTNr3zlK/l8Hg41mJ81TXMc58yZMx999JFcAMMjYFlWf3//tm3bKKWJROLNN98s3NeIbzOwoUJIIRt5cnLy9u3biUTCcz2qFPwAUMEYYx999NHt27fD3zs5OZnJZEjIJ7D517rVwXI7PT397rvvkjqqFFYxLMsyzbhtW67rHj58eHBwMLx1w46tsbHxzJkzEGHZbDaVSrW0tECVe+CBB5qbmz3fU1iJ4qOV2GxCuM7Pz586dUpRlL/85S8nTz5OaUFlO3r0aLFbgAdVtwqttimJ/i0cuvhnzBf/nhedxwaOLH5c/GD5I8MfLr50lUcuhnP+zDPP8KDq3urjJyJeF/FYKGu/+c1v3njjjbDrM9xcFrHmy39+IWXd9S5cvCCq1xqGkcvlGhoabNsWpl/RcFOklMJlJGaCcA2RxWmn4kLEDiV8jOu6+D0I+wb6tgRDRDn3FUXZt29fU1OT8KisSSThGnt7e0+dOqVpGmOMwg+/8Ru9zJHF8z/yruJfBFnXkcv8LcvnB2OI+/Xss88KWyReEnezcFM4uTtz94033kBZyvfffx/1YzRVI6VcOhVVlcWMDOoD3puyktVTxsSUsICABhdJNV+TakwJRZPgmZmZoaEhRPA6jtPZ2ZnJZFpbW9G5TvitImaR8JQQ8zv8QBguwqJN7ERoUC7c93yfFzbR2K2I3w/nPJPJjI+PDw8Pk6JY4jWNG3zEdZYkVGFWHL3iha3wwhKzUu78JeWBUup6hf7q3d3dXV1dlFLXdRljqBw5NzeXz+fz+Tz2awsLC6JWvWEY8XgcnxN2yYdBayhsnFHpW1EUXddR/juivolgIKHp48PRvW1qakr8V8qjeqJiYO3iAAAPBklEQVT64mz59V/G9RQTGbEtMkRh+4AIYoAPIZvNvvP2O5qu6bpumqZpmpqmxePxhoYGGEwdx8lkMsLGxzlH1K64tFwuB/nlOA5kojD5IW3LNM3m5mbDMBKJRHt7e1NTUz6fj8Viuq6Ht5M4Q9f1IOkiwUOSylPeyVx9cSapGyiltu0otFDq1vf9hYWFGzdujIyMHDp0aHBwkITUqLCUEY/DqhkJlUIS2haewSfYtm1ZlpBulmXNzc3dvn17YmJiZmYGhq2Ojo5Dhw6Fo4J932fs3ndJ6olKiDOxRxB7gWKXxFJIt+aKbJ0h4pxrmur5niiONj09ff78+WeeecYwjIiVKqwTRYKrBRFHB12csWCaZiwWCxcUCXsJoOidO3fu17/+9de+9rXm5mbsfKH9iZ3pBkdv6wx+fbDB8ZRmeEl5gIAQsdo+92dnZ//+979//vOf37zgLLqYsKEN+9AHH3zw5MmTr7/2+sTEBLaW4gcjJVH9IcWZpGwgqQA7R8/z3nnnnePHj7e2ti7fAmqTUBQFbs3du3effub0W2+9hXhGKcXqGCnOJOWEKSyfzxNCZu7OaJq2b+8+eA8rL0Q456LVsWmaQ0NDZ86cQf5Jhc9EUjHkrZWUFVowXV0avbR//37bsZG7VskEKRrKbYbCqOv68PDwyMjI/Pw80uwkdcnWEmfrqEIj2TqI9uy2bY+OjnZ3dxuGQUPZeZsHAjtEGz0SyiWAOhaLxQYHB6empuRmc4sjspIJKcqgWInqB2oIp6eMsa51RH2UXC7num5DQ0MhpJsqm1qOE/tKxK9dunTJdd0HHnhAmMlEo4Pu7m5UFtnEU5FsDFELCEkda+22U33tjAYlt0hRn0dJDcGDck+apsFEJbKLvJWqGG0QEXJx69atS5cu3blzZ3JyUmw5UTSUENLe3p7JZKR2tpWBY7qgmq3d+1x9cYYdCg9qpVb7dCQbQsRqwLkZTMdND1i1bdt13c7OTsZYLpfb1roN+ZiUKiiATCnN5/PhnmySLUg+n0emLVmX6anKijfnPJWaSyabCwW5ZMZJzUIpdRwHdSURNDs/P9/c3CySnzbvq1F3jBLquu5TTz0F4SWMaCJzc3x8vLu7W+4AtjKYP3fv3t2+ffs65kyVtSHO+dmzI6jrQmRkY42DpQi5kLt27bpz5w5uq+M4G9TP+LKgrQShBEmakeQBQojneQsLC5cuXdq2bduGzkOyyVBKLcu6cOHC+ir9bonNnZh5cuWsdYKkSDY4OIjqj5wTTdNQbGPzCBeQQTonvJzYtuRyufHx8R07diSTSRmosZXBLg1lV2pSnKFWjCiBX+3TkawfHjQk9jyvo6PjypUrqqpy7juOU0mrKOfcMAzE7sIPYBjG+fPnT5w4QQhBBXrJ1gT21paWFt/3xaZt9VRZnCmK8tBDDzU2Noo09eqej2QjoPQj1iRVVU+cOPH73/9+fn5e07QKO3lwJq7j+r6fy+Vee+01UYHW82Vs49aFc97Y2DQwMICs29rzbCYSCYhh6dasaWBxR7gQJmJnZ+fBgwfPnTuXzWYrWY1HNHJnKpuYmHjllVceeuihgwcPWpbledJ7vqWhlCoKbU40ExFJuxaqsLkr3hVXJUVZshrEMkMXNxALWFT6HnqZULE1TRscHPz3v//9j3/84+GHH25ra4MOLupERb4oUjV70as+F4G44vNhoPA8L5/PWwHooQfzBZrsnD59uquri3Mei8Vc1xUtC8SHlBRwStDBWu4YKglsZ6Jrz1rfXmVble/7Fy9eHBoakuJsC4KAWEKIMGTQcHQ/XfQPCfyPqMODx4ZhfO5zn7t48eIf//jHgYGBgYEB0YskvIYJkSHqNULLE0lLjuO4ruvYjmVbrutmMplMJoOqjQsLC5RSZJuj1jZjrKGhoaenZ//+/YlEQvg6CSGqquK/oj1a8eKKgCGckpRlFQYlPy9fvjw8PKyqKvfXptRXP+7s+vXrw8PDMoZ2CwInoIjyJ4QsSjrhpQNrxJOig8ng4GBfX9/Vq1fHxsbOnj37n//8B62hxJGQXCJMDF/KGNNCQMQwxnRdb2pqQu9YRGYwxhBrBhd5LpdbWFhIJBJ79uwRGiUllJNCTUfP9RCrCaEZOX+ob+JaZNHaSoL66VeuXDlw4MA6kpykJ1GyJOjRCVnmed6dO3f0glswXEz43n4TsmN2dtb3/dnZ2UBkqDi+q6vLtu2BgYHDhw8fPHgQMd801FQ8XIURKeUi8EK0YiQhDQ5JviJiVqDrejqdvnz5ciqVEk5VGvR7T6fTc+k5dBQVYSXhq6aU+p4vmrbIfUPlWfcSUmVxRint7e3lvHRPY0l1gSCDvHj55Zf/+c9/RjZfxbWwkUtECEkmk77vx+PxTCZDCc1b+aamJsdxcrnct771raNHj4bjJIsngIjIBa7rCuUrwj39i1IS9AY9d+7cd7/7XdM0sQO1LEscjHOAluc4DhQ0Hqr27rquaZpTU1P40nIMpGS1IOcXajWlVKFr27FVX5wdOHBA7Er4qnsISCqAkGWMsbm5ubm5ucgBkZuFmyhsZ+HDoN/F43HbtmdnZx3HuVcYlhOiRBfkktJtqUVbmOEQJuI4Tjqd/vTTT5dwXxBN02zbhtV5KWM/rHvSdlZhFEUxTROBGusY/OqLM5gz0EVRyrIthVBblppYJeVLsX8dpjFN07LZLKapqqq+zxmjhBBOOCUrhICvODGQZ47HnudlMhlof8h/ipwStpDLG/ulIKsKCKOlhEKPRhPV1VP9nM1cLqdrOg2aY1f3fCSbB8xYUMpc12VMCe/ySmdjrhEadMwW2LYts5pqCIUqnPP0fBpL0VrfXn3P5gcffPDwww/H43G6uAuZpP7wfd+2bVjxwxoT52SDejlWddj14Q0QT2qaJiVareBzP5PJXLp0qbW1dR17teqLs1wuF4vFYFvxfa6q0idQn4icgVu3br322muJRMI0zcD7yTaomAtHged509PTV65cEQFltm1LI0atAHvlzMwMbt9aXZzVt50hSRgmFaFeRnwCWL3DGxM5QZeEFyJbhb+PhwKvCgPoc0LvGaSg1xS7Kct8Xpx7nmcYRnd3t6Io7e3tLS0tCJUojv8OOyvDj0mJucFFEAbnPJvNZrPZvr4+tCxAtlN5LwRgxMS3F5+e8G6FcyHuH8LTLzI4kZfCT8I5o+v6+gJRqyDOwmYOSumRI0cwm7F0h++66NuICvQkMOJiKZaRtyCygkWmi+d5EGSMMcKJCOCipBCupaoaJcT1XSEUSn7sxsEtw/11XXd2dpZS6rqepi3q5rsOKKW2bcdiMcdxkOSE0F8eis4tIxglEcaBkw+H0SFeT5wbHmAa3w81Y8IDjlAYhEAriqIyFTkhJQ8mhOCXfuDAAbxrrT/w6mtnLS0tpOCZ0lzXwc9JeDlF5BHnHNP0Plzo1gTmjdBWCCFUoQpVUPxL13Sf+yIhkVJKCPd8nwYdG0TQjHhQLjjnhmG4rjs5Oek6LuK/Pc/zfc/3/I30RoE0QZ6m53mWZY2Pj4s1HxkF5boKfBrC1rAwk2CseJB2SkIpqI7j8CA5/z6Zt+HVVKxhwPM9cV+E8RT7MxEAGIvFOjs76bomRPXXCsuyXNeNxWK2bWFlY6zQelaUrMKgIKpTCOyCT/f+mCKrBPqIlbcc10EOELx7uVwOOrzjOpqqEULwM0P8BKxOSHsMD2l5xxZCxzTNvt19Tz71ZNn1FPxCVFU9dOjQK6+8ous6LBiWZZXxQuBtMAwDZUJQRjyfz4sMisIcVpjt2FiDMXvj8fh9EiuOSYWRZ4xls9lEIoHbbdu2oii5XI5Sih0lISSTyei6jjwQwzAI9F8Or87avrr64iybzU5MTHDOE4nErl27kFkyOTmZSqUIITt27GhtbVVVNZPJXL9+3XXdeDy+c+dO0zSlLCvJ6Oio4zi6rnd0dMDWnkqlpqamfN83TbO/v58Q4jjOxMREOp1WFKWjo6Ojo4NS+vzzzx87diy8VyUkaq9cxnwptMLI8+IZxhhmc2tr65kzZ8IGu/CtXIf2LVpMYM1TVbWtre3nP/85/Ev4aRWf0orGipIXSyl1XTeZTE5NTWGH29/fD7k5NjY2Pz/PGOvs7Gxra9M0LZVKTU5OouXKnj17YrHYmq6rRsE8yWazY2NjiM7p7+9vaGiAl2Z6etr3/ZaWFrRhdV33xo0bWG57enpisRjyeUlBy6spVwAhpK2tra2tzXVcVVMxELqu9/b27t69m4RmXiKRGBoawqJnGAbWwGqf+5aDUjowMCC0AOhf7e3t7e3tGFtIHIwwoiVETMMXvvAFXdcDr8tGIyeWQjS4iRiJNwg0I7ETJIEaRQhZRzTmMuDTeNAcloQMI3v27CGBWMfVJZNJZMt7nqcy9T6xk0AbbWxs3Lt3L8IMKaGWbRmG0dXVtX379vAOXVXV/fv3C9+UWE1t215H263qSwTcYE3Xwv8VP0ixepOg/hEk9/0wLVZJZCjCUp4uDuULDyZ+4WKcVVXFdgkfFvwt/yCjEkZ5PxNiArNfVVWcuLjw8jajw6fRUjGSJaeuqM1LCFmfPajmoEHQDH6qAI9FKq44En8po+G3k/XeNekZlEgkdYIUZxKJpE6Q4kwikdQJUpxJ6o37wkAlKUX1XQGSrUONOlhq9LQlZUdqZxKJpE6Q4kwikdQJUpxJJJI6QYoziURSJ1TfFVD2+i0SiaQ+WKtwkNqZRCKpE6Q4k0gkdYIUZxKJpE6otO1MbIYjBeAJCUobRSIixd65+PmyH1nidCt7ZORUw3aDjVw+WeJjVzyyXE+WPAF5o4uPLD5Y3mg8XJ0RrRLiDFWeLcuan59H7ePZ2VlCCiVcZEi3RCIpCec8nU5nMpm5uTmUtEPRWtTLLK40VSHtLB6PJ5PJ8fFx1NH+3//+JxrhVOYEJBJJLeL7fldX1yeffKIoCgqUhzs/Rdh0gRJUcNcymXkUVkclz/ukbrpEItkIkBWiq5P4iyrqkYMroR+hxLOqquHmXaIksUQikSwF9zlV7tVhRz/ApZShCm02hZkMXY4JIbZtq6oqG2VKJJKloJRShdq2rakaoYT7HL3c0JChuHmNtF5JJJI6QSpHEomkTpDiTCKR1AlSnEkkkjrh/yiuYDrykGOwAAAAAElFTkSuQmCC;" vertex="1" parent="1">
          <mxGeometry x="10" y="755" width="465.91" height="375" as="geometry" />
        </mxCell>
        <mxCell id="2A0srAFayTk-dAzB0zZN-1" value="" style="shape=image;verticalLabelPosition=bottom;labelBackgroundColor=default;verticalAlign=top;aspect=fixed;imageAspect=0;image=data:image/png,iVBORw0KGgoAAAANSUhEUgAAAhEAAAK0CAIAAAAyLfgYAAAACXBIWXMAAA7EAAAOxAGVKw4bAAAgAElEQVR4nOzdd5wV1dk48HPO1Nu2F8pSF1nqKggREWNBoigJscT2sUbBRF/NT2OisURfNXlfU0xMTEyMEX0TC7FgYiygoiIGEARFqnRk2d5un3bO749nd7juLsu9yzZ2nu8ffC53Z+bOzN09z5z2HCqEIAghhFAaWF+fAEIIoWMGxgyEEELpwpiBEEIoXRgzEEIIpQtjBkIIoXRhzEAIIZQujBkIIYTShTEDIdQNHMdxHIcQIoTgnPf16aB0CSEc24HX6XxxFOf0IYSOHoQK27ZVVSWEUEr7+oxQBmzbFkIoinLELTFmIIS6QSKR0DSNEMIYw1Ll2EIpFUIQQRzuWJbl8/k62xi/XYTQ0XMchzGW+gIdEyihgggCwZ4LQUTnX5/cWyeGEBrIOOeO4xw4cIAx1vLcio4RiqLE4/GcnJy8vDwhjhAz8KtFCHUDzvnnn39+zTXX1NbWcs4ppRA5hBDYt9EPpZb8sixbljVnzpxHH300Nze38x2xnoEQ6gZCCF3Xa2pqqqurYQAVdGxQSmVZNk2zr08QtZAkiTHGOeecu5GDUlpdXZ1OdMeYgRDqETBwUwhhmiZWNfoPd1Q0aR3ellFrE8YMhFAP6kKphHqa+6V04XvBmIEQ6n7Q+sEYkyQptQ0E9QcwTsGyLEKIJElutSMdGDMQQt0PgsT48eNnzZolSRK86faKu10dsJnbT57abU4phb50933Y0o1GhBB3A1fqE3SbH7nvpH6ce6rtf9pmxw4rTO4oI9jmcCecelEdXrK7r7tB6vvwX/ed1A06vGrYy50o0+GlRSKRV155JRaLZRQwCMYMhFBPgJJ05syZjz76KE7X6G8opVVVVW+//XYymcy0FogxAyHU/RzHcZ+j3XpGV1FC0inU0tzscFse5e5Hcz6949D5uF9KF5oNMWYghLofFEnQbk66If1Umrun/ykdbnmUux/NAXvHofOBsCHLsuM4GeWUxDojQqj7OY7jNq9j21S/4vZtwKDbTJMQYz0DIdT9oIbRWjxhmtt+5CjHsGH8Rwh1v68WTP2qWd/r3K+ma/MzMGYghBBKF8YMhBBC6cKYgRBCKF0YMxBCCKULYwZCCKF0YcxACCGULowZCCGE0oUxAyGEULowZiCEEEoXxgyEEELpwpiBEEIoXRgzEEIIpQtjBkIIoXRhzEAIIZQujBkIIYTShTEDIYRQujBmIIQQShfGDIQQQunCmIEQQihdGDMQQgilC2MGQgihdGHMQAghlC6MGQghhNKFMQMhhFC6MGYghBBKF8YMhBBC6cKYgRBCKF0YMxBCCKULYwZCCKF0YcxACCGULowZCCGE0oUxAyGEULowZiCEEEoXxgyEEELpwpiBEEIoXRgzEEIIpQtjBkIIoXRhzEAIIZQujBkIIYTShTEDIYRQujBmIIQQShfGDIQQQunCmIEQQihdGDMQQgilC2MGQgihdGHMQAghlC6MGQghhNKFMQMhhFC6MGYghBBKF8YMhBBC6cKYgRBCKF0YMxBCCKULYwZCCKF0YcxACCGULowZCCFPE0K4Lzp83f6/XoYxAyHkXaKVbdsQFTjnyWSSc845tyyr/QYehzEDIeRdjuNAMJAkybZteK3rOmOMMSZJEqXUNC1KqSzLlNK+Pt++hzEDIeRdkiSpqgpVCkVRZFkmhEQjUahY2LbtOI6qKoQQx3H6+mT7BYwZCCHv4pzbtk0IkSTJMAz4r2mZUP9oaGgQQkC0kCSpr0+2X8CYgRDyLs45IWTDhg3/+te/JElyHGft2rVXXXXVvn37lixZctNNN3355ZeMMdgM+zMIIXJfnwBCCPUZWZYNw/jtb3+7fv36k08+uaioKBaLbdmypampqba29sMPP3Qch1LKHW7apizLQghKqWVZsixD1UTTtGQyqeu6ECISjgSCASEEd7iqqW0+a2B0h2A9AyHkXY7jbN269cMPP9y7d++qVasMw3D7uimlWVlZ8Xh81apVNbU1VVVVW7dura+v37RpE2Osvr7+yy+/TCaT69atC4fDW7du3blzpyBi+/btBw8elGTJMIy+vrgegfUMhJB3cc4XL14sSdLQoUOXLVt23nnnmabJOXcchzEWDocty7r77rsTiYSiKHl5eXPmzHnkkUc+eP+D5194ftWqVT/5yU+uvvrqvLw8IUQ0Gp00adL69esLCgqeeuqp0tLSvr64HoH1DISQRwkhqqurX3vttZkzZ15zzTVvvfVWRUUFjK9llHHOdV3Xdf0b3/jGjh07rrnmmnvvvZdzHg6Hm8PNnPPKysqSkpKJEyYahvG73/1OkqSGhoZf//rXW7duPXjwIHSBDDwYMxBCHiWE+PTTT2tqaiorKzds2HDw4MGlS5dKksQ5lxUZxlA5jqNp2ujRo+fNmzd16lTGmGmafr+/qanJ7/czxhRVKS4uLikpKSoqmjx58pAhQzRNq62tHajjrDBmIIQ8BMY+QSoQy7L+8Y9/aJrm8/ni8XhRUdH//d//xWIxy7I+++wzv99vGEZVVRVjzLIsTdM458XFxZTSFStWrF27tr6+PhwOE0IkSdI0ze0STyQS+fn5MIR34MGYgRDyEEop55xSKgRvbGxcvXr1VVdd9cILL7z88st33XXXwYMHdV2fPHnyrbfeOmjQIEVR/v73v2uaVlBQoCqqZVmlpaUTJ0586KGHsrKywuHwmjVr8vPzVVU1DEOSpLy8PF3XBw8eHA6HYXrgwDMwrwohhDoEg2Xh30Ag8NJLL5WUlGiaJkvypZdeOmvWrEGDBj399NMHDx6cMGHCe++9RynNy8ubPXu2JEuyLE+aNGnRokXRaKy0dPS+ffuKi4tPP/10y7Ly8/MfffRRSmlxcfELL7wwcuRI+Ii+vtzuhzEDIeQhggsmMc45YywUCpWVlQkhGGOU0VAoNHnyZCEE5zw3N1eSpDGlY5JG0ufz5efnM8YIIUKIsceNFUQIIcrGlkmyZNs2Y8wwjOHDhxNCJEkaM2aMqqqw/cAzMK8KIYQ6RFnL3AtCCOdcVVWYnQfVAkhnSwRRFZUxZjs2TNaDfWF+H2XUsizGmKqp0EMuSVIwGITGKEhxCLP/+vAyew7WMxBCHuLO1yOEQFUA/m3fjkQJ9fl8qe+4XRSapsEuuq67R0jdIPXNAWZgXhVCCKGegDEDIYRQujBmIIQQShfGDIRQtxmQo0tRKuwDR8grYF1rd8hQbU1tNBbVdT2RSAQCgXg8fjQlviRJe/fuVVVV0zT3OKqqwtDVgZpIw4MwZiDkLRA24vH4f1b9Z9iw4YGAPx6PR6NRd6Zbh7sQQjrfABZDvemmm2A6GyymDVMWsPIxkGDMQMgrHMdxJyIwxmRZPv74cphJYFmWqrZdIyhTqqqWlJRMnDjRHc/qOA7kFYcxqWgAwJiBkFdQSqE0t20bMn63NBwxiTF2lLUBCEiQyomkVEpUVYX1tNHAgDEDIa+A9a4ZY9BwRAiJxWK5ubnQ33CUMQN2h+NzLoQgjuPIskwIHaiz27wJv0uEvEIIAbGBUsqYpOt6dXU1hwL+qPNcQOIN6NhgjEoSg5xLlA7YGdHehN8lQl5EKQmFQnV1dVDt6OvTQccM/F1ByKOKiorq6uqgswEy9yF0RBgzEPKogoICQkgikYChsQM1DyvqXhgzEPIov98fCoWi0Sh3OBGEc4wZ6MgwZiDkFe7IKJifwRgbM2bM7t27CSUOdxg2T6E0YMxAyKMYY7m5uQcOHEgmkzDqqa/PCB0DMGYg5F3BYHDIkCGbNm0aqItXo26HMQMh7xJCHH/88RUVFYlEAkfconTgbwlCHgXDpYLB4PDhwzdu3IhtUygdGDMQ8ijIRMs5P+6447744ov6+nr4L+c8Ho/39dmhfgpjBkIeRSlVFIUQEgqFpk2b9umnn8L8PsuyFEXBagfqEMYMhDxKCOLO5hs3bpzjOGvXrrVt23EcRVb6+uxQP4UxAyGPguyBjuPAQhennnrql19+uXfvXk3TbMfBYVSoQxgzEPIoSBYC617Isiwxaf78+StWrGhubiZHn+cWDVAYMxDyKBhcq+s655wxpvt0Sum55567dOnSyspKy7KgP5wQ0pIvPQX2dngWxgyEvM5ds0/TtJycnDlz5ixbtqy6uhq6xN2lwgUXuOIewpiBECKEEM55IpHQNC0QCMyfP/8///nP1q1bOed+v7+lVkFbVmwlBJdR8i784hFChBBCKZVl2bZtXdeDweC8efO2b9++dOnScDgMK7ZCZkM3bCBvwpiBECKEEEopdIYTQmRZlmX53HPPnThx4quvvrp9+/ampibLstyNMWx4FsYMhFALWZYZY7Zty7KsKIrf7x8xYsQFF1xQXV29atWqrVu3NjU1OY6T2gEuhIAe8pY+DyEIRpQBTe7rE0AI9QswIcOdHO7Kyso644wz6urqtm3btnLlyokTJ06dOtXv9xNCGGXQyUEpNQyDc67rOqZVH9gwZiCEOmNZliRJBQUFM2fOPPHEE/fu3btixYpkMpmTk1NYWFhQUJCbm6soiizLpmlqmmaaZpuogwYSjBkIoQ6488AhAHDOJUkKBAITJkwYP368ZVkNDQ2ffPLJiy++WFVVRQgZNGiQYRhnn332pEmT+vK8UQ/DmIEQ6gDEDHdCBnRRcM5ramr27t1bVVUVCATy8vIuvPBCXddVVVVVdceOHTk5ObAxph4ZqDBmIIS+ShBCSeo8DCGEaZqVlZVbtmyJRqNjxow588wz/X6/qqpu17fjOOFw2DAMx3Fg8BUakPCrRQgR0pp4ihAiiKCECiEsy4IBuBUVFcuWLRs+fPj06dNzc3M555qmuTUJt/McggckysV6xkCFMQMhREhr0Q85QgQVnHNFURoaGlatWmVZ1gUXXJCdnQ2VD1VV3QCDvAZjBkKIkNZmKMhXCJWGzz77bMOGDRdffDGlVNd1IQTECQwYXoYxAyHUoqVNSZC6+rrt27cbhjF//ny/3+9O1jMMQ9O0vj5N1JcwZiCEDo10opRGo9FPP/3Utu3TTz8dMqVLksQ5h3xT7n8xTaE3YcxAyNMgGEBzkxAikUi88cYb5eXlY8eOhQYoiA3wr9uzjQHDszBmIORRqVmhZFl2HKehoXHlyg/LyspGjRqFUQF1CH8tEPIsalkWNDcJQRzH+eKL7cXFxZMmTYJVmPr69FB/hDEDIY9yg4LjOELwzz//vKKi4mtf+xrktcXctKhDGDMQ8ih3yCyltKmp6cCBA9/85jchzyCkqu3rE0T9EcYMhDxKkiRYDMM0zTfffLO8vNzn8/n9fowWqBMYMxDyKHd9pH379hUVFQ0fPryvzwgdAzBmIORRtm3Lkuw4zrZt20488UQcKIXSgb8lCHmUoiiWbW3dujU7Ozs15yBCncCYgZBHOY7jOM66deumTZsG6aT6+ozQMQDn9CHkFW2iAmOsubl58ODBoVAIKxkoTVjPQMijbNs+cODAuHHjSEpSEIQ6hzEDIY8SQuzcuTM/P58Qwh2OYQOlA2MGQh7V1NRECPH7/YQQLnhfnw46NmDMQMij9u7dW1JSAkuxwqDbvj4jdAzAPnCEvAXaoDjnkUi0oCBfkiTDMJgqQfA4miPDQn5wfMdxYL0/krI4B0pTL4xh6/I3gjEDIa+AFVvhtRDCcezCwkJCiKIolJKjL6YkSeK85SiO49i2oygyThVMU2qc6J0Q27XIhDEDIS9yHCcej4dCoWQyqaqqbdtHmZdQCGHbtmWZggvSEoeouygsSpP7FfT0fevy140xAyGvSC2GLMtilMFSS7BUnxCC8673hEMDlBDC4Q4hxLEcWZaheQobptKRepd6NGC43xR8NZl+FsYMhLwCYgMhhFLKOU8ayf3790OxLsuybdtHU1RRSisrqwwjmZeXxzmHGkZ+Xn5uXi4sId591zFgQdh2HKdHe4CEEIwx27bhcSHT3TFmIOQVbqe04ziyLI8cOfKLL75IbQw5mpghhKipqfnpT3+aTCZh7T9CyJVXXvmb3/wm0+KvzWkM1GoKDFSDZdgdxwmHw8Fg8Nlnn3366acVRSGt9yH18t1qgXuH23A3SH2Reij4lmVZTiQS4XCYfLWXKx0YMxDyHMaYoihTpkzpxtKZUvr5559rmlZdXQ0fQQgxDMNd2QmlcmsSQgjTNGVZ1nX9qaeeuv/++xsbG1PjgRCCEkpZtwVONwe+LMuSJGVa1cCYgZDnQGNU+6fLo4kZ0ABlWRYhRJIk6FR3G82P6nQHKM45Y8xxHEVRTNN85plnfvSjHyWTSWg7+krYIELY3dbDQSmF5bYsy+pCzRJjBkJe0abspoQK0m0lkW3bbtsXdJykwtFTbVBKoQYmhIjH488///zdd99tmibcK0VRLMtKbTbsxroaNE9pmmaaZhd2x5iBkLe4xTellJJuqwEoiuKOkkqNEF3oJvFCvQQCA3R3P//887fccgs8+EuSVFxc/IMf/GDMmDEkpbPhcLexww6MzrdkjDHGwuHwD3/4w6ampky/IIwZCHlLD5XI0DYFNQx4DWUTDASCx+Q0yzUYdgWtZ/DCbeBq3y18jIJ6hmVZzzzzzF133WWaJnQyBQKBn/3sZ5dccommaZ0fwbZtWZbh9sIcfpiE746OcxwHmqGgy0RVVfgpbHzw4EG4sZnmjMGYgRDqflDK79ixY8mSJV2YCg5DiTjnp5xyyogRI3riDPuWECIcDi9ZsuSee+6JxWJQfOfl5f385z+/8MILdV3v/KY5jqOpGhecUqppmjua2X1BKXWTwTiOA2tqQQCGVkRN06A35XBDsA4HYwZCqPtBiT9q1KhvfetbjLGMms4lSZJlORKJrFixIh6P27YNY08HEs752rVrb731Vhg4oKpqIBC4//77L7/8cphRr6pqJ7sLIQgllLRUI0hr45VpmrZt67oOMRsCDxzKrZzBRE7btiFUYMxACPU9KKGgvQWehdNvUILWkuzs7EAgAA1cPXiifYQxNm3atCuuuOKZZ56RZdnn8z388MNXXnkl9E4fsYPBHZnGOeecy7Lc0NDQ2NhoWRa0BFJKdV3Pz8/Xdd1xHFVV27RBQeMhIcS27YzOHGMGQqj7QfM659yxHVVTM+podVvnCSGpw4cGFEFCodD999/POX/77bfvuuuuq6++GioN0J1zxIFSsNn+/fv37NlTVVWlqmooFMrKyvL5fIqiRKPRxsbGZDIZi8Vi0VgkGikuLobpllOnTh07dixUSqCSgX3gCKE+5na3ysqhHuz0uaN1odnEnQE3YIbtUkYVRcnLy3vggQduvvnmESNGQJCAeNm+auX2Xbud55zz1157bdiwYRMnTpwxY4aqqtAp4t4rzrlt24lEYseOHS+88MJFF120dOnSqVOn2rb9xhtvTJo0CYI65ptCCPU9KPi6XEVwd2SMCUHaTiwZEGBQU2FhYUFBQWqCqQ5vWupcDcaY4OKNN94YP378hAkTDlcjYYzB9PJx48bl5eXl5eVlZWVNnjyZMVZSUvLqq6/Ch0JPePqnPQAbChFC6Jjg9lSnM2UPqlzw79p1a8eMGVNWVkbS6JBIJpO6rru1EMdxiouLp0+fblmWpmmZjrXFmIEQQn3Azf6bzsbu4ChKaSQS2bZt2+jRpZZlwdjZzveFwBCLxTRNq62tTSQSpmmOHDkyFAp12A7WOYwZCCHUB9wemjQ3dnt36urqhg8frutaIBBoampSFKXzwEMphQG4hmE88cQTzz77rKqqMEXDNM1Ms5JgfwZCCPWBLnf2JBIJRVEMw5AkCSbrHWEH0TKmoKGhYefOnZqmxeNxyL5OKYW0kunDegZCCB0bIMz4fL5IJAK1BJgE3nn4sR0bxlxlZWWdfPLJQ4YMCQaDnHOIN5m2TWE9AyGE+rvURFuFhYX1dfWWaUmyRFpXbeokbCiK4o6pvfzyy/1+fzKR9Pv90B2SaXZbrGcghFB/l9r5EQwGx5aN3bxlM6RxhAzqnezrJl2nlIZCIcaY7tMrKiqSyaRjO5k2kWHMQAih/q5lWkZrU9K0adMqKio2b94MjVRH3J1RFolEVFWFNIW1tbUrVqwQQlCW8RxJbJtCCKGugI6ELnQJdJlb21AU5cwzz1y1alVNTU1hYSF0UbhpDWGEFVRBGhoaNm7cuGv3rsbGRkLIk08+OWzYMNu2Z86cqet6NBrFHIUIoX6n84XHu3FZ8t7kPvhDYo+e/iyScmccx/H5fHPmzKmrq9u0adNnn30GiSBDoVB2djaMiYrFYpZlRSKRRCIxfvz4VatW5eTkjB07dvDgwWPHjm1ubjYMo/OOkA5hzEAIoa4QQkAa89QJd+6PSE8GP1mW4fiFhYWnnXYa57y5uTmRSLhzOCilsiz7/f5gMAhJcKFLAxLLQ07cYDAI6/Rl9tE9ckEIITTQQbkM8yRgMjYkISc9HzPclIVuDuCCggL4EaQvlGUZggQkynWXWoIIB9kJYWZGOjPJU2EfOEIIdREMV00mk8uXL29ubrZt211zu0db2FJbwyCRFLx2HEeWZVVRSWu3OayTYRiGuwQTRAh3L1zbFSHU9yDXheM4yWTSzYWe+gwOWxFCCBGSJJmmKcsKIcKxHSYx6F42DIMxRojoP7ls3QYoeISH5T0WLVr00EMP3XzzzTfeeGN2dnabvofWPYkgRAgOWWkpO9SIlLolBAN3BfXUFOip5wDrMrltYu420GZFCGGt9QFYFVzXddjSXardtm2oZ2DbFEKo70HxtG3btn/+85/hcNhd35sxBivHtdkeCko3A6tpmj6fb9euXfn5+b3Qw5w+uC4AnQRPP/30vffeSwj55S9/aZrm//t//y83N5d8tXuDtIQMAg1ElFLitCxL5eaahdeQG4oxZlkWLHHoTvNObe+C1+4u5PDtYKnppCD7ujtKKtNMUwBjBkKo+0mSJEnS6NGjzznnHEppIpGA8UWwXpD7OOyCNcMDgQB0DwSDQcMwPvjgA/exvT8wTVNRFMjYASHwb3/72+23324YhmVZkiQ988wzF110UVZWFpTObXaHwACXA8/7UAlwc6GnroDkdly7CyjBjvC5cAN7utekQxgzEEI9wnGcQCAQDAarqqoWLVrU3Nwcj8cDgQClNJlMpm4JJSxjLJlM+ny+oUOHfuc73xk6dGh+fn6/WpVPURQ4w2g0qijKU089dfvtt+u6bppmfn4+IeSBBx6YMGGCZVm67nPbl4C7QDrUpUhrFzohxLIsCJmaqkFA5ZxDTQv6HmBRdNuyHcehjLqdJam1kF6DMQMh1P3gkRkacOrr6w3DmDdvXm5ubjweTyaTbSKBxCSHO4FAgBBi2/abb74Zj8ehQMw062qPsm1bVVU4pSeeeOKhhx6SJKm5uRlmYv/yl7+88MILCSG6rpum4c6wA47jVFRUMCYZRrKwsFBVVUVRZFmGJLV79+7Nysqqidfoup6XlydJkuAtnSU1NTWc80GDBlFKm8PNzc3NeXl5fr9f13W3nao3wwbGDIRQ92vTCi9J0uTJk5PJ5OrVqw3DgJZ6wQWhBPq6NU2rrq5WFGXatGmktYc5/dW/U8vNNv3G0OHsNuOkdmJnWtQqsuJwRwjx97///Uc/+pFt25xzVVWzs7MfeuihSy+9FMpxWP+uzb4NDQ233377pk2bNE0rLS393ve+N3PmTKgxfPnllwsXLpw3b977779fWlr60EMPffHFF7///e/vvfdeSulNN91UVFT0yCOPvP76608++eT27dvLy8t/+tOfTp48GeorvQxjBkKo+7nlsqqqjDIYGfXxxx+feOKJw4YNcxxOKYGmfO5wt0xfv3796tWr3d0dx3FnzB2OO3YInsqhP1lVVagTQIcB5dS2bWgIsm2HMep2CWR4VcQ0zVdfffWuu+6CqKZpmqZpDz/88OWXX+6OXlUUJfXc3Ne7d++WJOncc899//33FyxYsPiFxSdOO1FRlBUrVmzZsuU3v/nN8uXL33333RtvvPHDDz9cvHjxFVdcYRjGhx9+ePvtt69bt+6OO+4YOXLkDTfcsHz58iuvvPLVV18dN24cDE5zuz16QX/pXEIIDVi0pUc3Fo0NGTJElmVNU6G0JYQwicEENFVVTzzxxJ07dxqGkcGxWxewg+l1biSwbRsSvkIrGfx03759yWQCnu67UMhCN8Ozzz4bDodh6Fdubu4jjzxyySWXQM2p890lSZo4ceJPfvKThx9+2DCMf7/+b8dxEonEm2++efbZZ48bN+6KK66orq5es2bNu+++G4lEVqxYAUlBvv71r7/88suKovzxj3+87bbb/vCHP8ycOTMajZqmCX3pvdk2hTEDIdTDBIGRo6qmui1OjuMkEklZlmHGGQQVmEnQhTGgkiQtW7bsjjvuOHDgAGPs17/+9fe///2DBw/+/Oc/37Vr129+85tVq1Zt2LBh3rx5y5cvh8GscA4ZfQoMcEomkzDFWlXV22677bLLLlNV9YjNaNAEB33aY8aMmTBhwp49exhjGzdu3L59+2233UYIOfXUU/Py8tasWfPZZ58NGzbszTff/Pzzz3VdHzp06O7du0eOHDlixAhZlseMGfP444+PHz++pW88k1ncRw9jBkKox0GOI3gohj5k07QURXYcR4iWRYHczoZMC0Eo+vfv379s2bJoNPree+/99re/HTx4MOe8oqJiz5494XA4Ho8ritLY2GgkDSFE19LzwYBaCDYQIUaOHAnvwNinTvaFdfEIIZIkGYZRV1cHVZ/FixcPHjx4zJgxkiRlZWWNGjXqX//6VzgcvvHGG7dt2/bee++dccYZUDkzDCOZTHLOo9HoypUrGxoa3GG4GV3FUcKYgRDqWYIIWAzOsizLsrjD9+/b/7vfPfrOO+9wziklsHYQVC8g+0UGBxfCbZ4yDMNxnJUrVxYWFt5yyy2FhYX33ntvMpmcO3fu9OnTISYJIrZu3bpx48YuPJ7DKtyhUAiiFAzrgrhXaqIAACAASURBVIY1WZY7r7VALDRNMxaLLV26dP/+/dOnT6+url62bNncuXMhnPj9/hkzZlRWVo4aNerb3/52MBhsaGi44IILKKWnnnrq5s2b33jjDcMwXnrppeuvv37btm1w1W0GaHV4i9q/484Fwby2CKG+504goJRSQg8cOPDwww/v2bOnoaFB1/X333+/qanpnXfeGTZsWFlZGQQMx3ZgJiBpzXgBY5A6L9QopdzhhBGY9vHggw9+/PHHc+bM0TTts882LlhwPUwvv/nmm08//XSYBbJ8+fIXXnhh2bJlWVlZGV0U51xRFBgHDAWu4ziO4yiK0mY2RupNANCWtWbNmjlz5lRVVc2aNeub3/zmW2+9parq2WefDSW4EOLkk0/WNG327NlDhw494YQTdu7cefLJJzPKzj///KVLl95xxx2PPfaHnTt3nHPOOeXl5XCLBBdU+sotchzHzdDOOecO54LD5BJVVTnnTU1N69evVxQFWrcyGtCMMQMh1MMoURQlLy+vrq4uNzdX0zRd14UQPp+va33RbSSNZEAORKNR27Z37NgRDoehMee995Y3NDSsXLnyueee+/e//3388cdblrVkyZK1a9d+4xvf0HXdMIxeG64aCASuueaayspKIcS4cePmzZvn9/tzc3Pvu+++ESNGQEoPzvnUqVPvvffeuXPnSpL0X//1X9u2bcvPz7cde/jw4X/605/eeuutzz///Prrr7vgggtycnKgTuZwh0lfaTGC5jI35S0hxDIs6Cv65JNPtmzZ0tzcXF9fX1tbGwgEwuFwRheCMQMh1OMKCwuvu+661atXz5s3T9f1mTNn7tixIy8vb/To0Uc/0xsSWIVCoby8vD//+c9/+tOfXnjhhcsvv7yxsXHMmDE5OTnZ2dk1NTVCCEVRduzYceDAgXPOOcftYOgdgUDgqquukiSJEiqIgE6R+fPnu6lEYDJ8dnb2LbfcAkOhTjvttFNOOcVxHEhVMnTo0IULF0KfCm1NUuu+aMNtsoNWQSEEd/j2XdtffPHFSy+99M033xw/fnxBQUFVVVUoFIpEIulfCMYMhFCP0zQNZktomiZJ0rBhw0pKSqCFBzrGu3xkdxAUNO4Hg8EFCxbA9LdJkyY9/fTTjzzyyOrVq0866aTs7GzO+Y033vjnP//5lVdemTNnDixA1I2X2TlIRgsNR9Dspqoq5LCChilZkg3LcHNJuTlo4epUVRVcaJqWmhAXjtbmg6ChDDaTJCkaje7Zs2fNmjWVlZUTJ07cunWrO/1QUZRoNJrRVWDMQAj1OIgKUES6T9ZQOLo93oIIKjJup4JhSIyxoqKi8ePH+/3+MWPGXHvttStWrLj00kt/8IMfLF68eOzYsXfccQeldNSoUSUlJbfeeuuLL764b9++ESNG9FrMcJ/63VmKkKhKUzUuOEQR0zLdBfgIIZCnJJFIwPhjSiknLWEAetRlWRa8g9Ff0I0B0XTz5s1/+9vf8vPzzznnnLFjxwohoHZVU1MDo78wFzpCqO9BezqsQQRT4Qgh4XAYijPo606dwg1JXg3bSCaTMA0CfnrEMh2a6Tnn55133ty5c2GXBx54AObxTZ069cc//rGmafC577zzDlR3zj//fDebbG+CMU5uKQ//lYiU+t9UiqKk3oHUKkVLdGEtE+bbZEQ3ksamzZuWLVuWnZ19xRVXlJWV+Xy+1sU5OExqhDuf6SVgzEAIdT9oZ3cXrQsGg4SQkpKSzZs2jy0b26YjQYiWwbgff/zxqFGjtm/fbppm6vISR/w4GP/jDh5VFVWQlgdwv88Pa1e4g7LcMUXdf9l9JJFI+P3+ZDLp9/th8sef//znaDR666235uTkQC5hiOKEECE4IV0PlhgzEEI9wp1pIYSIRqNCiBkzZnzyyScrVqxom9dWkgghtm2HQqFTTjll165dkIoDIscRC3d3dl5q8kFKDr0WnBDylbkIvZw/vKdBKxZjLBaLvfHGG5s3b547d+6ECROCwSCM4k0NvUd57RgzEELdz030BP+1LGvPnj3wpF9QUNC+2EokEj6fT1GU/fv3w3KwqQc5YjF3qEBMDRVCwLKwjFHS+n6bXQZG8IBp9k1NTU8//bQsy7feequqqrquJ5NJaJcjrTl9j369DYwZCKHu546GopQOGjRoxIgRn3zyibv+RJvJbqZphkIhd674uHHjBg0aBD91W5w64R4NpnlTSolorXy0Kx4HRpBog3O+e/fup5566qyzzjrjjDNIa5c79GG4ieVJevezcxgzEELdD/oMCCG2befk5FxzzTWkdVUMd6a32wkBc5VhLQ0o3WDdOpjmln4pf2hLSjoIF8dywIB1XuFfeAcG2sLtampqWrJkyQUXXDBlyhRozXM3cysZ7qEwZiCE+h0YNPXRRx/dfvvtsVgMhja5P4LRsSRlRaaWNBhCSJJkW7YkSQ53wuHwzTffDLWTvryYfgAWhdU0Ddrrli9fPnTo0LKyMriZjz322IwZM0488URYp6RHBxBjzEAIdT/btmHd7IqKCkKIZVmQ6lxRFJhuJssyNFJBpttYLBaLxWCAbCAQyM7OTiQSpmkWFBR0ZXGkAQfSVTmOU1VV9Z///Oexxx77/ve/X1paalnW8uXLi4uLTz/9dJjK19MzTvDLQAh1P+ilgACQTCYPHDgAq0f4/f7CwsJgMAiNJ5Diu76+HgKGpmmJRKK+vj4vL6+kpIS0rive11fT96Bm9s477/z7tX/POnXW3XffPX36dFhOfNWqVffccw9pnTLZflnZ7oUxAyHU/VireDy+a9cuIUQoFBJCxOPx6upqSZIgTaFlWZWVlfF4vKCgYNiwYYqi1NTUNDY2QjZDOM6x2wnRXYQQW7du/ec//1lWVvbT+35aWFgIFbJEIvHkk0+eccYZsiy7uXUNw4A1oHroZDBmIIS6H6wtAWm3Oed5eXnTp0+3LGv79u379+9vbGwsLi4mhBiGEY/HfT7fxIkTiwqLZEUePnz4li1bEolEXV1dQUGBO8O5H4KGNWhqgxY2d6gYccfyEurwlgRTsMCGu33nB4cxAslkkhDy5ptvrl69+oYbbhgxYoTbD2SaZkVFRTQaPf3002E6C/yop5vyMGYghHqELMuQ9UiW5cLCwry8PMdx4vF4TU1NNBqFWRqJRMIwjJEjR+bm5lJGYYGHwsLCiooKWHO7P8/WhjAAeWpJyjBW+Dc1kyBpTe8BKVLSiYLu6hdPPPGErut33nlndna2O51bCJFIJF555ZXTTz/96KdcZARjBkKop1BKoa87mUzW19dLktTY2GjbNvRnQJc4FILugnfuAKourL3ay1qGAjPq2A4MZyKENDY27t69u6KiwrZt6OQPhUIjR44cPHhwbm4u7AL3pPPOalhC6qWXXlIU5YorrvD7/XCjWiMQ/+CDD1Z+uHLGjBm9fK8wZiCEup+bpjsUCtXV1VVVVUE7+/79+xlj+fn5bm5XVVVrampKSkqysrJs204kElVVVZBACdYJ77fBA+oNbjL2aDS6du1amLoYCARycnL8fn88Hj9w4MD69esDgcApp5wy5YQpmq6RNHIv2pa9evXq5ubmCy+8UJEVN2kjaYnE0mmnnVZWVjZmzJhuWbcqfRgzEELdz527p+v6oEGD6urqKioqoNpRUFAA8y3giTs3N7epqWnr1q01NTWqqobD4ZqaGs55KBSCxpn+GTBIaxsUhMbKysq33nqrtra2tLR0+vTpRUVFfr8fah6RSGT37t1bt25dvnx5RUXF7DNn5+bldrgWbOqR93+5/4033li4cOGgQYMc24HZfNARAv0iwWCwrKys98eVdRYz3NqTEIRS0m+jPUKoz0mSFIlE3KV+CCHQkwEtUaFQCP4LA3ugFgINU4WFhTB6qrm52efzNTU1GYYxZsyY7OzsxsZGGF7Vn0seWZZ379797rvvxmKxc845Z9KkSbBsuBs1s7OzTzjhhPLy8rVr17733nv19fVXXnkltDVBHkYoZmGh2Wg0GggEHMdZsmTJwoULR48ezRijSkv/Nhww9d/e7+/pLGa4FUM3HqYu0NGfv0WEUC/jnLesBiFJMH0PpoKT1pFCkETPtm1N0zRNCwaDsHgDpXTw4MHZ2dmGYViWVVBQkJWVJbGWjg0YONQ/McZkWa6trV23bl0sFjvrrLPGjx/vdsm4m9FWJ5xwAqX0k08+efvtt+fNmwfFfetzuYA8g4FAIB6Pf/bZZ6qqDh8+3O0J7z9jAY7QNuX20cMvAWlNjiiEYJTBch8IIeSWFW5OWcdxoC0lmUxWVFRAxUJRlMbGRsZYNBrNycmBla4ppYFAAPKwqqqqabptW9AC08/nZ5imuXHjxnA4fMYZZ0yYMAG6uKHvoc1pw4zFyZMn79ixo76+ftOmTeXl5Y7jSJIsBHeH51qWZZrmSy+9tHDhQjeBeb+6A53GDHFocRJZluErdEc1kKPOdYUQGjA454ZhkNYigjEGTfYwuFbX9ezsbEhqm5WVxRirrq6mlObl5cGS1JWVldC0JctydnZ2cXExzDnosPztJxhjkUgkOztb1/WxY8fKsuyeavuyHgKqz+ebO3fuW2+99emnn44YMSIrK4uQloTthBBoyvv8888nT5583HHHpZ8Kvjd1FjMgqzD08DQ3N3/22WexWEyW5ZZRySn1rw6DKukoPB7NlofbuIe27PY3OzyBY+hGHevnj190mlt27awkSdq7d28ymUxtvqaUNjY2EkKKi4tDoRD0DMdisf379wshampq/H6/bdt79+6VJOm4444LBAIHDx5saGiwLGv06NGUUreFox8yTXPXrl2jR48eMniIpmnQXQ9lY/uU4zALD5a1CAaDhYWFe/fuLS8vJ1DSEkoISSaTpml+8MEH1157LTysQ4dHT6cDyciR26aguQ0a2iZPnuyOEeYOh7YpuDPu19rmv+6bR3yno09vf+T2v8pH2KbDDvw2n9765bbZRqT+jaT+AnRysbBXuzfbbkMpbf/mVz9OtP8LTWeb9tK5+Wl+ielsg1/0kbYZmF80pdTn87kNEoQQWZahNwI6wIcPHw6FaSAQGD169Bfbv4CFSMPhsM/nKykpOf744+HFhg0bwuEwTG5wj9Z/uF0LQojm5uacnJxIJOJ2OcD3BMUjLCTlxhK4IZDid/To0Zs3bxatid/hhSzLq1evJoQUFRUpsgJP7QBGJEHVza3A+Xw+90xIyvjmHu38OPJYW9o689Dn8+Xk5KS+2W/jP0Kolwkh/H6/W1q5jdiwnhKEExhSxRjLysoSROi6nkgk4E2oiMTj8ZycnJycnLq6umg0qigK6U/t323W5JBlORaLTZw4cfHixTAYDJqnGGOCiNra2gMHDpSVlWmaBtcOLW+JRCK1kYa03ivoyfjoo4+uuOIKxpi7BIg7YgrCEgy6tSxL0zSYGgL/kpQFz9N5UOuyDOZnwEW6IbGfdcwghPpSm6YY2jpkBoZOQdM8DKkihEDKbreTnBBimiY8g0ejUXhYhv4MLnhfXE1abNvOyspqamoaNWpUNBr1+/20NekTIWTLli2bN2/2+XzjysZBg00sFpMk6Z133ikoKIB576lHE0J8+eWXubm5RUVF7aduuA08sJeiKPF4XFEU0zShQgZJ5vtXXluRkkSFpNS7EUKoDRhAJUmSz+dLJpPRaDQWi2VnZTPKZEXes2dPMpmEhh1N06qrq/fu3asoiqqqdXV1+/btkyQpGAzGYrH+M8a0PSFELBbLzcktLy9/7rnnzj///OLiYhg3JITgnE+dOjUWi9m2DQmpdF3fuHFjNBqdPXu2G1Pdo5mmuWjRoquuukrXdZirkfpZcB9s25Yl2eEOjMLavHlzSUnJM888E4vFRo8effHFF5PD91F1l67MA4dKBulXlUaEUH/SMiKfsby8vMrKylAotH379vz8/GAwGA6Hw+Ew5Lv1+/26rhcWFlZXV0NSQlivtKioCEZe9fQKQkeDUqppWjwRLywsvOSSS5YuXQpLCkJ/Q21t7WWXXbZo0aIdO3ZEo1FVVROJRFZW1sUXXwxNdu7zN0xeeeWVVyorK/Py8oQQh1uX0HGc9evXV1VVFRUV7dmz54MPPhg8eHAgELj++uv/93//d8aMGcOHD0/EEz6/r+fCRmcxg7Zm3UrV2jZFhCdDBvwZkHY1cU+Brja3gbWvTwf1C+3bpqD08Om+QCCwf//+nJwcIURdXZ0QoqqqCrKGQGvVkCFDoG+DECLLck5ODqzFRCntaIpcL19ZCkogwTtpXSDEMAyYtp2VlXXhhRfCXHfHcSzLWrlypSRJU6dOnTlzJm2dn6BpGrS5maYJFQLLshhjBw8eDAQCp556KlTO2if0Fa1rjdx3332hUOj+++9PJpPxePxf//rX9773vdtuu23s2LH//Oc/FyxY4Pf7j3ARlKZ2gcCckvTvQWcxw83lC/Us2jru2P3+PNihQd0pjYf6dbzFbXOAXwlv3gSUJsaYoir5+fmwFERzczN0YGRlZfl8PshCCIUpLJXROqRQMMYkJpnMTCQSbgHX56BbQlEUOB8o2aE0h0hgWZa7WF4oFPr4448HDx7MGNM0zX3chHIV9nUcByoca9asSSQSo0ePzsnJMQzD7fhxuX3do0aNgrVv8/LyzjnnnFgs9tFHH7377rvz58+3LAvK6nSuxTCMrvV8dDo/ozVrCHyRbtHQ5r8e1D58egc8pLgjN/r6dFC/BhP6hBA+n09RlEAgAFUHaPGPx+OEECEElIaSJMEKRTCPD9qptm3bRvpNz6nP54uEI9Fo1K1qRCKRHTt2qKqqKioXPJFI6JoeT8T9fv+wYcOampqys7O3bt2qa7qqqZArBcRisT179uTl5UmSVF9f/+67706YMGHSpEk7duyAekabehuEJcMwCgsLP/744zPOOEMIMWfOnP3790Mr36ZNm+CzCgsLw+FwJw0hML6gqqoK7nCmhRjt5NBQJsK3C2vBjxs3Dt7xbPsMZOIUgnDeMiu+r8+ot0G1GgZvwDNjP3kGRH2Lc75x48bzzjvv4MGDhBBoomGMqapq2zY8Z0D/MMxUSG29gCCROr4GnsphiD8hpJ/M0jBNU9d1CHVw8oyxYDCYTCZlWXZXAYESHwY1QXIUWZZN03RHQ0FdCuoTpPU5DHp3RGuuXLeT3C1m4YbAjvAR7vBl6EeBjWFAWid/lVBlUVW1ubnZPVtK6Zw5cxYvXuxOqDicI8/pg8Mlk8mDBw/CbfL5fCIld0jqtE93rzbvdPJm+/aNTN9sf87pbNnJvp2/mUwm3cpmF3Zv/06HJ5z+lhm9CS86f7PDzdq8D+22sVhswoQJGDNQe27TCjxcQ2XC/WnqEzdpFxIgWx+8GYlEoA2nx884DaqqRiIRkvKnwTmPx+Nu3hTI2gstS7BeSHNzMwyEJYRAsEmVurSfoihwsRAG2hQvkIAD3ndTWkHRn0gkYBEnVVUhzyOU251cCMQVkpJ7OP2bcOSY4TZDRaPRrVu3BoPBoqIiN5a4/3a4e2qx1b6LrM0R0jlOm6IwdfvU9qKMjtP+xMjhS1LG2IYNG4LB4NixY1Mz13fjNXZ+XV27V4e7xi4cB34fvvzyy1gsZhhGVlbWyJEjD+3VdtoT8gohhKqqqQs8EELcdEkd/oG04W7jRhR30GoPn3u6TNNklMGUEbcMhDIaNoBndrfIdhOfQDUi9VDuxbp/9VBwO44Dt7FNOZ7aWkVTZr3ADEF38fD2OUs6ZNu2aO1sd7+sNG/1EcZNuXmlFEUZNWoU5zw/P3/o0KGe7c8QXNTW1ubk5JxwwgnEk21T8FseDAarq6sjkUibB0A3cw7yGrc9BKoFqRPC3W3S+Xtps43bRNOd53p0GD2UIwS0fw3/pi4YdbjqeJsLdONB++07vAmpiUxSk5cc8Y7R1rEGpDV5MNRdOmzwSJXB/AzGGCUtQ9+82xzBWloVPXsHKKVuS66X7wNqg1EWjUbh96HNDGfUn7nNXIQQtw+mk+0zmwcuyKFmsnRqQAOPSNHX59I33CpmP3wARH2ISSw/P/873/lOfX09PFW0b0wmHbWyukdo/zeV2ojaZrNODni4D009QptW2Q5PJtOPIF/9czhcs3yHm6Vzo1JPu8O/u8M1bnd+/u6/MJ3wiJMoM3scaN/O7nFevgniqyMgkOfR4cOHP/jgg0QQyg61XacWcx12+LU9yuE7QTvfq8PtO+//O+KndOGzOvmUTq63w3cO96NOzupwJ9bhj9x+FOgFee+999JZ4SrjHIWktavEm8WlaM0URg7/KzLgdRItsDPDsyilQpBQKIQPE8cWN6SljrvtZPsMYoa7Nng/X22xp7kDGCB/Rl+fTh+AyavuTfDyLwNyUUrc2QbE21XwY07qquPdXM+glJqm6dmykrQGTnid5rC2AQZqWpqmwYTQwyVTQwgNSJn1Z1BKLcuC0RFCCEphzAyUm5Dp1o1RIiX3LW33DunodZv41uER2hyt/fZtXpDDnEaaO7bZvmXkuG3ZDQ0NrVOgD3f8zj+okxNLZ0dymNueuv0Rb3VGX5y7PTFNMx6Py7LEOTdNkyCEPCOzsbY1NTVr166VJMnv99u24zgZzB4cGFRVXbdund/v37lrJ6TN6esz6m2UUsMwEolEaWmpIis4qhIhT8ngD95xnIKCwtLS0kGDBrlLDPbcmfVPnPO8vPzs7KwTTjjBm21ThBDO+b59+xoaGurr6715BxDyrMz6Mzh3YElbiUmQZaznzqx/EkJAdkLICObBegagrdltPfg7gJCXHVXDggeHRnQ4wNlrME4g5FldjxmYjY54MmZgwEDIy44iWZDnSkuEEPK6rtQzKKWCCCK8+JRNsG6RxvsIoYEqsz5wdz0Qz4KJje4yhR6JH20uU7SuiNDh4jAeuScIeVNmY20ZY7BclGhdK6rnzqx/aklpy72bcYsIwjkXvCXvlkdvAkJelVk9o6amZsuWLT6fT9M02rqOgvuY2eHrThL5pbNN+43TfD+jgxxxGzeNF+d83bp1wWCwqroKwme3XEVGG2f0QZne/3ReCyHC4XBOTg6ltJ8suokQ6h0ZxAxFUbKzszVNC4VCqQtCeYoQorKyMhQKDRs2DJaf6usz6m2w6qQkSaqqxmKxjFYSRggd6zKIGbBG+aBBg2BtV282zgghDh48mJubW15e7sHLJ63LNe/Zs6euro5Sqmt6X58RQqj3ZJZvCpLlEkIopR7szCCEuE0xXk4IzxiDb18IYdlWX58OQqj34GLOCCGE0oUxAyGEULowZiCEEEoXxoyMebYbAyGEMpufARPaCCEwARj6wz1EtEyGh+EAng0ecO2QCN2zNwEhb8psrG0ymTxw4AAhJBQKwcLgPXZi/ZSiKPF4XJZlWNvVm4PHOOfJZNJp1dengxDqPZnN6TMMo7q6OhKJqKpqGiZl8IyZutz0oSnTqS9apxAfWl+a0o4z3LVufOiY7aYrH1qbGt5J/bfdcUi7n1JC2pwbcc+qzWFJSzKlQycjy/KWLVv8Pn8ymaSUpV54m4ttcx/a6HzLNhd1uGf51EnabY7c/qM7P06HH93hlrBEY319/eDBg3Vd91xdEyFvyyBmcM79fv/xxx8/bNgwSBrhwfLCsizbtrOzsydNmgTZt/r6jHobzAPft29ffX19U1OTN2taCHlWZkWeZVmQZIkQ4sHikhCiaRo8g2uaRjzZHw7dOW0qSQghj8isD9wNGIwxAmtoeAznnDvccZzU7IRe4147Ywy7wRHyFFynL2MejJQIIQQ81yGBEEKoyzBmIIQQShfGDIQQQunKoA9cCCFJUjKZTCaTjDEYQ9VzZ9ZPcM5lWXYXvoY04IZhWJblDhwyTVNRFCEEo0ykTCshrRNChBAU+n8o9Ie0zoEg1J1tAju2/j/lv4fmtLRMyGh5093F/aDW4x/qamrdq2Wb1nkmcAKpW3Z2ZPrVT6eUcw4jrd3c+Aghj8ig0Nc0raam5uOPP6aUKooCxeiAxzmHyYyVlZWJRIIxtn///kAg8P777/t8PkVRYLYKBFQvDKOilNq23dzcPHToUDeaIoQ8IoOYkUgkNE372te+NmTIEF3XU5NGtHlkbtHhwKqvPgULkrLj4bbs/IBtdklnszYnfCSUUsMwfvnLXz7z9DNJI2lZliRJsixblvXd73736quvliXZdmxd1z1SgHLOv/zyy4aGhsbGRi+ESYSQK7PGJUmSgsFgTk4OpNzwwrh8wzA0TaOUnnXWWX/5y1+am5vhfVVVCSHnnntuMBiUJdkwDVVVvdBQI4Rwm6S8vFghQt6UQcxQVRUeseG/jHmisFBV1TAMv99fVlZWWlr66aef2rYNlYwZM2acdNJJlFIuuKqqbtLfAc9xHM65u7xrX58OQqj3ZBAzoDHKXQ+8p86onxFCKLJi23ZhYeHcuXM//fRTXdcNw5Ak6Vvf+pbf73eDKMyO7tuz7R3QNMc5p8Sjy8Ij5FkDvy3lKFFKLduSZVmW5fnz52dlZZmmyRgrKCiYPXu2FxqjOuOJEIkQOsTbRV56ZFkhhHDOy8vLzzzzTFhuaMqUKePHj/d6zEAIecxRTLDwRo5Cx3FkWeHcUWTFsq3LLrts6dKlkiTddNNNuq632Rgb9xFCA1vXY4YgXunypZS4w4SmT58+evTo7OzsWbNmta9keOGGeKTPBiHUocxyoUcikb179waDQb/fb9u2F4rINut+U0pLS0t1Xd+xYwesb0pSFtrrs7PsRZRSy7SamptycnKEELi2K0KeklnMgPH4kD2iywsntF98tPNDdb4AavtjknZrvna4PSFtl0QlHT1Et3nHtu0FCxY4jmMYhmmaqdlT2pzA4Y7cyRquXbjMTm5aRjc5A4JwwWG1Pkim0g3HRAgdIzKIGbFYTFGUqVOnDh06FMIGo6z9o/VXFgdPSYB0uC072d79UedvgtRp4222Jx1t2fn2rVu2XxnmKAAAIABJREFUPWshhG3bsPwUlMIwm7z9QTr86HROtf2W6dyEzu9k+nf+iFtSQhzu7Nyxs7qmJhaLmabZbieE0ICVQcwIBAK2bdu2DdOAKaUdtsWIjv7byZadbC/SfpOkvX2H+3a4fYdn7NiOO33PcRxZljs5SIcfnc6ppr9lJ7t37c4fcUvox6KMMkZ1Xff5fB3thxAamDKIGbZtO46jaRokNBVCeCCv7VdXb6VEVmSY0CdJkqIofXdifUYIAku6QjUL+zMQ8pQMCn3I2+o4DuRw7blz6lfa9gEIomlaS4mZdpbDgSS1l4hz7pG0jAghkNn6Gd5Jj3FYsAqGt+9Dm4FkfXgmCKFehoNeEEIIpQtjBkIIoXRhzEAIIZQujBkIIYTShTEDIYRQujBmIIQQShfGDIQQQunCmIEQQihdGDMQQgilC2MGQgihdGHMQAghlC6MGQghhNKFMQMhhFC6MGYghBBKF8YMhBBC6cKYgRBCKF0YMxBCCKULYwZCCKF0YcxACCGUrgzWA0fomCaE6OSn/XZhc865EAKWoBdCMHZsPOd1frdRv5LRl3Vs/P4h5FkQKiBmHCsBAw1g+CuIUH8ny7IQwnEcznlfnwvyOowZCPV3tm0TQhhjWM9AfQ77M5C3cM4dx4HWHkmSGGWCCNId/RnQKAzHSX2dzvadbGMYRmVlZTAYzM/PdxxHluXUn3bLmfcQ7NI4VohW6WyMMQN5ghBCcGFa5oYNG37/+9/v3Llz3Lhxt9122+TJk6uqqgzDGDFiBAQS2N62bSidDcOQJElVVfijYoxxzt3nfcdxGGOUUsdxmpub6+rqhg4dqut6NBqtra0tKSnRdV2kkGXZsizYd9++fVlZWQUFBbC7GwzgU5LJJGxcX19/2WWXXXbZZd/73vcopbZtS5IEka+6ujqZTI4aNYoxFo/HNU2TJElwwQWHC0kNML1wh1P/G4lEKioqGGNwi46mhpT6vRz9Zofb8ih3P5rz6R3tz8ftJ5MkybGdSCQCv6WdnzbGDOQJlFLCSCwWu/POO+vq6i666KJXXnnlzjvvfPrpp3/961/X1tYuWrRIkqRYLOb3+xOJhK7rhBDLsnw+XzKZ5Jzbts0YE0JYlqXrummaiqKEw+Gc7BzTMm3bXrFixe9///vXX3/dMIyXX375r3/96+uvv67rumEYnHOfz+dGHUJIIpG48MILb7jhhhtuuAFiBmMsHosHQ0EhRDKZVBSFECJJEqU0Go0mk0nHcRRFoZRCOHEc5+c//7kkSQ8//DBjzO/3w/Ftx1ZVFaJLXxVbnPPXXnvtlltugWDm8/kcx3G/CLd65IaZ1Ned68YtOzyTnv7QDrfs/Eza1Fw7P+f2G3S4e+pr+N1WFOWkk06aO3du6iNRhzBmIE+A8tSyrKqqqmnTpt1yyy1nf+PsSDTy4Ycfrlq1qra29le/+tVNN920c+fO5557TlGUyy+/fO/evR999NHXv/71999/f9iwYVdccUUikXj++ef3799/3nnnzZgx48UXX9ywYYPf5//udd+tra394x//uGvXrgcffPCEE074xz/+UVNT8/D/PnzjTTcOGTLEMIzHfv/YyFEjTznllGeeeea0005bv379/v37ly5d6jjOddddt3z58jfeeGPSpEnf/OY33377bfgb3rx58+WXXz5o0KDm5mZVVZPJ5BNPPPHFF19MmjRp/vz5n3zyyYoVKxRF+e1vf7tgwYKXX355zZqPR40aee211zqO4/P5oALUVzfc5/MZhmHbtmmayWSyXz1xo/aSySQhJJ3qIMYM5AnwVJWTk3P22We/+eab11577dSpUy+66KKGhobq6mpJkvbs2WPb9g9/+EPbth3H2bRp03Xfve6pp5566aWXhg8f/vTTT48bN27jxo2PPPLIpEmTNmzY8Kc//WnXrl319fWvfvjqnr17rr/++t27d8fj8d27d5eWltbU1DQ0NDQ0NsCTfjwef+75504//fRJkyYtWrRI0zTDMCCA1dXVrVu37p577pkyZcrjjz9eW1urKMqvfvWrIUOGJJPJl19++Z133hFCcM4bGho2b96cSCR+9rOfNTQ0TJw4MRwOS5J04MCBVatW3XnnnZMnT1754YfDhw+/4IILHMfp22Latm2o68CdxxFf/RbECVVV4bkkFAodYfteOSuE+phbN7/33nv/+Mc/Tp069cUXX7zppptOOumkk08++cQTT/zDY3/44osvtm3bdvzxx5eXl+/atWvCxAnDhg2bN2/eI488YhhGfX29YRiCi6lTp95zzz2DBw8+//zzy8vLZ86cuWrVqtLS0ssuu6ysrGzRokWXXHLJpZdeOmHChIcffnjIkCFQaELrE9R1AoHARRddpGnatdde++Mf/3jZsmXhcLi8vHzIkCFr1qz5+te/LoT42c9+dt999zU3N+/evRtiTHFx8UUXXTRlypSSkpJdu3bNmjVrwoQJZ5xxxi9+8YucnBzDMPLz8xfesPDkk0+GgNG3XdBuqIBGNtRvQTi3LAsaXY9Y1cCYgTyBUmpZVjgc/p//+Z9IJHLrrbdefPHF+/bta2hogD8SQQQUtbW1tUVFRQsXLszKypIkqaioKBAIQNfFt7/97R/f8eO1a9defvnlS5cuveSSS9atW7dt2zZFUUzTZIxBnwf8Nx6PK4qSWuWHGd2O4yQSCVmWZVmGLgdCiGmaBw8enDJlykUXXSSE0DStuLg4KysLfgrbr1+//sorr9yxY8euXbscx5EkSQgBw3DHjx//6KOPhkKh+++//7XXXiOECN7HM8ahWRzGfaW+37ctZp4lSRL8PsDNp1/FOYdfznSeMzBmIK9QVVVRlIMHD954441XX331k08+mZ+fn5eXN2LEiNdff/2///u/hwwZMmrUqKqqKsZYZWWl26ICA0skSXr11VefffbZcePGmaZZV1dXX1/PGNN1vbKysrKyctSoUdu3b7/77ru/+OKL0tLSXbt23XHHHU1NTYQQTdOGDh360ksv3XfffbW1tZ988onP5xs7duzzzz//l7/8pby8nDGWSCQMw2iobzAMIxKJ/OIXv7jnnntycnImTpw4bNiw9957b+XKlZZlQZCoq6vjnB933HEffPDBr371q7fffvuuu+6C8Vo1NTWMSaZl9rfJHFBaYSNV74MRExDFjz6bgHT//fd38mPOOQSiZDIJI7H8fn8oFMInBY9raGiIxWKmaRYUFOTl5fX16aTFNE1d10844QRd1yORyMknn3zXXXeNGTNm+PDhnPNIJHLWWWdNmzatpqamsrJy6tSp5eXlNTU1M2bMGD58RF1d7axZs6ZMmVJXV9fc3HzdddddcMEF+fn5dXV1s2fPHjFiRGlp6axZsyilBw4cmDZtWllZGaW0qalpwoQJRUVFkiSVlJQ0NTWVlpbOnj07Ho+fddZZZWVllZWVkiRdeeWVY8aM2bVrl2EYs2fPVhRlyZIlI0aMGDdu3AMPPDB27NihQ4ceOHDgpJNOGjVqVDKZ/P73vx+Px0866aTy8vJIJNLY2HjOOecMGjRo3759p5566sKFC30+3e/z247dV2FDCLFly5bXXnvNNE1CCJRTqcmyKOpFUHuQJIkcPmZTSktLS7/zne/AiMFOHKHRE7qwGGONjY0VFRWc84KCgsGDB/e3RxjUm4QQO3bsqK6ujkQiZWVlpaWlfX1GR8Y5N01TlmUovGCWA2PMsixZlm3LZhKDBh/4o4IfaZpGCIGCT1VVQggMhIXBo6l/k9AqJUmSZVmSJMG4WM65ZVlEEE3XHMexbVvTNNu2E4mE3++HbdxGfzigaZqrVq269NJLly5dWl5e7o6gd084EokEAgFKKSHEsizHcTRNg0uDoEhTnud6syEotSThnL/00ksLFiyIRCKktaIGhQls0JsTR5AQAn4nSWudA2qrqRtQSufMmbN48eKcnJzOj4bfHPIE2tq+BMWrW9xDD62syPBsxDmHxzEIHjAlTVEUxpjggkmMUur3+91nKSjxJUnSNA22V2RFEAEBhlLq8/kopTBHAUKIpmlQyquqCpEAusdhfC2lVNd1t+cDOi1glgY8qAUCAdgLekQg2GiqlkgmYHwt/NSyLIhhfXvbXW6IFUIUFRWdffbZbc4Niq3UwHO4aJc66cTdq9dCY5vTaH8yh9vYfZ3OCadzH9qcRidb2rYNv2yqojaHmz/++ON9+/Z1cszOYcxAnuCGB6g6uAVWmz+z1IIMtjz0RNxatWaMQUhooyXYyIeO4FbH/X4/ISS11g9HgF3gI9xJfKWlpUuWLBk6dKiqqtzhsiK728Mx3VOCF3CQYDAIb6ZeZn8DNaoRI0Y8/vjjmqa1aeSgrbPP2r9ocxza0XzmY3fL9puRw0/668KWbhoCmGJ5/vnnY8xAaOAoKCgoLCxkjEFdpK9Pp/u5db6+PhEPcQOJO4Cqy7BbAqF+BP6q4SFRU/tjXQF5HNYzEOpH3AG+0JcuhMA5cahfwZiBUP/ids5DD3xfnw5CX4ExA6F+BAIGae3DHDCN/m4nLQwJ69uT8aDUvvGjHGOG/RkIIeQVlBztoGSMGQghhNKFMQMhhFC6MGYghBBKlxdjBmRlgNeQjBqSPsKbkBYYVkoA8CPDMIQQpmm6uUXdvdxMD+7rWCwGx4djYqcfQmhg8Ny4KXf8uxAiEonYtm1ZlqqqjuOEQiGYXg/zJJNGEkJCIBDgnENur23bthFCysrKID0cd7iiKpBriLYurWPb9ubNm7Ozs0ePHg2D692sRH177QghdJQ8V8+glDqOAxWIv/71r2eeeeb8+fPnzp17yimnfPrpp6S1TrBp06Yrr7xy3bp1CxYsqKyshHyolmX94Q9/ePDBB2Ox2EMPPfT4448/9ofH/vKXv/x/9s48PKrq/v/nnLvNkslOEkggIMgussimCG5IwQWBurSPbb/dvlq/2kXU6rf92edbtS641mo3t6e1tVWoXay1gBsqWBQF2ZewhQBJICSZzNz9nN8fn+Q6TMJkSGYyyeTzenjyDHfu3Ll35s55n/NZvT6aUAtI1/Xbb7/92WefhaZssNSwbTuzF44gCNJ9+t06gxAC5UsZY8OGDZs+ffpf//rXioqKK664wufzeeN7bm7uxRdfPGTIkPPPPx8qicL6Q5Ik6Lw2ceLEgD9gO7YsyxC+ZlmWEAKWLKZpuq7r2I4/4Ad96rQqPYIgSO+n32kGGKZgZJ8/f/6kSZPWr19/7rnn3nnnnb///e/379/f3Nx84sSJCy64wHGcRx99dMGCBcFg0LKsN954Y/369Z9++mlhYaFpmqqqfrzh41AodM011wgiDh48+M9//rOhoWHu3LnDhg2DktdRPfr8C89fdtll0NWn+9k0CIIgmaXf2aa8UtKUUlVVwRUB3Qg++OCD//7v/37hhReqqqr27t1bW1sbiUT+53/+5+DBg6+//voPfvCD7du3NzY2wss3bNjguu5vfvOb+++//8iRIzfeeOMvf/nLd9999+abb4Z9OOdbt259/PHHKaXgF0HBQBCkr9Pv1hkeXkFg6FojSdKYMWPefPPNJ598sqysrK6ubu/evYqiNDc319bWrl69Oi8v74knnnj44YerqqoYY1OnTt25c+ewYcO2bt169OjRzZs3/+xnP7vgggvWrFkD/pI1a9asXLlywoQJAwYM8LrNoGwgCNKn6XfrjPZAx03olZabmztgwIBgMPjggw8+//zz4DBvaGiA3meBQAAe79y581vf+tahQ4cMw4DQW0VRfD5ffn5+YWEhKERTU1NNTc3YsWNhhYHdcBEEyQJwICPQoVMIAUYnzrnjOJFIxO/3HzhwwDTNPXuqxo0bd/To0RtuuOH999+vq6vbv38/7FNfXw8Bu8OGDXvooYe+9rWv3XXXXZFIBJrr3nLLLf/617/C4TAkduAiA0GQvk5/1wy/33/eeeedffbZgUBg6NCh1157bU5OjqIoS5cuHTp0aGFh4c9//vMtWzZfd911N910k6Zpzz333Phx48vKyu68887a2tply5ZNnjz5xIkTTz311OzZs4UQy5YtGz58+HnnnXfOOedcf/31U6dOBYHpnb02EQRBTguaOEXZcRywq5w4caKmpoZzXlxcPHDgwKyxtHDODcMA2xSl1LZtn88Hyw7TNMFh7rXY1HXd7/frug6tjB3HAV83uNMty3Id1+f3ecYoMG2xNjJ9rSlDCLF79+7a2tpwODxq1Kjhw4dn+oyQzBM7knDOly9f/u1vfzscDpOTG1ZLkjRlypQ1a9bgLKqHAX+qHtUXXrVw9erV7Z+aO3fun//85/z8/MTH6b8+cIAxFggESFujAkVRPE81bCeEgM2KEBIKhby/hJC4m97LwPDyvaFPZ7ovAUEQpMfInskvgiAIkm5QMxAEQZBkQc1AEARBkqW/+zPa0/3ehwiCINkKakY7UDIQBEFOAdqmEARBkGRBzUAQBEGSBTUDQRAESRbUDARBECRZUDMQBEGQZEHNQBAEQZIFNQNBEARJFtQMBEEQJFlQMxAEQZBkQc1AEARBkgU1A0EQBEkW1AwEQRAkWVAzEARBkGRBzUAQJF1Am2Qkm0DNQBAkOQQhhIg2TNPknAshOBe2bRNCOOeu6wohOOeKogghZFmmbUiSxBiTJCnDV4F0D+yfgSBIctBWwYD/qarqui4hRJIkRVFc1wU9gH1s22aMOY4jSRLs5roupRT+ZvAikG6CmoEgSLIIIRhrNU54ImFZFmOsrq6usbGxoaEhGo26rvvpp59WVFTAWgRWG6ZpKopCKS0rK/MOgvQ5UDMQBEkKb4UBywjXdRsaGhobG2tqakzTFEIEAoFAIFBeXh4MBsPh8OWXX15eXs4YY4wZhkEp1TTNdV1FUdBC1XdBzUAQJCmEIOCrsCzrxIkTK1euVFV1/PjxkyZNCgaDqqpKkiSEcB2XULJr164hQ4YMHDhQlmVwcjiOwxhTVZVzjuuMvgtqBoIgHeA5HoQQRBBCCdiXtm7deujQoWAwePHFFw8cOJBSyhhzXRdkgFIqKzLnnFIKhizwflNKFUWBI+Mio0+DmoEgSAdIktTS0uLz+eCxaZqHDx9+7733hg4deskllwQCAcaYEMJTC6SfgJqBIEgHQKQsrCHq6+s3btwoy/KcOXMGDhwIKwZwb8iyTMTnrg4k60HNQBCkYzRNMwwjEon85z//KSoqGjNmTG5uLqgIaTMxwTpDlmWUjX4CagaCIB0AaRY7d+7cunXrrFmzwJtNKbVtW1EUzjkhhAji5WRk+HSRngI1oz8Sm35FCIGAFkIIWKjB8wk+TCEEo4xgDlY/QAhhWZYsy67jSrLEOd+6dWtVVdXll1/u9/shi5sQoqoq8fzY9KSXxx4NfOPevdSD14GkF3Re9Uc8wYDaD5ZpQfgjFIRwHIcQYhhGq5bg771/QCm1LItzLsmSEGLTpk27d+++4IILQqEQCECmTxDpFeB90K+BfKtAIEAIcRzHdV1N0wghlmVRSg3DaGxsBAlBsh7OeU5ODjzYvn37kSNHLr/88lAoBM+i9QkB0DbVT/FsUEIIQQRYoiKRyMGDB6urq48ePQoS4rrurFmzJk2alOnzRdIOY8y2bVmW6+vrt23bdsEFFziOA6UGFUXRdd3v92f6HJHMg5rRr+Gc67q+f//+6urqxsbGwsLCkpKS0aNHT5061efz+Xy+zZs3Q5AM0k9oaWlZs2bNzJkzi4qKIK8brFIoGAiAmtEvgFUF+LQ55zAWRCKRXbt2bd++PT8/f/To0ZWVlaTNdQk5wPBAVVW0S2QljuPIsgwFzCEUilK6YcOGsrKy8vJy13UhUCrTp4n0LlAz+gVeoBSESDY1Nh04eGDHjh2jR4+eO3dubm4uZGl55R88MnvaSFqRJZkQwhijlHHOhSCNjY3hcPjSSy+1bRsywBEkDtSM/gIsHSilhw4d2rZtm+u6l156KYTEwOIDIiNjGyQgWU7blIBzl3POXb5mzZopU6YIIVRVhTyMjJ4f0htBzegX6LoeDAZbWlp27dq1a9euuXPn5uTkaKoG3m8CFSDaViGUYjRdv8BbfUL43M6qnUKIsrIySOqGWwJB4sDbol/g9/ubmpq2bNnS3Nx8xRVX+Hw+SqllW5qmeSVIYXmBFqn+Bng1wuHwvn37LrroIvBwQHNWvBWQ9uCMMjsRQkSjUSKIbdumaVqW9frrr8uy/IUvfMHn8ymKIssyKAfk94LH20vcRfoDsMiAGYPjOJqmKYpCKVMURVVVvBOQDsF1RnYihPD5fC53CSHhcHjNmjXjxo0bP348aTNDIQhpqzBoGMYHH3xwxhln+P1+xlqlAjUD6RBcZ2QnUAcC4qA2bdpUVlY2fvx427axAgTi4XVVMgzj+PHjgwcP9orKUKwYg5wCnHJmJ47jqIpq2/b69esZY9OnT6eU+nw+L/0bQQghlFDOxbFjxyoqKuD2IKAZDG8SpGNw1pmdMMZc7u7bt6+qqmr27Nm6rgshDMOAxmqZPjukVyBJku3YlJK6urqKiorY7ByMt0ZOBWpG9gBpFo7jCCEkSXJd97PPPlu8eIkQIhgMMsb8fj+0x8n0mSK9BdCGurq68vJysEd5aiFOk/ZHhqrJBOsbZhc4fGQJXlEQKGnuOM677747ePBgVVViM7rRMIV4QPFBGNllWUYXBpIMuM7IEry1BQhGU1PT4cOHJ0+eDB1yEKQ9juNQSnVdlyRJkiScTyDJgOuMLCHWCCBJ0qZNmy666CJJkmBcyPTZIb0R8Fs0Nzf3QBnK9l380vp2SPrAdUaWQCmDstVCiIaGhvr6+qKiIm/xkemzQ3ojUCOkqalJlmXbttP6XomdH0gfAtcZWYIQHH6Jrutu3bp1+PDh0HEPCwchCYDYa8C27e5M/0/q4tXWZ951Xai17j3FGOOca5qGS40+Co4m2QMsMizLqq+vnzRpEhQOkpgElQcRJA5YhmqatmfPnnA4rGlad1YAsbeZEGL79u0rVqzIyclRFMW2begtL4TIyckpLi6++eabcSrTR8GvLUvwfu2c82AwmJOT4ziOJEmEEoyHQTqEUso5HzJkyJVXXunz+SAJnJzsbDiVH6K9ulBCBRHwF+Yujz/+eG1tLSFElmWvq7wkSVOmTPnOd76DmtFHwa8tS4Dygq7rHj16dNCgQWAEYIzB/C7TZ4f0RgRvjc8uLS0lbR23un60GBXhnPt8PuguDjlDsB17eWUBOJpkD5DNt2vXrsLCQsYYNHD1Jo8IEgcXHLq3erG2KUSWZcuywJ8RCAQ87zfekH2dROsMmDiAFRK2wGPPnZXC+QKG4nUTaINh23ZdXV1+fj5shNVG1+rNed8+afd1xN4Y6CwBMhULFGMsIoSc3k8SZhVef3i4W7p/JvAY1hbQUt4wjLaTFI7j4D3Tp0mkGZRS7x7yRgdPNlI7rKNIdBP4RizLkiQpEAjA59n69XXpo4Uq2a1OkRiEEJA5CMeHeM3un3/fov3t2gtu4C5W6fAmhTR1ZaaEEF53FkmSLMuKfSolb4Fkis79GaAQMDpANJ5oax+dvq+/F/wC+xggD+FwWFGUlITAwwG9JuGxT3mRlJZlpXa52VeImyln0EbvfTW96luAJS94wkE5PJcG0tfpRDPA4uENHJxzL4jbi7lGegOCC8poJBIJBAIpcXrD8gLafHagQIJIkgTW8H44c2x/52fqQ/Dy/+GUeslP0jNLaJoG1ZQzfUZIyuh8nQGDgmmauq77/QHOua7rkJiTwhsUhrlYZ0mqjtxPoJS6rqvrel5enmEY3ZQNsD6BMdpxHM8eTQiBJaZhtr5FJBLRdb27Z9/HYZT1hoDm3pNizTm3LEtVVbg3eslZISmhE83whh7O+cMPP1xVVQWzS1mWY9cZ7Q0UpzJZnGpPSikMRoSQ/Pz8K6+8UpKkU1nAujO3BaM/xIbD+6bvhobz966rO3RoIIIlP3xQjuO89tprhw8fnjlz5rFjx8AUAJ+tZ60mbb9e2Nj+KdgCQbrgGt22bds///lPSCknbaNSMBg8evQoeDtCoZCiKO1POMEtEfdUAutW8oavFO6ZTJRHKBS67LLLIDgt1u3X88Dd5bpuTU3NO++8A7P70/31pXxPQkhjY2NTUxPMLOHXffoXh/RGOtcM8IUqirJ79+6NGzem6TxEW3E9RVHOOuus66+/HsL1SKoDtEhbhIlhGD6fz3GcDoe8lOC6LiWUMtrNiJQOaRVULgglnHPTNP/4xz/u2bPn1ltvXbx4cexPlFJKBCGECNJm+yaUUBK30dvT5S4YphzHKSkp+cUvfnH8+PHUnnxfZ9SoUfPnLygsLMjJyYnV3Z7H65iyatWqxx57LBwOZ+Q0EoPrjGyit+T0QSk98JfA3ARaQZC2wTFVbySEYIxyzlVV9ZYyqTp4HHBRoLtep+UUv4UsxUa+uq4LS8DuCCG3OZwtTA/Re9keXdcpJcFg0JOKTGkGYwzK3ceFJyFImugtmgG1V73FPmSQWpYFY3pqh3XbsjWfxhiDsJ+0jolwfEmSotFoahc0oKxQ6rxVMByXc97S0iKxbvVC8OSNUqooCiZhtUdRlKqqqn379uXl5XHOFUXJlGbAWx87dmzPnj2maWbkHJB+RW/RDABG2JaWltWrVzc3N5eUlDiOo6pqCgs1w1soirJnzx4omRAKhVJ18DhkWW5qamKMRaPR/Pz81A6+oq1EqKIohw8fzs3Nra2rBSsik7oVBh2blIMZWB0CK7Ddu3dffPHFUB4j1kUU63xqH9MR50aKpf1uHR4wdjvMEqqrq/Py8vpnDBvSw3RXM1J1m8b+kAKBwMSJEz/88MMRI0YIIVo7zYnkctNid+voJfAuuq7v2LFjYNnAmsM148ePT+oUvaMleSaEEEL27NkTDAYPHz48atSojus/d3bCCc4ErsV13XA4XFpaWl5eXltbCzm93Zn2xkbEofdE13SvAAAgAElEQVSyQ8LhcHl5+Xvvvbd9+3YwBgoB34r3Nw5KKYkb9709T/4ReTcZbCcdHe1zKQJdNwxjyJAhqBldJlaYPe9j/8w96pTT0AwvysjzV4OZHpYC3bxZoZQepRQOJctyfX39gQMHTNNs7ToZc3gonxn78vZbToUgglJqGEY4HJYVua6ubueOnd058wTYjn3ixIny8nLHcfbt2yeEYDTGyNbqiT7FSSa8QEEIpcS2bSg0vXv37hEjRoArqPv+du8Iruv6fD5VVbEEKQSJgTFQluVgMFhdXT1w4MDp06d3ywfefpZwmltkWa6urt65c+fBgwc1TUt366QEQCAf+FRgBZypMzktQO8lSYLMMxhtPAdkYuIGvU6zdrJDgbo+Fnj3hOd97aY9BH6WnHPDMHbv3p2bm1tUVGTbNqwz4tbpHS75ycnzhfbAU7Ish8NhWZZra2sLCgpKSkvi9ok9cmw8cdw+7XeLe1/OuSzLBw8edBxn5MiRHVot4s6t0+uKNUqYpgk9D8Lh8J49e1paWiASGsa1Tj/zU+GdmCIr4XDYNE10g3sfOwwluq5bljXyzJF79+4FV1ymhgP4aoqKimprax3HyeA3JcuyN8PrK4JB2opuQfCIbduMMdu2VVWDaLT0BVX2Xbo+skChIdd18/LyKioqYj/fxMNr3Eb4NYIwKIriOE5ubu706dOnT59O2tYfXT7J9sAkwu/3n3nmmcFgUGKSZacr2oRzPmbMGJA9KKIQ9yF0c6CBX6YkSWeccYaqqsuXLxdCaJrWzU/Mq1hHKCksLDz33HOPHj16Wt9phxvb2/F7ZmOcErffmMy34AkGYywSifj9/rPPPnvQoEEQSZHBMAHGGCHUsszCwsKKiopQKJRB9eKcNzc3HzlypA8VC4E8M0ppuDmcE8qBccww9C7MvfqJYbDrmgGjuSzL8+bNu//++3Nzc7vTdxpeK0lSY2Pj66+/fvz4cUmSTNOkbXT5yHEIISzLUhRFVdVIJALhtqk6eBxwUaqqwuIpNrqm+1cEli0wRsHkbv78+bfddtv48eO7ee9CvRCIWxs3btwLL7zgfQWp+lW0X8wleeT23uDTekmCZxM4rqGPUOtDIo4dO/bqq69allVdXR1bcP605KfT3RIfgcTcQnAD5+Xl3XvvvRdeeOHpzhg6XFh37YumlD722GMPP/xwHzLCwL3tOI6syC+88MLHH3+sKMrixYsnT54cDAYTfw6dRjGk5YwzTdc1w3PAKopSWlqmaWp3prdg2oJViyRJf/jDH0zTDAQCpmmmMNbWmy3CsAj2+vRNiGC1rqpqS0tLbm5u+/D57txV3rXARAkssBdffHH34z5heS7LMiz7BgwYkK13/2nhybPP55Nl+eWXX/b7/ZFIBOKmYtsEtKfDp2I3xhldT3WE9rt5GTlCiJkzZ5aUlGTqyzJN06f5cnJyYO2VkXPoAjCJFELcd999v/71r2Huu2rVqhdeeGHChAlgTaGUxnloYmcY3oxBCAFl3zzrXOx8N2t+RN2yesM4xTknRIAHu+vnIcuEELBu3XLLLV0+DpISoFgIpRTtuR6eASo3N/eOO+6IfSprhoPu4PP5RFv8dx+KOKKUapq2cePG3/72t4sWLbr77rtra2sfe+yxtWvXjh8//s0332xqaho9evSZZ5756aefNjc3n3nmmR9++OHs2bOPHq2tqtpzxhlnTJgwAXyx69ata2hoGDVqVGVlpc/n++STT2pqaiZOnDh06FDSViI605ebAvp7PAyCIP0ZmPvu2rXLNM2rr77a7/fruv6tb33L7/dv3rz5nnvu0XX98OHDK1aseOedd5YtW1ZRUUEIYYytWLGirq6upqbmzjvv/OKSL970PzetX78eEqT+/Oc/r1y58qmnniotLQ0EAn/5y19CoRDEl2b6clMAagaCIP0XL9BWURRZluvq6m6++ebjx4/n5+e///77Tz/99OHDh2+77bb33ntvxowZhYWFV1111Q033JCbmzt69OhIJPLoo4/+61//Gj58+FtvvfXggw8OHjx48eLFpmk+//zz8+fPX7hw4Xe+853t27dPnjw5a5bsqBkIgvRfwPdQXl5u2/ZHH330jW984+GHH37ggQdycnJWrVq1dOnSyZMnHzlyxLKsvLw80zQnTJgQCoX27NnzzW9+s7y8fP/+/RUVFZFIxDCMoUOHGoYBgTy6rn/00Ud1dXWTJk3y+fxgw8+OMjyoGQiC9F8opZZlnXXWWTNmzHjiiSeOHj169OjRTZs2PfXUUzt37GSMXXnllWvXro1Go6TN7ZqTk7Nz587a2tq77rrrueeeI4SUl5czxv74xz8OHjw4EolUVFSUlZUVFxffd999u3fvHjduLInxh/V1Mlb3H0H6LvRkMn06SNcRQvj9/oKCgieffHLx4sXvvvsuuCguu+yy2XNml5SU/OlPf/rqV7+6detWx3HGjBlTUFBAKZ0+ffrYsWMfeeSRUaNGWZblOM5tt922YcOGFStW5OTkGIZxzz33EEIWL1781FNPNTY2ZvoqUwmuMxAE6ddAHtWIESMeffRRiMKXJMkyrWnTpn3wwQeGYaiqCpODv//9747jRCKRYUOHvfzyy5A/C0VHBg8e/O1vf/v999+/5ZZb/H7/7Nmzzz//fAghUxTFsR0oJ5rpa00BqBkIgvRfaFsrAQh58poyKIpimqZlWTk5OZAQzjmPRqM+n0/TNMd18vLyoOWPpmlHjx699tpry8rKDhw4MH/+/MrKStLW2YEQYtu2oipZkyWOmoEgSL/Gy5QE5Wgr40agEDU0NocuOMFgEKo+Q5axaZp+v9913YKCgmXLlr322mvnnXfel7/8ZUIIOL2hgFWfq8GVGNQMBEH6NXGp2m2WqNYtiqJYlgXlpyAvD6okEELAdQF1AaZNmzZ9+gxZbm3N6TgOo0zTNM45o0wQkTXFobPkMhAEQbpGXBRDXIATYwzKInjbY3fw+/2wxdsIS5C4/ybZqaFPgHFTCIIgSLKgZiAIgiDJgpqBIAiCJAtqBoIgCJIsqBkIgiBIsqBmIAiCIMmCmoEgCIIkC2oGgiAIkiyoGQiCIEiyoGYgCIIgyYKagSAIgiQLagaCIAiSLKgZCIIgSLKgZiAIgiDJgpqBIAiCJAtqBoIgCJIsqBkIgiBIsqBmIAiCIMmCmoEgCIIkC2oGgiAIkiyoGQiCIEiyoGYgCIIgyYKagSAIgiQLagaCIAiSLKgZSE/jOA7nnBAihBBCwEbOufc4AfBCzrnrut4RYo+DIEhaQc1AehZBJEmilBqGYZomIUQIAUpAkhj2KaWmaVJKJUmK0wlUDQTpAVAzkB5FEEEpdRxHlmVJkiihhBDXdR3HEZ2JBqwtGGOc81aZQRCkZ0HNQHoUsCNJkkQIoZS63HVdFzZSShO/ljHJtm1FUSzLopSiPQpBeh7UDKRHoZS5rhuJRJ544olnnnnGsqxDhw49+OCDK1asAFNVwtcS13U3bty4bNmy5uZm1AwE6XkSaUbsb5JzQQiRJIkxRimNnRJSSlsdmIJ8/g9BOkIILoSIRqOvv/766tWrHcd58sknn3vuuZycHEIIrDls2wbrkxDCNE3YAm4PRVHq6+vXrVtnGAbsEOMAxzsQQdKOnOA5MBfAD1IIrihKQUFBNBqFqBVVVRljQojm5uZVq1ZNmTJl8ODBMS8mnZoakP6JLMuyLOu6XlpaeuLEibfffnvmzJnnn3++4zgff/yxYRiTJ0/OyclZv359IBDIDeUerD44duzYqqqqUE6ocmjl9OnTb7311kAg8Pbbbw8/Y7hpmU1NTRMnTqSUapr2+dvgHYggaSCRZsT+5BhjV1999dChQ6PRqCRJW7ZsGTNmTG5u7kcffTRp0iTXdbdt23aSZiDIKRBCOI7DGPv000/vueeeQ4cO3XbbbcFg8E9/+tOzzz67f//+kSNH/upXv3rooYd27Njh8/n2799/1llnCSH27dv30EMPBQKBu+66a+XKlbfffrthGAMHDty0adNDDz30X1/7r0xfGYJkP534M4QQlFAhBGNs6tSpV1xxxdVXX71gwYLS0tJAIBAIBMrLy+fOnVtRUeE4Ts+cMdLXcV2XMSZJcmNj49tvvy2EKCsrY4xddtllDz744N13371169Zjx45deumlDQ0NP//5z7/4xS9yzp977rkBAwZ88sknlmUpisIYmzx5sqZpzz///Pmzzl+1ahUXGEmFIGknkWa0rjMoAc3QNE0IoaqqqqrFxcW5ubmGYVRWVvp8Ptd1A4FAD50y0seRJEmSJNM0zjnnnD/84Q/5+fnPP/98S0vLQw89dOONNz7zzDOMsUgkoigKpbSsrKywsLC4uDgUChUUFITD4WAw2NLSkpeX5zhOXl5eKBRSVCUSiaBLHEF6gM7XGfCAcw4Swjm3LKugoKCwsDAUCvl8vmg0qmmaYRhpP1kkKwDblKZpgUBgzJgx8+fPX7t27ebNm7ds2VJeXn7hhRcahgEaIMuyaZqqqhqGIctyNBotLi4mhFBKLctyHMd1Xc65JEmqqsZ5LzLrzPDSR8BRD/+FtTj8hS2QcRK3kbR9RODej90IkSaxx/TeBRNWkJ4hqVhbSqnrurZty7IMKbjwW4V7V5ZlCKYCgYmLqkKQWCDKjhBSWVlZXFwcCAS+/OUvh0KhV155Zc6cOR9++OHHH388f/781atXl5SU5OfnFxYWCiFyc3NlWYZVBWOsuLg4EomUl5cPHz6cUur3+z0t8cjgNdq2TQm1bTsajcIWXddhlG9qamKMOY4DsWGEEM65aZqMMV3XYUJGCHEch1Jq6MaWLVvC4XBsoZSoHvUiFUE1DcOAS/YUCEHSRyIfOIKkHJh5FBcXP/bYYzAFmTJ5yurVq1VV1TTtS1/6UmlpqW3blmVpmnbxxRdLknT33Xebpgm6AtF65513Xk5Ozk9+8pNIJJKfn//000+bpqkoSqYvrhVFUaDAye2337506dKKiopAIBAOh5ctW7Z48eLRo0czxmRZ5pwzxpqammpqakpLS4uKimDN5K05Nm/ZvHDhwqeffvrKK6+MRqN+v59z7vP5BBc7d+7Mz88fMGAA51xVVEh1ZAzTrZC0gzcZ0qOAl8J13by8PHgsiMjLy8vJyWGMlZeXU0p9Pp8sy36/3zCMQCDg8/ny8vIopbm5uYwxn8+Xk5Mjy7KmaaWlpYwxVVX9fn+vWt2qqtrS0rJhw4alS5cahlFbW/vGG288/fTTTU1NqqrCSt00TcMwDh06tHDhwk2bNkWjUS/dBD4iqLDiui4oqG3bhJDm5mbDNO68886///3vhBBFURzXgcUKrjOQHgDXGUiPAgZMmGX7/X6YIJumCY5x13UZZaZp1tfXf/bZZ+FwGCw5hYWFQ4cODYVCsJiwbRvMoXBMeG0mryoOQXRdDwaDhJB///vfL7744qWXXnrfffdxzmVZ3rRp0zPPPBON6ldccfmMGTN+85vf1NbW/va3vw2Hw5s3by4rK2toaKipqfnGN75h27aqqrIsHzly5MUXX6yurj7rrLOuu+66Z555ZsuWLQ0NDZZlXXfddS+++OL27dunTZt29dVXg7hm+vqRbAY1A+lRPPsJDPoQdwu5eJxzwzD27NmzdevWYDA4aNCgkSNHUkoZZQerD7711lt+v3/cuHFDhw71/GqgQJxzSZI5d3uJchim4fP5mpubJUmSZfmpp576+9//XlNTA0uHuro6x3EaGo5/73vfW758OVRMqa+v13W9qqrqF7/4RWVlZX19fW1t7a233trU1AS5LIcPHzZN8//+7/+Ki4sdxwmHw4qi6Lr+1ltvPfzwwzNmzHj22WcnT548efLkTF89kuWgbQrJDDAdliTJsR0oBLJ79+7ly5dzzq+44orLL7/8nHPOGTZs2JAhQ4ZUDjn//POXLFkyceLExsbGl156CYoReOUOJUmitBdlfft8PkJa3dRzL5lbUlLy8ccff/Ob3wwEApZpjRkzZvjw4cOHD29paTly5Mi3v/3tQCDwox/96Oqrr54zZw5j7Be/+MWNN9746aef1tTU5OXlqapaUFAwc+bM8vLyAQMG7Nix46abbho1atS8efNuv/12WZbBFXTzzTcPHz4805eOZD+oGUgmkWWZSUyW5Z07d27btm3BggUTJ070+XzeGsKLs9I0bfDgwWefffa55577+uuvHz16lFIKddEJaU0hyvDFtME5d10nEAi4rltQWHDnnXfecMMN06ZNs23bcZ0HH3zw1VdfbTzRSAgJBoMQFCCE0HXdNE1VUYPBoN/vF0JomtbU1NTc3Pziiy/+7Gc/M00TYqggCsswDMMwZ86c+dOf/jQvL+/73//+e++9h0kqSLpB2xSSYSRJqq6ufu+9977yla/AuK+qqmVZYIDyVg8QZcQYGzRo0AUXXLD8leVf+vKXwFCjqqrr9hbDFCGEMQahtKZptrS0zJo1a/bs2WvWrHEcJzc3NxKJHD58OC8vjzG2a9euSy65xOfz3XXXXbfccgultLGp8cc//vGaNWvmzp07bNgwxtirr75aXl6u6/r+/fuj0ehnn32maVp+fv5vfvMbyHF54oknLrzwwtjQXgRJH6gZSCZxXbe5uXn9+vVf/vKXNVVzuSuEME1L01Qohen5uuEv5AMVFhbOXzD/k08+mTNnDkhFr5pfex2lvvKVrxQVFamqKoSorKy88cYbc3Jyvvvd71JKJ0yYcPXVV7uuW1pa+sADD6xauaq5uRlCqvLz87/5zW/edNNNeXl5TzzxxLp1677+9a8HAgHbtq+77rotW7bIsvy///u/f/rTnxzHWbJkCed869atDzzwwEUXXdR7DHRItoKagWQSxti6detGjRoVCARgxWDbttLm4vZ2gzIEABQdOOOMM/bu3VtTUzN48ODe1g/cM6zdcvMtsiK7rqsoyuDBg++77z4oBf3ss88SQgzDgLCoLy754qJFixhjv/71rwsLC2+//fbhw4eD/3zhwoWLFy+2bfvee+8F+9tVV12lKMqMGTNmzJgBUWff/e53IQeQZDr7HekPoGbET1EhwJEQIgQRgsNA5lV6kGU57rXwu+3Cr7X9CxIPfFk5HITDYcdxhg0b5rVmgQ8/jjhfhc/nI4SMGzdu7dq1FRUVsBzpoTNODpA3pjJCCMQHQ+gtAF/05yXaKIFUPlmWbdvWNI0xBlsCgQB0DfFeC4/her3a7x1+aAiSDlAz4lEUBWZt8LOUJKm1oxQhcYJBCIExTghh2xZkqGXgjPsughw5cqSiosLvD5C2fi3Jv3rAgAE5OTkNDQ2lpaW9ap1xWnhJfLIsz58/f+TIkZCo6H0UeFMhvYreNTvLOEIIKKVFKYW0W/jrSUh7wOxu27ZhGKc1col2pOQS+hCCiNra2pKSEklinHNGT+9ulGW5vLy8qamJEOIFUPU54NaCb7+4qHj27Nne+oMx5rouPZmMniyCoGacjOu4Tz755D/+8Q/bth3HWbdu3eOPP97Q0OA4rT1HO3xVOBy+9dZbn3322T46bGUQyE1r1cvTHw/z8/O9Kuh9dDz11hmUUs2nwVUwJlFCJSb10YtCshi0TZ2Ey93XX3+9sbFx2rRphYWFjz322K5du77+9a87js3a4na8EQoeW5YVDoc3btyoKArMCuFQsC7x6ldT1ro97uVx9YAhHcGLEYJnY/+bZYMI1Bb05tqndXWMMcGFruuEEKjIlLbTTC+UUnBmxOgHgRZSvc1PgyCoGSfNT2VZvvLKK++99979+/eHw+H169dfc8019fX169at8/v906dP55x/8MEHI0aMaGhoUFX17LPP3rx58+7duyGfQAjxySef1NTUlJSUnHPOOZIkNTc3r1271rbtsWPHDhkypLa2dufOnaqqzpo1a+vWrY2NjZWVlbt37x43btz+/fuhv9C6desmTpxYVVVFKc3Lyztw4MCECROOHTtWV1d39tlnFxUVQZpCdohHrLJCVdcEO8eZ7zjnhLaWrtJUrfekaHT61cTuAI/Bsx17/qc6SHZ870jfBTXjJCRJmjdv3k9/+tOPP/q4sKiwpaXlyiuv/OEPf7ht2zbLsi655JK77rrr+9//vqZpzc3Nc+fOvfzyy++4447m5uZoNHrJJZc0Njb+8Ic/3LNnTyQSefTRRxctWnTHHXf85S9/gZSCl19++f7771+3bl00Gv3GN75RUFBw//33l5SUWJb10EMP/fSnP/2v//qvWbNmffWrX33h+Rf+/o+/L1++vKysrKamZtiwYbZtHzly5Mc//vHNN9+cTaNGQUGBZVmgGafrz4C2E8FgUJIkQXpRHjiCZDH4MzsJSumQIUOuuuqqt995+9VXX50wYcKkSZP+3//7f7/+9a+vv/76tWvXlpSUjBs3LhQKvfTSS3ffffczzzwzbty4l19+efjw4ZzzQCDwwAMPPPnkkyNGjFi7du177733zjvvPPfcc3fddZdpmrqub968ec6cOffdd98ll1wC7aznz5//t7/+bdy4cUKI8vLySCRCCJFkaeHChYSQW265ZdGiRS0tLb/85S/HjBnzn//8JxqNZs3gSAktLS09cuRIa7+g05RCRVE2bdpUVFTUerQsklIE6bVkyeiTQhRFWbJ4yYYNG95///2rrrqqsbHx5z//+dKlS1evXq3rOhQZraiomD59ut/v379//+jRo4cMGWKaphBiz549N91007Jlyw4dOtTY2NjY2Kiq6uTJk3NyciDP43vf+97evXsfeuih999/3+fzMcYuuOCCsePG5ufnU0qPHz+uqqrjOGDdJoScffbZo0aNysvLGzFiRCgUMgwDAoSyZHykpLS09PDhw7que36d5GlqamppacnPzycoGAjSU6BmdMCkyZMGDhxYVlZ2+eWXHz9+/J///OeXvvSlUaNGQbHuUCgky7Ku68XFxaNHj161atWLL74YiURaWlo+++wzwzB+8IMf5ObmCiFKS0sty/rVr3712WefEUIMw1i/fv0N/33D1KlTf//739u2DVH5UI2usLDwo48+evfddznnLS0tMIZCA13I2PJaXsf1gu7TFBQUGIZx+PDh0108CSG2bNkyfvx4v9/vuq7ruqTfxSojSAZAzeiA4uLiyy+//LzzzisvLx84cOCiRYteeeUVx3FGjhz55ptvFhUVVVRUwAh+xx13FBQUrFy5ctGiRYcOHZo8efLgwYN/9rOfzZo168SJE8OHD7/22mtfffXV1157jXMeDAQHDhz44EMP7tixY+nSpXl5eWeeeSb0p8vLy1uwYMH69es3btw4ZcqU9evX+/3+8ePHK4pSUFAwZMgQSZLKy8tLS0sJFNLoQlxqr8RxnOnTZ+zYsQNCZqHZHKS8uK4bl7kC2TPQB/vw4cO2bUNfPyg0AoFGCIKklU4MApACzRirr6/fvXv3jBkzCCHRaPSdd94pKysLh8NCiOnTp+/atau2tnbevHleMOjpxk32Kmzb1nXdsqyioiIhRH19PWOMMUkIDisDQkgoFILypdFoFLpSNzY25uXlQdG9wsLChoaGwsJCwzAMw1ixYsXDDz+8cuXKiooKwzDg5USQxqZGr/A1ODxUVdV13efzaZoWiURCoRDYbcDr7vf7oadp74kR6iagEDt27Ni6deuiRYu8Ihlw83gZbaQtaMpxHMuyWlpaVqxYcd1114Ezo9OAK6RnEEI8+OCDd999N6yh456CB5IkTZkyZc2aNX03NrqPAmOyHtUXXrVw9erV7Z+aO3fun//8ZzD2JgDjpuIRQiiKQgkNhUIwsS0qKoK0cKjOLQQhRIBfQZIkVVWDwSBjrKSkBEoDBYNBSunAgQNramqWLl1aXFz8/vvvz58/v6SkJBAIKIrCGIMI0eLiYmhTats21FCSJElRFJCl/Px813UDgQDYqQoLCx3HURQlm4ZIwYXruqNGjYpEIqtXrz7//PM1TYNMF+inFJe/4rpuY2PjunXrLrvsslAoBNoJ+dJZE3+MIL0ZtE3F4ziOEIILDnnJUKMU+o/C8ASN4WAjjPWUUsMwoDIVZKjpus4YKy4uvvbaawUXX/va1+65557c3FzDMGRZYYxFIhHQISiACF4Nv98PYgCHIoSAusCJtZZ6FSTWXNPXoYxqmibL8tSpU8sHlb/yyitHjhyBlQSlVPDPE7w5542Njbt37165cuXMmTOHDBkCRWFBSBhFwUCQngDXGfFIkmRZlqqqnLuwmICpPWlNPSNCcFmWXcdlElMVFdzUfr8/Go1CazZZluGB3+9fuHDhkiVLINqKMeb3+6EAYjAYBOc2jP6gQPAY6oGDVHgVh0hb0yEhBGOS6zrtCyb2ReDqYD03bvy4ktKSnTt3rl+/fsCAAWVlZUVFRbKs2LZVW1tbXV0djUYrKyuvueYav98PVlPQWsYYoa2fT6YvCEGynGwYd1ILLClIW1Iu/D15MJIIIbIit/1Hgn2g2DUM5Z7bAwz0sbWsvbEejhmXEuw1qvv8zU42Q8H+2SEYpE0gwQYlSdKAAQNKS0tN0zx06NC+ffsglVKSpEGDBk2YMGHAgBJFaf144eVe/BjIrReF7BW0RxAktWTJ0IP0UcBZ6rouaRMAiDw+44wzhg4d6lnhYJVG2rShQ9MchCCDmmaNpiJIbwN/WkgmqampWbVqFdjrHMd1XcdrvgSLBjD9gT/cM9/FJgC2L+PIOV+0aNHAgQPRVIUgKQc1A8kYQogDBw78+Mc/PnHiBAz6qqpCMxLYgbb1K03G7Q++H0mScnNzx44dO2jQoHSfP4L0Q1AzkExiWZbjOIQQxphlWV5cv1cWvv3C4lTAisTn87mum5OT06czhBCk14KagfQosUO/1xHEtm2vH2KHHoskY4slSYK8SDB2pfTEEQQhBPMzkMySTbkmCNIfQM1AEARBkgU1A0EQBEkW1AwEQRAkWVAzEARJO159Yiwl2ddBzVI6S44AACAASURBVEAQBEGSBTUDQRAESRbUDARBECRZUDMQBEGQZEmkGZBvBYXhoFQ1dDvweh7ouq5pmlfgwXsVObnEN4Ig/RyvlCT0K+vJt4ZxjHMOVWrEyfTkmWQKKKvTWveTtZaR7jKJaoe0drMhBKqKQrvN2BJAubm50Wg0tncQgiBIe0AwhBDQf6wnx2uoXAlyZRhGP+xDLoSghEIxt+7XYetcM7wmoxAtB01M9+3bd+DAAcdxNE278MILTdPEjgUIgiSAtmHbtmVZPfm+sMIg8c3T+gswjEP7sqampm5+CJ0P9F5PAl3XDcOAXtahUGjMmDHBYHDjxo2w1OjOSSAIkvV4I0lVVdVFF13UY+ZrGDFhcbNkyZLbb7+9H1rOT5w4ceedd27cuDEQCHz22WfdOVQizfDaUCuKYlnWAw88cOzYMUppJBIJh8N5eXmSJDU2Nr755pszZsyorKzsznkgCJLdwCJDCNHU1PTJJ5/05MDt9Wm+6KKLeuxNew/gU9i1a9fGjRu7bxXsXDO87M2GhgYQKPji6+rq4HFDQ8O5555bWVnppXoiCILEERsdExc4k25gfUMI6UmbWG/Dtm3whJN2zQVoDJ0e5zQ0wxMo7y/4xnNycoYPH+73+1EwEARJQKZClSDUk/TveE6vqUyCryCZz6c/eoQQBEGQroHBTgiC9DQ9Od/HNIA40hhriyAIkg5QMzLLSZ+/IIKcxkfUFc3ATG8EQZLByyDzykl4KV89hqIorutCUoJlWV6uBtAfxjHIgfcc4CTuqimRmAR5f7Bz4gSO09AML1SuK2eNIEg/wwuWgaFjzJgxOTk58BQkZpMYUYl7obfRe+xlksfun8yejDHHcWpqaoqLiznnL730EmkL/vSO07o/obEzbu8gp9ozfv/T2dh6zuSk48P2DjZSEncmrUegn1/45x+FIK37t701F5wxNmDAgPPOO8/LkvFOhnPuuq6iKGdNOMs0zUAgkDLNQBAE6RqFhYWPPfbYtGnTZFmGdIEee2uYX7/11lsTJ04MBoOyrFBK2k99Yzd6j+FB3H/b0zpWJ31M2PlURzvVMWNPJu61J5ma2r0jIYIxdsUVV8CHHyfSlFLHdiRZopQqitJpRQ/UDARB0g7nvKCgAGo9McZ6uIYH51ySJFVVi4uLKaUw5hLSwSAeR4d7tn82bs8Ex+lwzw6f7ZCu7ilAKkzT1DTNizz2njWpGQgE4L+ptE0hCIJ0DRizFEWBkUtRlJ58a0ghPDm9LHaH+Acnv7zjxwmeTf44Hb4ksfm/C3t6Jjtw7XiGQQ9Zlr3Ct4mOCDt3ugeC9BU8ay/nHKy6vYRYY3QPO107dAOk6Y1O5eyklMqy7DiO4ziyLEOR7PSdBjzwanJ7nwDUQOqHdW1J28cClX3bl6OPXVtAnZUEoGYg2QPc+rIsK4rSewQDfIxgJoZOBj05y/akwnGc9hPMlL8XjM6gELEbKaU7duyAawfl6FBBE2hb7P5x7u641/p8vkgkMnDgwIqKCsu0VE0F2xR4etN18b0bTxJ8Pl/7Zz2d6FQwCGoGkjVIkgTjFMxnSW8KzFcURQjhOq4kS4z2nCkfhlGINIXhIH2fCfTXAdOHaZpxz5qmaRiGaZowfLffIYVEIpGmpqYjR46UlJRoPq333AbZAWoGkiWAuQNG55aWFtu2e8mkknNumqbP55NkCUbMHntrbw7eqWOz+xiGAe6K2L47HoyxKVOmTJw4kaTZOgdtnWpraz/++GNMD0gHqBlIlsAYc13Xtu1gMEgIMQzDMAzv2VgLhrcl1sQRe6jEG08Kk2932LiDCyFs2w4EAuCGlSSpB4ZvD8uyIpEIuBC8UrLt7TlJbvEuLfYtvO1CCMuyDMPo0I8qy7Ku697L0ycb4GnnnGualqRTFzktUDOQDONVYO7mfBACP2RZbmpquvfeeyVJSmHvSEhjJidb0klMapiXPtZ+NAwGg7fccsv06TMsy9Q0LW6p4b1ckiTY3ul4Cs5mx7E55/Tz/LD4fSilzz///BtvvKHremzfIRITStTlD6Q9kGx89OhRwTs4rOM4iqJQQl3XlZhEWbo0A5zeqqrCHAL0I03v1T9BzUAyiSzLKZxy0rYunmvXriUpncxCyA0cUJZlsN2DEcZxnEAgAC0s582bV1RU5CmHl3NbVVVFKbUsC4ZvVVVjJce2bUmS/H7/jBkzOo3q0XVdVVXHcd544w1KaYL9KaWGYYRCoVAoRAixbRt2lmW5pqbmg/c/cFwnheOpZ5JijHVYvohSSihJdxNomIJwl/dnj3daQc1AMgmUwYE1Qff74cRlKqVwQLQsC6SCEGLbtvcWEAJk2zalNC8v74YbbpgwYQJUVfL2AaNNMBiE6CnBBZNY3MHr6+sP1xwmhAguqJRI6mDcBx/JlClTgsFgAmkcNWrUkiVLwAcOJwn+nnfeeeett94C5eveB/M5IKskpsERkpWgZiCZxBteocF9h7adLpPCAVGWZVhSQOMaWM0Eg0FYSUAYq2EYP/jBD9qHkGqadtNNN501/ixFVbzXenDOVUUVRIw4c4Qsy8kYbSilqqqOHDny4MGDiRdqy5cvf+utt2zbhjglVVUhBxgkEDK5uvyZxOEZAw3DAB1N1ZGRXgVqBpJJQDBgAj5hwoSf/OQnnq3fC3rxfAZxATneds9MD8SYfUjbnqc8gVMV7Tl5J2I7tizLkUjkkUcegYAcTdO++93vTps2DYKFSJvJPhqN+v3+OLmaOnVqbm6uLMuGYfh8vvYOc8dxVFWNzeQ4Fa7rgtVl7NixnivoVAwaNGjOnDk+nw+WGmCtggWT3+8H5fA+B6+QUewW7yNijHLuucFbn431jbuuyzl/5ZVXXn31VXB3I1kJagaSSbyxjHNeVFQ0b948VVUzfVIdAJkHuq4/9+xzhBDIpB03btyCBQtgtg7GH1VVTdNsfwleFlswGGwfBAyZbkk6peHtvFIciXceNGjQsGHDwPrnyRWIbspDfgUXhJItW7a88soraJvKYlAzkEwCY3EPV6zrAp4NTdVU8E9omqaqKmRWw/gLUtGhUxoGd1gTtB/oT+vyE/u944CkXzg9eOydbeqhhBACC0HMishievtvFUEQBOk9oGYgCIIgyYKagSAIgiQLagaCIAiSLKgZCIKkgLiEygyeCZJWUDMQBEGQZEHNQBAEQZIFNQNBEARJFtQMBEEQJFlQMxAESQFCCKiECGUT4ypOQnNZLHmbBaBmIAiSAiihhmHoug6FeznnUEQEnnVd19AN6BSS0dNEugtqBoIg3UUIEdWj4XAYqodBTS0omqsoCqw5gjlBEAyMxO3TYI1CBEFSwLZt2//2t79u2rSpqKjItm2/3y9JUl1dXWlpqeu6wWDQMAzbthljvb8kJZIA1AwEQbqNIIoiX3PNNT/60Y+qq6s/+eSTc88998SJE/v27bvooos45x999FFOTo6mabZtQwOrTJ8x0kW6rhleGxxKqWmagUAgdWeFdBfoHMc5l5jEBe/hn6ht25xzGBrimgLF/VdRFMaY67qhUMhrsn2qnZFeiyDCdd2cnBxFUQKBQHV19R/+8IeKigrXdf3+AOcu9DQUooNS8EjfouuaQSn1ekNCqxm8G3oV4IqUJEnwnjYfQyc4r5nSqXYDhYB+RNFoNPm2EEgvBLQfGg5OmzaNEDJkyJCqqirbtrx+gjgFyAK6tc5wHAfak1VXV/v9/rgWm6Rtnth+YwInWGw7z7jWnknuf1pXEfuSBC+PeyrJPbt8Pl278Nj9HccpKyvTNE0I0cORKt6NIYQ4duzYqdp8gpwcPXoU9tc0La5RNtK3gMmB1wkcFpqx3aiQ7KDrmiFJEhgTVq5cuXnzZmi4dlpHgGGuyyfQTXrs3TNymT6f75FHHpk9e7am9vTkHVraSUwyTOO1f7x2/wP3J/4EotEoaWvy2oOniaQe6HEL9kaYNACgIkh20HXNgGmFEKKxsTEcDmP8XK8CVhiyLDuuk8Z2nh0BAwcXnFK6/8D+qqqqBDvD2ggaguIt1KeB/uS2bXtSASG2kiThOiOb6LpmgPkSHK1wi+A8MTFCCMhy8qz8MCVXFMUwDFmWUzhoqqpqWRb8bnmP+zNiu3x3usby+Xy6rncYgtl7VAS+Na8TuK7r4M+zbRvdMB6cc2+R4bou3OepvbGRjNMtfwbMXjVNy8/Ph8jr1J1YFuK6rqIoTU1NlmVBfQWfzxcIBCRJchwHpucpeSNKaSAQ0DSNUmpZVg/P8kAkFFkxTKOwsLCoqCjxzpTSUCikKEo0Gv33v/8NiWC9DYgQ1XXdsqy8vLy8vDz4VBVFEVwQiiFeSH+hW7YpSqmqqgsWLPjRj34UCARO15/R36CU6rr+8MMPL1++3HEcv9//ne985/rrr1cUBSz+KSzFY5rm8OHDGWOqqjqO08MhbTDHVBRl4cKFc+fOTbAnTNXhXoJXtfrzCRWk9S8hhBJKKCGCwH9btxDi7RO7pyAnhQN4e8a/sO2NCP18QRMbtRH72PtqHnjggdzcXFhbDxs2zLEdymjv1DkESQfdsE1RRihxHCcUCo0aNcrv96fwtLISIYRhmHl5eRBWJEnSoEGDzjrrrNbwAUEkOWVeB8MwJElyHTcjI5okSTAxHzp0aGK7hFeSKPZvL8SyrFjd9WyMECjca08bQVJON9YZglNCGWNgV0mhaSVb4ZybpmFZFsypDcOIRCKGYfh8vpT7qP1+P3gUXNflnPdsuC0VgkPYTKfRUJDDAeG2vbl6HaQigd/Oy0ME8z3JdAQggvQk3crpgwegFu0zfpE4IIAEVhgQMqCqaqwHNbUfIAzWPb/IgAUDFL5O+iW0lyeExmXAUEplSRbS5yYsJDEwSggiuMuTuSfhc3ZdF9Q68czDMAxVVW3bBjOv67pMYhADgu73lNOtAQW/ktPFS4gl3c7+S+a9UnvAPvHW6SPeetbqY0GSAtK5CCEQRpX4DvG8R7HxV6faGSYclFJIC4VITtAPgnk/aQB9dwiCpB3TNEOhEOT3efpxKkAhYHlhGIamaXGBDLHAwh08TF7QP6SgQ3ld7PKUWlAzEARJM4IIITZt2lRbWyvLsuM4sHo41doaVgaMMdM0g8EgpfSkmmm09ZjwGDxM4BJTVTUSiRQUFNTW1rW0tGA8WzrAzxRBkDRDSSAQcGynqakJ+mpAsJlnpIoTD8dxQAM2bNgwbdo0VVUTWG5h7cKYpOtRTdPefvvtiRMn6rpuGEbar6tfgprRc8B9ryiKlxnr1eSJ/f0gSPbhOM7ZE88eO3Zskjc5aEZ9ff2sWbM6jWaG3w4oTXV19Zw5c06cOAFF8FJ0+sjnoGb0HBCdedFFFwcCAbC0TpkyxasGmumzQ5A0AtEfEpOSiRvwPBNEkA67sHTwEkKJ3Orxhv2hME9qzh6JAYeqngMsuYsWXbVw4ZW2bUPcLcZ1IAjSh8DRqucQQvh8PkKIV2gWioCSmOBCBEGQ3gyuM3oObz0hhIC6sxAmSLI0oQFBkOwDNaPn8GorgU4oikppLyr3jSDp4/P2rkmkr4Izg3POJEYp7TR3EoJxIfUvdvqFP650gJrRc8T5LeDexhUG0h+A6sVccMoptNgi5PMci5MQhDJKCIFCdq7rMiWJukSUMMq8ijX4s0ofqBkIgqQdGMRhHRC3Gmif3O3YDucC+jWBwHSqAV64bW+udJkdoGYgCJJmBKGUbt68+dChQxBWnrjqFHQhE0Js3Lhx4MCBUAq6vVHL0yFYwUMI4t69e9N/Pf0a1AwEQdIMJZTQysrKkSNHQkWQxL0joVmAbdt79+4dMWJEbJOVWNnw0jhoG5yLQ9WH0n45/RvUDARB0g8lubm5hYWFyQQKgjBYlhUKhUpKSjqtq+8V2LYsC3wh6P1OH5ifgSBI2vk8Dzy5nQkhjDHucpKcADDKoKJtrLqgJzwdoGYgCIIgyYKagSAIgiQLagaCIAiSLKgZCIKkHfBJQKO9JN0MnPOkmucK+NNBQwH0hKcDjJtCECTtyHJr2xjHcSWpk7xueNZxHC+INnHPpdhXYQG3dIOagSBI2nEc2zAMzrmiyNDYNcHOnHNQAkjt7rRZgFeMJHGbcSQloGYgCJJ2jh8/vnXr1rVr12qaRtpCb9uvHmCjJEnQoGz16tWRSMQwjAQaA3ngkKLh8/k+/fTTefPmpfdi+jeoGQiCpJ0BAwbMnDlzxIgRUBekNZFCENJW2rnVG0GoIAJ6kdm2TQiZP38+5zxxFSlYZwghsINZD4CakRnAI4hW15TT6mrtCxbtftUBnjFWVFRUXFwMzWMSe6dBP6LRqN/vLy0tlSQp8f6u6wohFEVxHAfWMUj6QM3oUbwpFSHCmz3FbES6jojBcRxFUdJX4tSbzybTDSIOTyqgRQTnXFGUtJxlbwJsTYqsQChUMqsBTdOgcwYkeCfYE56FpUZrgBb+ptIGakbPAQOEEEKWZa+9K2m7s/vVrDMdCCEYZS53KaWapiXjO+0yXkVVGJsYY8m/FxTgI4RITDIsA+fFSN8CNaPnoJTKkkwo4ZzDiAa+Oy+gMNMn2OcRRFBGXdeFQdm2HUrAZn5Sj4Z2PX6It9spDhu/A+QZcM4Nw1AUBep7J3uSQoD9nUscZg/JvxZBMg5qRs8B4YCgExAZQin1Qj5w7Og+4AVdt27dH//4R8uyvI2xH28HPX9ilnodHjbWAOXV3xZCDBs2bNy4cbquQ+ZBkifpuq6maa7rtrS0fOELX6ioqEC3LdKHQM3oOSRJMgyjtra2rq4OBo6BAweWlJQQQqAlWaZPsG/DGLMsi1FWVVX1+9//3rZtCLxJB9A/7uabb16wYIFlWX6/31uEtO/xTilt88yDMnEwT73++uuRSMRxnMTNJLKJBIu5jqHkdF+BpBscp3oU13WXLVv2/PPPw1LjJz/5ydKlS71Y9RQuNTrsaJb1qKpq2zZcu2f9o5Tatt3hXJ5SCksEWALCX+jWAH3i2u8PyxTHcWRZVhQlEAgEAoH2R7Ysy3VdSZI45+09FvB1q6rKGMueXqSi1VUDAQKu63qfIfxVFEUILkTndyN8PqZpMsYIEZSyTuKs2iJ0vZ59iReOSHdAzehR4EcFA4qiKHhPpw/QAxi4c3JyPGEAvLEMNAakxYtkA9mIjU0AIPgn9jgJ3r26utrv95eVlaXtEnsZtDWcjDEWjUZ9Ph98ql54WHNzczgcBplM/BnC6G8YhuM4uq4nftvYL8gzSCLpAzWj54D5aVx5HO8x6kfKEUKcd955N9xwgyRJceMU5/yTTz6JRqN//etfVVWVJGnixIlbtmzhnPt8vgsvvHDq1KkQAguKAplohmG8/PLLb7zxRuIaFRAUF4lEQLfSfp29A0qpqqqO4xBCQqFQJBKBD7YtHsHetm1bTU2Nz+frcA3X/miU0vXr1xcWFp5qmejBGIPiVIqi7Ny5c/78+Sm8LiSO/nJD9wZig6NikwloW6/jjJ5dNiJIZWXlkiVLPCOV94zjODk5Obm5uW+++eYXvvCFcDh8xRVX5OfnM8Z+97vf6bq+aNEin89H2qax3mR5+/btK1euTKwZkGJGaevaJe6tsxUhRCQSgeH7008/9fv94XDYMAyQDUVRpk+fPmrUKG9Z0OnRdF1vaWm5+OKLE5vvYo26lmU1Nzen7JKQjkDN6FFoDIQQzjmMLykZVmAeHWtB9uiHxT6FEJRRmH5CSGvsZ0Ip3bdvXyAQmD59+siRI1966aU1a9YsXLhQVdW6urrm5ubYzLtY25TjOJ0WwoNYuJycYCAQ6CeCQQgRQgSDQcuybNsuKSkZP368oijbtm0Lh8N+v9/z2CUZXgx53eD263St5h08Scsh0h1QM3oUGHe8FcaGDRuWL1/uuu6CBQsKCgq6M7hwzj/66KPt27fHjnSQDs05Hzx48LRp04LBIIyb2eN37YhYSY4b9719JEk699xz77333mXLlq1YsaKyspIx9uGHH44YMWL69OkTJ04MBAI0prY2HIq2peMlBtYWI0aMIKcI7c0+wDD14Ycf7tu371//+lckEsnNzbVt2zItzadpmqbr+lNPPUXaBDWZD0RRFO5y0INOw5G9zxm+IMwDTx+oGRnDcZy//e1vr732WmVl5Zw5cwoLC7tzNErp6tWrH3/88UgkAmNW7IRr1qxZL7/8MhhY+kOlik5hlE2cOHHs2LG/+93vKKV33XXX8ePHp02bxhi77LLLwAfe9YOzz+N8+knmDaV05MiRw4YNe+SRRz777LOWlhawB3phBYFAwLKs00pkQXonqBkZAxLQCCGmaYLRozv+Us65rutNTU1eeA8UKQH9gGkabIFQopRdRh+FEkrZ7bffvmPHjrKysvLy8tGjR8NnBSuzbh7e81SBdSUlp9zLkdrQdR3UArJWPY8OhCFQSjGHsU+DmpExvF8OWL27GWDDGPP7/aqqQlQ7GFJAJCBMxRu8Oq0s3U9gjDLGzjrrrEAgAOIty7JlWeCz7U6eHXzy1dXVPp9vwIABqTvl3o5t26FQyJsMeRUDPWcSCIaXRYH0RVAzMgal9JxzzpkyZUpeXh64+7pjxHBdd8KECV/5yldImz199+7d69at03UdZn/eUgN/roDjOMFgkHNuWRYohBBCkRWXu8mb7zq0tMDG48ePh0KhAQMGJNgnm4BbS9d1WFKAbEB9ckIIxCvDxv5grMtiUDN6FC+sFgJIFi9efOutt6ZktS5J0oIFCxYsWOANRn/961/ff/99+K/r8tb3JZSgZBBCCIGFXfySixKZdf6jgGHx2LFjW7duja1Q4n2VlmXt27cvFAqFw2HPLEPaXB2mYfoD/qqqqpEjR/YiCReEi89D7073tpSYBA4zxphpmrDRtm1PIWzLBtno1KsBLzFNE2pDJs5egtVMbMVP7wjZJ8y9AdSMjAHK4blbu39/x/7C4QcfM6FrOzjO8FKBoiiu67777ruHDx+OtbeAAwlm1m3trxXYCOLkOI4kSbZtq6oaiUQuvvjiTF/K50CxXsMwIDGFnOY9KYiQZdlTBfgQPFRVrauvq6ur8+JuOzkaF6Zl2rbdEmkhCZcmoBlecBpjaHdNL6gZCHLaQAiQoiiKogSDwcbGRl3XXdcNBoOBQECSJFVVVVWFCNTjx4+fOHECipQoihIKhXJzc30+n2EYsizrut5hxaqeByp0hcPh5uZm27ZP18EmSZJlWSdOnAC/d9yzLS0te/fu9ZKHvNDnDot6wcsppRs2bCguLoaoDS+moP3OXjyuLMvbt2/7whewH3gaQc1AkNMGHB5gYzlw4EBjYyMYRpqbm4uKinw+nzeKHTly5MSJE8FgEDYSQpqamlpaWioqKiABze/3Z/pqWlFkZf+B/b/97W+Li4thTDcMI/mXG4ahadrmzZuFEH6/v6WlJfbZYDA4Y8aMKVOmQNpQ4igM2CcSiUQikXnz5iWTnAEPdF1vbGxM/pyRLoCagSCnDVRAMk0TZuV5eXllZWWU0v379x87dqyystIwDL/fb5pmbW1tbij3jDPOGDRokCRJx48f3717d319fVNTE9S77T1hbIKIvNy8iRMnLlq0iBByuqk8XhXIf//733GCQQixbRsKCMJiq9OjybKsqio4M5JxqwghGGVQTzf5c0a6AGpGz0HbKqd6wfucc8EFYa0xJ4mNvPCbNE0Ton0SB5/Ytg1vRHp3mApkpXgmi246hGEoh1GjB3zLiqJAodahQ4eOHj3a5/NZllVbW9vc3Jyfnx+NRqFO34CSAWeccYYsy5ZpDR061LIsy7LC4TAEy/WedBkv7x0edCHa2MsE6tBjoSiKZ5JK5p5UVdXlrTG7SeaBe/c8kj5QMzJGa0gid7nDoYhb+31iB33QjNgWEeTkyPe4F4JsEEJ688zLCyiCMifdPBrID1TkTvf8HcKXYTgLBALeB+5NCEAYwFADl0YZZYz5fD7PZ0tJLyt8m87ZRVfmLjj+9z560/3az3Bdd9euXW+99ZaqqrCAONXwAYbvmpoawzBGjBgBu8W5GeN+kLIsb9++vU+k3cIIC9nX3TxV8OLCqJ2SdO4EgFr4/f7m5ub9+/eDu7u2ttayrIKCAi+QFyqoQz8J8BIbhgHtYGVZJrRXrwIRpD2oGRlDVdWxY8fOnDmz0yITnPNoNPryyy9X///2rjQ6jurMvlfVXV3dLam1b7a8yJb3BeMNG2QMxjZgg2O2ABmbkGQyTMjJELJMAiQhnDmEbORMQmAgJ4shAzNAWIxXbMCMsY13W16wbMsWkmXtUner16quevPjqh/lbqkl2ZJaS90fOq2upV9VvXrffr/q6pdfftnhcHSpkjPGWlpaZFkOh8MxWY8DCrCBQDJB4gThZZwNpe9GM6sv0O5XZMzlcoVCodra2sbGRkJIKBTKzs5GiwhKaXp6ekNDQ01NTWpq6siRI61Wa1NT0+eff66qKujFTBJWE4MOpsxIGuB8T0lJ4TwfMTvwIIemaR6PZ//+/R6Pp7W1taCgoEsPL7zkoVCIMTaQ20273e4//elPbrebXz6sDSPnBP6yOHJyY/Ild5RHIpGzZ892pwLgyoGm7nl5eV6vNxwOC1RIT09PTU1Ft3BZlm02WygUamlpOXfu3IULFywWi6qqra2tDocjIyPDyLhuwsRggSkz+hXGBQKebuM6GL8znEu6ru/YsaOqqioUCm3cuHHcuHGEEF54FX9mQghKBPC9sVB5oMHr9f7lL3+pq6sDTRZnKIqRB3z/+O9jvuEVXiQadCWEIDDei2aHUYBJkpSXl2fsKA5YrVZBEHJychwOR319vcfjwda8vLysrCwcy8sOemtgVwJ+80nf5E0oigLR3qV1hZEoiiKIQvfzpuIrwAfIjR1iMGVG8sC6qG4lUaoJj8fzt7/9LRAIMMZef/31u+66a/To0f040L4CYwwtjBRFQSgiJlzfo/CGcckj0Rx/ni/Qu34qLopQbqfXNAAAIABJREFU8Ox2u9GTDoXQDofD6XTabDZI65SUFOTdCoIgSRJEBUL0lFJUTffi2JKODi28SCRy8eLFsrIycmnDys4AWtzq6uozZ85gbiT4OWyFZ7KlpeXKhm+iCwypyTqUwFVmTdOOHDmye/du1H+dPHny008/HVU0igyI/MwrBdYOrK26rqOJW2cLSrxJ0VnaGCAIgtPppNHOrL0oNji1EVxPHo8nLy8vLy/P7/czxtra2vx+f3p6Ogq8VVUNBAKtra2MsdTUVFmWU1NTOWXkMMkN1TStoqJCVVWwQPLvO3x8SPoQBKGysrK6ujpxaaGR7R8VMH1zBSbaYcqMgQtubm/YsAEKeCgUEgRh/fr1d911V7JH1zvgi6bFYklJSXnooYesVisW986cNp3FKmLECRaRKVOmQGD0rm8K6byCIPj9fkVRCgsLbTabzWbLz893u92yLHu93pqamvz8/LS0tKamppaWFpvNJopiQ0MDnIoulwsr4wApzuhryLK8ePHiefPmdYejECI5EAgQQkpLS+MyPmg0CZcSAr2B6LpmsVgCgQCSEUz0HUyZMdBRU1Ozc+dO0C1gidm7d29VVRVahw52CPQLLtLs7Ozvfe974GsicR7qzpBg9UE0CHGdvliaUYGRkpJis9kmT56cnZ0dCoXy8/MrKysJISj383q9TU1No0aNGj9+vM1mq66urqioaG1tReotnukAT4buFaCvMJKqE6QIAtgT9Olch0i0v86IIOBZDzFH3wDE4Li/vBszwXwiVNM1JL/zVnT83YMOyBcaKJi83ph3DVMUBTFSqLrGXJ0+ugoWrf1u/5eww4cPv/POO0inwZf815H1ZLPZtm7devbsWZ4sFIlE6urqnn766VWrVhlPzg/kS+2hQ4diNg1E0HbvNtJtLRYL52XqRfSR/4dSGggERo4cWVBQgJbXaPOXnp7e1tamaVogEAiHw3a7fcKECfn5+aIoyrLc2tp64cKFwsLCgVxr2euABOX/Jn4iNNoujGcWdDElKBGooGs6JxU20XcYHDID6yAaoKL+tj14KFpg4GM3rDvcU0wMiZv4y6ULGrEhaIazGUks+vpa8EEQhIKCgokTJ3Jt2phPgviw1Wo9fPjwjTfeaLfbW1paQqFQVlYWEv9j7IwYXZVSWl9f3ytFD0MAfSE1KaUow0RxPkoIoaCkp6d//vnnDoeDUtrQ0FBUVGSz2fAUbDYb2gJi7vXR2AYsepQkRillOuvmIZRQnXQlWkz0BgaHzBAEAQ1KGxoaamtrc3JyioqKCCGKqkQiEbvdzo1ZEpUTxsMxk4wGh3E3GqXZIT2c01eOkSNHTp48GQPDimMcM9JFHnvsMUKIqqhlx8paW1tvuOEG3nTPiBhpZ7FYKisru1bQTFwWoILAc6Lremtra0ZGhiRJbrc7xZnS1NQEBcVut2dkZDQ3N9fV1aE4vLq6urGxUZIk3n/XfEAmBhcGh8wghOi6/o9//OPxxx93u93Z2dmPP/742rVrudHAG9oIVABnDpLB0RsnEomgmQGJih+edUOiajiaUPbzCxy/0Bs3wUvDiaONHrb4tSZ+5H2aaz/MgYlns9ksFovH44GBO2LEiLS0tIaGhqamJiRGS5I0atSo6urqs2fPNjY2iqLY1tYWDAYzMzMdDgdK9M2nY2JwYXAE3xRF8Xq9f/jDHxYvXrx58+Zx48a999574Fv2+/1tbW2RSCQYDHo8Hk3XGGO1tbWKojQ3NweDQbBVh8PhxsZG7Iasx+rqahyCYumG+gZk0PfndamqCgoKXWsnhjKCRGlfuQnCS/xgahhBLwWJxnWMvjsTvQU8iHA4nJubi/xat9t94MCBnTt3VlZWBgIBZE+hIDw3NzcUCtXV1V28eBG9NPLz83ln7GGSa2tiyGBw2Bkg03e5XNXV1eFw+A9/+APqnN9+++0XXnhBVdU77rjj5ptv/ta3vvX973+/uLj4Rz/60XXXXffJJ58UFRXV1tYyxpYuXbpjx45f/epX//jHP06dOrVmzZof/vCHU6ZMqa2tdblc06ZN2759+6RJk5599tkYpo1eVAONOaAAckIYY6h3jV8+eJ2wJEmiKMIQ6U7cBYF9blol3plnDXD3HTp0ougMTrx2Y44RNaIioYVHXLhfHgcavx/CvhdcWlpamqZp9fX1aNuHmjJN0xwOh81mww1xuVyo74NaYLPZWJTXduAUgQOapoXDYZ4B3CN5xtOmKaWYRTE7wKHHeSQTnAp3JqJGREs7T3AX+xOqE50xBj6e7o/ZxGVgcMgMOGq+9rWv/epXv/rqV7+alZX16KOPLlmy5Kmnnho/frzD4fjjH/84e/ZsWZb//ve/L1y48MCBA9///vfLysrWrVv3wAMPTJ8+vba29sCBA8FgsKGh4ciRIz/5yU98Pt/hw4dXr179xz/+0e12z5w586233vr2t789adKkPr0WY4ITYqGcQLuz6c7D45ynNsHO7SfXGYL83eRdwAecGVYdljarxZqSmhIKhXA2ZAEpioJhIwzDK+YQ121qas7NzVEURZKkXmE4H4DA80IReFpaGlq0ovQMFeBOp9Pn86mqiug3usDiWNiFuG/9wNneI1BKHQ4HFAhd1ynt/vrbTlvAY4qxmxk7fvw48gW6rJXhs728vHz//v3wMycYM4nmv1BKa2pquj1mE5eDwSEzMC1uufmWefPmNTc3/8d//Mezzz5bVFTU3Nz83HPPZWVl3X///WfOnPnSl7704x//+NixY3PmzJkyZUpOTk5BQcHjjz/ucrmeeeYZvJ+EEExcl8s1bty4tWvXvvHGGwsXLrzhhhveeOONfi4ihTsb0x15Xp3tCfcUxEx3sqHUiMrzd7tckoyGSzAYfOaZZ/bs2YO2EL/5zW9kO7j2whaL6HA4dF0PhUKiKKIpKTMwc1it1vPnz3/ve9/79a9/XVxcPPRYMThw1ampqSUlJTyFmmvEsMNqa2ttNltWVlaMxo0wGyGktra2S427n2GxWMLhsKFpVa+NTRTFtLQ0l8tFCKGUWkRLgl4dMFMURUlLS8vNzeVz3gh2aXtw/jqkpqb21phNdIjB8UojZ/Gf//mfp0+fvnbt2tGjR1dUVGA9On/+fEtLS3Nzc15eXsn4ElmW6+vrf/7znzscDlmWc3Jy8DJnZ2cTQlpaWmpra+12uyRJUF64i4Axhs45/XZRoig2NjYePHgwokYsVkti1zZj7OzZs01NTYcOHUIdQ2KZgRQdbhN0c0iwGMrLy48ePbpkyRLuSdA0TZKsgiCgQ+cf/vCHhoaGX/ziF+hOilISKJiffvrpmDFjMjIyumniDFKAaWr+/PlPPvkk5iFnE8F8o5S63W5JkkAfwn10PGtc07QtW7aAKyXJFxMFRs6nViQSoYQyQmi07JrXXnMw/i9tzwuIRDSUqsScHDkCMOLhskt84bquBwPBnJyc0aNHd0fzgAdVUZQDBw50+4pNXA4Gh8wghOTn5y9YsOCll17629/+pijKAw88MG3atJUrV373u99ljF1zzTVXXXVVXl7emjVrDh48iIRUNDJC+kpJSUltbe2DDz7o9/t9Pt+RI0fgNMDL73A4FEUJBoP9+QLruo42nzabDetyYollES1Q57mQS7AzUpNhanQn+MFXNLyfo0aN+s1vfmOz2axW60svvZSZmSmKYl1d3V133VVeXv7WW2/ZbLbXXnstPz///Pnzs2fPPn369Ny5c9PT0zVNy8vLq6urS0tLwzsMuTLEALNP0zTZJke09igO9A++wIG8lteQ8mNxkxGd6vKh9ydQtb5r1y6v16uqKhIOjUUknRWUsGhfQofD8emne5BLEqPTwLGJz7BrE1w4IiIWa3uIqMuUcUqprjNKGXeOmeg7DA6ZgQTZRx99dP78+RcvXszNzZ07d67D4fjZz362dOlSXddnz56dn59PKf3mN7/Z2NgIi+Hee+9dtGhRVlaWruvXX3/9G2+84fF4Jk6cePTo0TFjxvz4xz/OyMhIT0//6U9/Onbs2MLCwhdffHHChAl9LTaM79KoUaOuueYaxpiuM4slUStj8PdlZWddffXV3XR/NzQ0dNfCYISRL8SG3++vqal58MEH8/Lyfve7323evHnPnj1LlizZv39/TU3N1Vdf3dzcbLVa9+7dO3/+/F/84hdZWVkjR47MyMjYtm3byZMn8/LyPvzww3Xr1uXn53cZzMDdQJCfGVjQjR/6E9y5xMt3jMPgUWusTZIk6ax9N+NqxQM8na2M3NTozhqHaLDFajGenC+7MWPjbE6XEWCnlKampk6dOg0mZk/zF/CSVlZWbt68OZ5+XxAE9LEnl96rzmCMk3VYbsWBO2y1Wvgh3R+zicvA4JAZhBCU2i69aSneUuhu+fn5oNDAN4yRUaNGjRo1CrNq2rRp06ZNw+GiKC5duhSfp0+fTghBVSAhZMWKFfiwfPnyPr2EGA8sIYRG6xBFseu0S3h1YdR3GQPvGSihpD1Ggqi1pmnFxcWI3E6aNKmsrOzJJ5/8z//8zyNHjiBNIDc397e//a3f7/+v//qv66677qmnnqqpqXnsscduv/32MWPGPPPMMx6PJz8/v8tBwjljtVqRGJbM3NOo4Oww2Qxd//hWZDBzz1J8rYwgCIFAQBAE2SbHOO6poYa0m9drsVrgFeQR9WAwCC4DQRCQmMDT2yKRCB4ibx/SfVBK09NdhYWFJOpt69GxhJD09PQOj+LmQncuGTeQp+Qlnu3tJ2R9xRBjIgaDRmYQWKwWUSSiUZUQqMCikToa7a7cpSXbp+McdIi+dRSeOlEUR4wY8fTTT8uyDFGNvDWHw4HUIEVRsIBarVa32z1q1CisWT6fD90O7rvvPpfLpaoq+g4l+GVBECZOnJiZmSkIQkFBgdG/39+PKSo4icEJw8Pa8LDBu9LlwLA+VlVV2e32oqIiUGpd9rggDKxWq6Io77zzzvjx4ydNmtTQ0LBr1665c+empKQ0NjaOGDHi2LFjixYteuGFFxhj//qv/4oWgTGNuXoEw/3oBcQYkd25hxzmCzugMDhkRowj1fiBirGauznDLgMoHuRlGZWVlWvWrLFarU899RQhBCQZVqtVVVVJkiZNmrRnz55169Zdf/31yLillI4bN27y5MmU0quuuqqpqUmSpC6TfSklhYWF69ats9vtoiiGw+G+ICjsEbhvins5MH5FUa3W9lh3lyOklFJC/X6/YCCnuWzAUYYs0ieeeOLmm29+4oknfv3rX7/zzjsvvvjixYsXt2/ffvPNN7/44oubNm3au3evzWbrHUu0h0IjsZrfZQSu++c07YnkYnDIDP7WGadLhzpLd97PxHNueIocnuQOZxTWemReTpgwYeXKlYSQcePGgXf2Bz/4wVNPPbV+/fo5c+asWrVqwoQJaIf3zDPPvPDCC6+//vqsWbOM1F4JYLFYsrOzkY2KFKNkAXowVltfmy+shBVFJYQZK9FCoZDX6+2Ox1xR2/uYwnF0JQMz1r4gTdxisXzyyScrVqy4/vrrm5ubFy5YaLFarr32Wgh1jLa+rj4jM/My3FN9B/7edRl1MFp4Xe4/cC5wmGBwyAwOHtm7El0jWZMsJizJL4GnhSS4KGZga8fJEv+WUa3rjh+As49YrdbHHnuMH2u1WmfNmnX//feLogiCL/Quff755xGcnD59Ou9wMHXq1GeffZYQguAE60Z3PFyUJEn9H7o0TiRKKSFM0zRd12tra6urq5uampxOp9Vq5a0DNU1TVdXj8XTn5KIo5uTkgJDqyoeKm4Nbeu7cud/97ncej2fNmjWSJH344YfPPfdcW1vbrbfe+uSTT8KLVV9f/81vfvOrX/3qfffd16OCwSt8rRIfjmQzRKrjf5cSysglDgPeM8YYC+nQhGKMiYKoM51XciQzMDbUMchkBiHdilgMZPDpjtUEwdUuLXfGGNavcDgMrTPRYsSIIAqCIMiyHAqFuizMign8xrCncPDvKaVcdzZGIODC6uLHOvp10g2Ck14HTw3CzQ8Ggzabbffu3TU1NRkZGeAZXLRoEQhr8YyCweC2bdu6c3KLxTJixAjSG9cFiw25qqjq2Lhx47XXXjtjxozKysqf/exnd9xxx/jx43/yk58sXbqUMaYoysGDB48dO5aTk0MuFQOJ35ru79kl4iezoigfffTRqVOn4MmMZxYJhUIulysUCqWmpiqKgkz0gwcPYkYhf5cXkIuiCBlDCaUC5aJCFMUDBw7ccssttL1I1kTvY/DJjCGDSCRy6tSpDRs2xPSM6hBQML1eLzJou6zp0zTt+PHjqDgxM9Y7BLftcCcVRdmwYUNjYyOi/cuWLVNVFXwz1113XUFBQfcpmHSdodUoIURV1Sss3GOMgYPE4XBYrdZ77rmntLT0iSeeePPNN4uLi/1+/5133ulyuTIzM0+dOkUI2b59+/vvv3/zzTcvuGbBwFGt7Hb7xIkTp0+fjqqUGI0HTjxZlgOBQEVFxbZt2yilgUCgqalp27ZtkiRlZGR85StfsdvtkUgErDZGGxE55fi3rq4+apeQLs1xE5cBU2YkE+PGjbv9ttv5xE7whuu6fuzYsdbW1tLS0u6IAcZYWlrab3/7W5IMFX5QgEUr0SCAd+zYcfHixTFjxtx6662UUlEUVVUdM2aM3+9ft27dbbfdNmrUKGNsPAEEgRIioDb+yiu9NU2TZRmV1VarNTU19aabbnr55ZdfeOGF3//+9zab7YMPPpg4cWJzc/O4ceM+/fTT5cuXT5069dVXX3V73M4U5wARG4yxoqKi8ePGR7T2Rd+4NRgMyrKMJ9LQ0LB+/Xqfz4cAEiHEYrFMnjwZfX87JOjkhnIgELBaLcOqAWL/w1xNkob2xFaLSKOtjxODRMOhWIaEhCDRmhWzMrYzYOmBhXf06NGTJ09OnDhx2bJlNMoIiSiL0+ksLS39/PPPsT+C4YnPDMf9559/Xl9fz0upLxuQXqjMAEtuVlbWV77ylfr6+rNnzz7yyCNvvfXWY489dtttty1cuBBG0urVqxljmzdvvpLf7V3AHyWIAjyc9FI47A4aLaGfPHnyjBkzwuFwKBRCMMNqtX75y19OTU3leWjG90IQ2iNnPPeP/yLiekm86iEJ085IGjD1+crV5eQ27tDlsgXnL/hWexpeHlbxQ4EKHq9nx44d+fn5ixcvRkEJbaeNiu4jCJz3ojsyAE+2ra2NXNpH6/KAHIFwOFxUVPTWW285nU5K6b333jtnzpzc3FyXy3X77beHQqEJEybYbLann35aEISMjIwNGzbYpAHE2oKrYNFK9dgJTAnT28kuMzMzb7jhhoMHD3o8HlgeOTk5a9euRTFjOByOiZlR2p4ALYoiAiE8TEXMxNw+gCkzkgZOHdGdyW0MknNeigT7c+/K5fFsDxCHRl9D0zQq0PPnz/t8vltuuSXatZvyuycIQltbm9VqlWUZ1oPNZkMyT+Izo1A8WpJ2RXYellcUFRqbwM+aNQsfjOz9nN2guLj4Sn60j0CjnL4xMMYnrFbr6tWrX3vtNY/Hg3m4cuVKcIxC8MRXjRjTERFjFwSBEspYux3Zt1c1zGB6LZIJMMHxOrLEOxu9TF1qTzwvZVgZDT0Ctyc+++yzlJSUkpISQogoisg6VhQFdxtVI1BgwSbZHTuDMZaTk+NyuRhjw0P+9iZKSkqWLFmCZG6bzXbLLbfANGm/8+b9TCpMmZE0wIFrrCumCdGuMbEvaLcT72z8oSRd4oAGz5tqamoCNyX8Tkhg489F13WUZbS2tiKns0u9lTEmiuKoUaPy8vJMmX15WLVqlcPhoJROmzZt1qxZvAUkz5IykSyYvqmkAcGGQCCAvJ3EiwsSLnVdDyvh7qi68O1aLBauL5uIAWOMMBIIBHRdz87O5qSBnDIkEokcOHDgwoULqampkiTt2bMnNTWVJ0YnPjnfRxTF3mtcNFwgiuLkyZOnTJly5MiRhx56KCsrC/E53qcy2QMc1jBlRn+DL/eKouzfvx8VW12+CYyxqqoqr9d77ty57jSlYIyVl5dDcR4mehlLQGb3RW+gS7nNBWrs/8N0ht5BPHqkqmokEvF6vYhn+Hw+Y8cL4wdutdBoW3W+CUXOBJaNoW/RsLL/oPRAg4l/UjE6EKU0LS0NvZxXr16taVowGATdQFtbWzwXC4vS16P4EU9Njaiqquh6u++Xh5f6/FKHOkyZ0X9g0T5u+NdiscybN+++++5rb8tzKXdC/LHHjh1zu92lpaWEEF1notiFtvXhhx++9NJLg/0lgWrJdXZEgFCvwMvOcWMR8MeShFUb8kBVI1arJRQKWSztPXwQrrDZbKqqotVKfX09Y4wK7fk2kN9Wq/Waa65pa2s7ceJEU1PTjBkz8vLy9u3bh4HhJNzsAHsjjoVSfOHCBZvNlpubC5MFaT+Q3/iAWPpA05qFaNcQ0sOkI34IX8GNWxVF2bt3b21trSiKkiSh8IIfRQ20OjgcWbM33HDDjh07os2PO9gTylYkEpFtcpuvTZblixcvfvDBB7quX7hwYcuWLcizslqtra2tHdKWmOgpTJmRNOi6LlDB6UwRBCPrUac722w2u93udDqJoaFeAvBy2ctLnRoIAOMenHgWiwVtIXCXIDagWjocjqamJlmW7XZ7OBxGVwmes88Y07QIpxpEUZjNJhPC4MEbOXJkRUUF0tiQcdMeLiLUarWmp6fn5+eHQqHi4mJVVREuItEQOmNM11lbWxukAiFECSs22cYYO3v2LBirCCEQUaCAlCTJYrEa+2cMEIMDuV6GZuCX8tpGO7zGfiaEEMII7rZGCLFYLPE9l+x2+9y5cxcuXIi4EWZvvHlBohYJxOqaNWsgazvbE6ZbIBiAIUgpXbVqVTRd7QuSoUgkoqqq0+mMH5iJnsKUGUmDIAiSTRKEL2Z2grUjPr6deKFhBjKlwZtriDW9oqLipz/96de//vVFixbt3Lnz/Pnz//RP/1RbW/vkk08uWrTo/vvvf/nll99+++1QKFRaWvrQQw+5XC4Qc23evHn37t3f/e530RLKbrfPnj37gQceQOtGUWhPy5k6derhw4dPnDgxc+ZM/C7WLKyDWIDgDOTqM1/rRVH0er0bN26sqqrijEmQB/X19SC9QIaooiiqqmZmZo4ZM2b58uXGUyXvBl8CaPeapimKAtl8iQ1kXLQ7UdYlyYqmT/HuUEoppDUEJ/8y/iSUUkmSYDhy+ssOrbH2wymx2+2oisXD4syGnO4Foro79ZgmuoQpM5IGaMGEEO7+TrC467rO2pcv1p21xigqBq89joXGbrcfPnx4/fr1c+fMfeWVVw4ePLhs2bKtW7du2rRp5cqVb7zxxuOPPz5mzJjMzMznn39e1/Uf/ehHmqZ5vd5nn312/vz5kiTt2rULNXHPP//88ePHf/nLXxYUFPBFPzc3t7Cw8NChQ2PGjElPT4+xzPijCYVCVqvV+IwgOQKBQF1d3dSpU4uKii5evNjS0uJ0OgVBkCRJluXCwkJ4rgoKClwu19atW8PhMMyOgWNhAAjVQJTi33gmwQSAR44bYTGTmUVrV7mJkPhsvLQIwiOBVU2jxTSYLQiV41hIHV3TCf3CkdX9KzLRIUyZkXzAX5/Yg0TpJX4CNBbtYn/Di9o7A+13QF3NzMycMGHCjh076urryo6WlZeXnz9/fsuWLQUFBeBpnzRp0ssvv5ySkvKnP/1px44dbrfb4XCUl5dXV1f/8pe/9Pl8kiStWrXq0Ucf/e///u8nn3zyzjvvvP322/ETlFKn03nNNdds2LBh165dN910Ezzp3PJjjCmKoiiKLMtR/9UXMQ8os4yxvNy8/fv3FxQUzJs3T4toiqqMHz+eUgpfGWNs165dkyZNcrlcoGg1ltoMEMmBBbf8dHnqx6mkE5aUzpyoPEf5/PnzHZq2XNGh3esHhWRCURSDwWDiBiRQpECoA+kCawYGDWNM0zUexwILSzduholOYcqMpAEhXD7j48OhMboYd9B3qKLGO3yNFQZ9dhF9C0EQtIhmtVoXL17829/+9v3336+5WCMIwvbt248ePXr99derqlpbW7t27VqXyyXL8qOPPvrAAw+kp6drmvbuu+/OmDFj5syZXq8XK4jNZlu8eLEkScePH7/tttu4GivL8qxZsxobm/bt2xsOh0tLS7OysgnR4Xk/fvx4WVnZrbfcioSocDjMk6Oi8oOIonji5ImSkpLrrruOGNjd+W6EkMmTJ69bt05VVVEQsa4Zo80DAZB/aWlp2dnZGKFxbLio6upqp9OZmZkZ34ER36SkpHDBEHN+XmDRHRnJxWqXHauMZ4PXixo6rpMohz++NAXGlcOUGUmDpml+v9+YZIKSPRbtFmd862BYIMoHdzMsbkIIDomXGaFQCF8O3hg4IcQqWTVNmz9/vs/nW7du3dixY7Oyst56663a2trS0lIURWZmZkJGKopCCFEUpbm5ecuWLU888QSi4rquy7KM+wZRHbPeUUqXLLlRFIULFy78+c9/vuqqq6655pqWlpaPPvpIluU777wzJSWFGHgpYvz1six7vd7i4mJ07Ua8HUT0drsdlorFYsnLyztw4EB+fn5/3sDuA37/0aNHz5gxg3ZSOoe7nZWVFb/0Q8ygjBFJa/01cBP9ClNmJA2U0rNnz27YsEHXGSGMkzzTjujVdF0/c+aMx+Npbm52pbk0XeMnYYwRQhm7xJhA/wy4WQaOJttTYOSKokyfPn3ixIknTpxYu3btkiVLvvGNb1gslunTpzudzoKCgvfee++OO+6QZfmVV17Zvn37//zP/7z66qsOh+OGG25gjIXDis1mQ0ulTZs2KYoyfvx4pGDxH8Iyt2jRovLy8kOHDvl8vl27dmVkZCxatCg7O9tqtWIFDIfDnXGba5qGtF34DIPBYHV1td1uz87ORvaUqqqyLKMWp7/uX88Auwpyl0ZZZo1A8h4kbocX7iDsAAAgAElEQVSuUe4RHSYlQcMTpsxIGgRByM/PLy4u5omhsU5eQ2qjoijr16+vq6u77bbboPN2AIY/jBBqsYjwycTYK4MLyG6SJMkm2RYtWnT69OnS0tKbbropIyNj1KhRY8aMkSTp61//+o9+9KOHH344JSVly5Yta9eu9fv9b7/99o033uhyuTRN03VNVdWNGzeeP3/+ww8/XL169YIFCzpkykMv9OLi4k8++SQYDHq9XpgsgUAAa2gwGKysrIzP14Trn5draJpWUVHx+OOPp6en/+Y3v5FlGZIb9SL9cucuE9x3hCuKEQyMMbitOiCmJQQOQEJIexTBFBtDFKbMSBoYY/n5+VOmTEGwLkF5F2Osubn5xIkTHo8nJydn1KhR8M4nOHkkEqmsrDQmqg9G8Nuiadrdd9997ty5BQsWOJ3OW2+9dfbs2Q6HQ5Kku+68S5Kk//3f/62rq3vsscfWrFnjdrvHjh27du1aQoggCC6Xa/r0GR6PW1GURx55ZO3atbm5ufG3BWsllOilS5f6fD6eaMtzNzVNy8zMjPdNkWglGjYxxl577bXMzExVVV988cUf//jHmqahGweKcvrvDvYcGH+HloSqqhkZGfC5xU9XHoEAyU3/jdhE/8KUGf0H+JG4pgmSA/6mdaiBIoARiUQOHz782WefaZr24YcfPvjgg0hgT/BbxuavXHkMhUIdx891htAIj6z0W6oV/7lwOBwvBflQRVGcO3fum2++ie9///vfc396SmrKvffee++992KTIAg5OTmvvvoqibpKHA7H3/72V/5vZzFYvhVrpcvlMm5FgFdRFLvdHr8g2u12lGXggTLGxo4de/z4cU3T5syZw2Pd7awk5AsP5EAzATE/O7tFyBxzOByYljFbec1KhwFwE0MGpsxIHrp6rbDKKIoSDof//Oc/+/1+Qshf//rXL33pSy6XC9kg3QSa9qBlDYnLlWSG7gWduar7CKjThrsjcets4/cx+8QHtGP+5fLgsseZ+Njm5ub09HSfzwc2vXA4fP/9948bN06W5Xnz5vn9/tTU1GAwaNQYBh1YlIALVxFRI1apA/+eiSEPU2YMUOAVhUJ3rOzY9u3b7XZ7MBg8evTo7t27b7vtth6d7dNPP127di30XM56xIHEfPzcTTfd9O2Hv22T+yklsamp6aWXXmpqarJarZmZmT/84Q+7NKEGIFwul8fjycjIAOuUJEmapt1ww42EMEVRUlNSQ8GQJEkQioM0oQhaRV1dHSFk9OjRVBhkz8hEb8GUGQMaMDW2bN3i8XgQR9U07b31791yyy09sjNCodC2bdu46ynedQBlXNd15K325jV0DsZYKBR6+eWXa2pqCCHFxcWPPPKIsaXzYEFbW1teXt6uXbuWL18Oo81qtQYCflEUbTZbRIuIFjEUCl28eNHlSk/2YC8fjDGIvQ59UyaGCUyZkTSw9grWTl1UcPGHQqH3338fWTeCIKiquufTPU1NTQUFhV27t6IAqyuc8nC7G7dyhzuyiXgibz8ASjeNtvw0hgoGkU/cYrE0NTV99tlnkUgkMzMTzj0krcqyTAjxerz1DfUTJ048derUILouI3g+BTIC+tOBaWJAwXzwSQNjrLa2try8HJIgZisUf1EUP/roo7NnzxJC4NaQJOn8+fN//etf77nnnmAw6LA7dKZz6wEvMzwk9fX1drtdlmV8Y2R9QPEzVxU5XY8oiqFQqD+5RjjdLE+24b8+iDRZr9fr8Xj8fn9NTc2FCxfAudvQ0ACHGzJTJ0+ePGvWrLKyMhiIg05yoJjR6XSCTWsQPR0TvQtTZiQNSNFBWhSJC+Tquu5wOBoaGk6ePDlp0iRCSDAY1CKaw+lwOBxlZWXXX3+9w+FoaGyw2WyKonAuCpQKrl+/fvfu3U8//fTVV1+NcjZ+ZsbY+vXrFyxYAHpXcE3DW+3xeKqrqgcvP1WykJqaOnr06B07dvzjH/8oKZlw220ri4uLL168KAjCuHHj4NI5c+YM3INIQxiM0DQtJydnUFeJmrhymDIjaRBFMS8vb/z48ahcA2UI34rXsqioaMqUKZFIJBQKffbZZz6fb/78+WCksNvtsCfQjQCdD06fPl1VVdXS0pKRkbFkyZKZM2dOmzbNaFIAZWVl8+fPz83JRd4nd0/7/f6tvq1mcn1PQSlVVfVf/uVfHA7Hp59+umfPnubm5tGjR48cObKoqAhenYKCgk2bNqF2JNnjvUxEIhGUsrNukAyaGKowZUbSgKUEAQb+L98Kwh+LxZKSkqKqalpaWnV1NWMsIyODU+DJsoxE1UgkcuHChQ0bNowYMWL69Okej+fqq68G1RIKMmIUw3YGuqiUEgURZNG8MK1/78SgB8isJk6cmJKSUlxcfOpU+aZNG7OystCsCSUdoiimpKSAXyTZ471MwMnJZ6yJ4QlTZiQT8E2hcoJeSu7Pww9Y98PhsCiIJEoOytvL+Hz+s2fPlpefcjqdd999d319/UcffTR50uS6+rqMjIzoeWh8I9iYfpm8LXY3aUdNGGGxWFpbW8PhcFpaWkpKysyZMyZOnHD+/PmqqqpJkyYpiiJJEmpQWlpagsFgssd7mRBFEdGarKysGMIuE8MHpszoP7Aohzb/BpEMVCTEV6IhWAqCPKvVSgWKiDEIKoLBYF1d3aZNm8aOHXv77bejzHvPnj1r16x95ZVX1qxd88knn4iiyFtBxABhTL7JYrEQMuBERY9UcnppK9L+BHr7EINE37Vr1/PPPx8Oh5977rni4mJCiCC09ydHxhEiSWSAhfr5lIhnnUGeN/qxp6enmwJj2MKUGclHh6sGXy7hoVJVFZSoiFSfPHmyqqpqzJgxd911V2Zmpq7r5eXluz7ZddfddzU0NhSPK+Z039zjFPujcevrQFq7LgdswAg9Xdf37t07ZswYv9+/fv3673znOxaLhdL2B4r0Ni7OdZ3xTUkHKnhYR10uYAcjhGZ6L4czTJkxQAGLBOEKqHiUUrfbffDgwTNnzqSmpi5dutThcCD8cOrUqUOHDn3jn78RiUS2bNmyZMkSzjzKGEua+j1cwRhbunTpL37xC1EU77vvvpitMbo8YzohA2IJRkcvzJx2OsU42eB0OntUTGpi6MGUGQMUyGVijKG3JRrGnTlzZsWKFcuWLcvIyOAioays7PTp06tXr5YkqaysLDs7u6CgwNgDzqR56GdYrdbZs2d/97vfTUtLy8nJiSl/o6S9hSKeUXwQq323rvq9EwMtYOI9uYhKvCeSv1m0T1c8KRkhJC8vTxRF084YzjBlxgAFpRQd30Kh0OHDhysqKkKh0KJFi2bPni1Jkt/vh0P5yJEjZ86cuf322xEnr6ysXL58ubG7uBnT7n+AhcXlcqWmpqI5oHGrpmt4QKqqer1t9fX1A6em2u/3o3wERsYlvJBRdyalFETI5rwanhgok3V4QhCESCQS0wwDCh36/Pzf//1fWVnZ4sWL77jjjn379tlsNpSCp6SkaJp29OjRysrKO+64A9GLM2fOuFyulJQUroQOirea+/cppaLQXi8GJwl20DRNFEVFUXA5SByARgydNz5ya5SafTRmfNB1nTG9zdtWNKpo//79K1asgF1os9nGjx8viqLT6dR13ev1pqSkVFZWpqSk4GHpup6fn797965+ZA6nl5LN0GgM6AtWY13XZ82a1SENMEp5cFd1plMyOGaXiV6HKTOSBmS48lJwXo+tKArIi5qbmwsLC7/1rW8hUSotLa2trU2W5YgaUVTl8OHD9fX1y5cvRzQ1EAhs2bLlnnvuoZRqmm5cMLt0SiQRWPfBhaXruj/gFy1iXV1dU1MT3Otej9ditUiSFAqFIC/B4BQKhRDvsVqt6EPldDoR/uE8en3nQuGrKuJJVKDjx4+vrKzcuHFjZmYmIYTzwYCFXrbJ5afLr7766hMnTgSDQSzds2fPvuqqqwRBGDDBe4YMvWig5ZJpA7nS2NgoSVJqaqpZojFsYcqMpAErDndTQH74/f7du3efOXNm1qxZq1atEkURLd5aW1sZY6IgqqpqsViPHj1aVVV19913o8DK4/GcO3du3rx5OTk5giBYrQNkDeoauAOc7cpms23YsKGxsbGsrOzaa6+dM2fOc889t2LFChClpKWlGcUAEsm8Xu+uXbsOHjw4adKkefPmQfSCriNxK8MrHDYhRNM0biaWlZXNmDHj1KlTFRUVyF+AARSJRFBWWVRUFA6Ha2trS0pKCCW6plssFqvVGggEHA5HH42zR0BOFFdlYrYin6q1pTUzK1PTNIEKQlzRj4nhAFNmJA2IcoN2QhTF5ubmjz/+uLm5edq0aQsXLkT5N4nWZ7hcLkopFagoijt3/l9ra+uXvvQlLI6RSMTpdJaVld1777281m/AGhYdAg0n/H7/K6+8UlpaunLlSl3XN2zYkJubO3fu3NWrV9vtdniojJ4crGuZmZm33nqr1+s9ceLEjh07rr32WjTu7tOFmFdEUkpTU1MLCgra2toOHDhgt9szMzPhPQsGg3BD4aG43e6WlpYRI0YUFxej+IYxpoQVu90+QCrDo5OHYGwx/j3UBhHaHuowBcawhSkzkgb0PtJ1vbm5ed++fQ0NDVdfffXSpUvD4bAkSYRQq1UihEFxhtOgtrZ27969jY2Nq1atIoT4/X6HwxmJRA4cOFBUVMRTcQaRwAC7Iu6DIAh33HFHTk4ORGkkEoE4FEURMiCGKZ2HMUAfu3Dhwtdee62iomLKlClY9fr0PmANBZXknXfeifFDWsA6rKiocDgc+fn5MKECgQDEA5xZ2H9AtbqLCQvFe/bQ2JV/Nt1TwxOmzOg/QDPlr2I4HPZ4PO+++67P57vuuuvy8vLsdrsgCO1NLDQNf2FMEEIURTl06NCcOXOWLl2Kt9pms4XDIZ/Pd/To0a985SskugTjh+DWDwQCvFaDQ9M0RVXQ4AEnx8DgIutPjkKEc6DSgngDLh00/IDrhlKKpQqbvhAGrD0wSwjBunz33XevX7++pKSkH1izWLQlLTWgvZSSEVyC1Wq1Wq1YW1NTU43JSLxoZkAJeKOgjR+YIAh5eXno/hsOh02ZMTxhyoz+hpGu49SpU0uXLp06dSp84sa3VBAEt9udnp7udrvT0tKCwSCi4h6PZ9u2bUaPeWVlpaZpW7dujXnJjxw54nQ6Gxoa4jkKd+3ahV4IWPiwlkFgtLW19X/2PV+qcF1bt27l7TSMScMxH2LYQhAPl2XZ6/VmZWVxPo++GzOXTFxDbx8b/SJXlXt4INX44R3mJiUdCQQGibbG0vV2faV/h2ZioMCUGUmDpmmLFy+eOXNmKBRCLlAM0tPTVVXF3/3792dnZz/11FNYGRE6ppT6/X63271q1Sqn02k8Vtf1jIwMm802derUGGlECLlw4cLChQsLCwuRq8qbHXm93p07dybRvW61WlVV3bx5c21t7erVq3t0LLLLsrOz6+vrXS5XcgmRRFHMyspCw6skDqN3AUEoihSGVLKHYyI5GDoTejAiHA5D06eE6uySHsvGCoBt27YpinLTTTfZ7XYSVcZ1XZckaceOHdOnT8/Ozu7wHbZYLOnp6fFNcqxWa4ozJS0tjUQXAogNp8OJzJm+u+TEgJc8Pz9fkqSearKcRA8uvr4u0Ug8EkEQ8vLyUToy6FISOgSCN21tbRaLxW63i8R0TA1TmDIjaRBF0efzIcGRkdiQoyAIiqIoirJjxw6LxbJy5Up4kGGUIDDe2trqdruXLVtGL+VRJ4QwxiRJkiQJ62a8u4k3z4AiLFCBEaYzHWKsb6+8cyiK4nK5vvzlLzPGTpw40dPDI5FIU1PT/PnzRbGdRLYvBtklICQkq5V1u2H7wAfmWHNzM2MMTL0mhifMhLn+Bo8wa5qWmpoqSRIy31GhhsQb6HSU0g8++MDpdC5cuJAxhjiwLMtgutU1/eDBg9OmTUMCTwzwQygggKobs5W74Nt/XdcYY4Ig9rNLh8eEkY0aCoUIIRMnTiwpKUGqMXIBMMj4q8CN4td7/PjxtLQ0pJkl0SnUXt6va/z+J2skvQvjhRgp/U0MK5gyo//AM5rwL//MGesaGxvhRwoEAqFQ6LXXXsvKypozZw5iFdzLgX0aGhuqq6vHFY/jIVYjSNS7ZQzSxm/lm6Lh3HZx0p/3hI8hEom8/vrrbrdbURQUQITDYc7OzfRL6k4QXuZ5aODaOnny5MyZM3EUssKSAqQnnKs4V1dXJ4rikOmVyyuK+rTG3sQAh+mbGiiglObk5BBCvF6vLMsbN24cN27crFmzZFlGSTOWHq5fHz16dMGCBXaHfVC7y6GuYvypqalLlizZvHnztGnTsrOzCSGCIASDwUAgkJ6erqgKt8mIQWZEIpqmRQ4ePFhTU7Ns2TKXy4Ue6UlM7IHE8ng98PUNmRQjSmlubi5SMAbvlDNxhTBlxkABvFK6rsuy/N5772VkZMydOxelFSiTJoRwN31bW1tra+vSpUtx7OB9gduri6NEICNGjMjPz9+zZ8+bb76ZkpLy7rvvlpeXP//88+PHjy8sLEQmGOyqSCQSCATAzeV2uydMmLBixQq73Q42w77mmxqG4AWM3NU5eGediSuBKTMGCiAPCCGvv/76lClTpk2bBrcGL1OA2GCMhUKhnTt3Tps2TVVVWZb5sjsYYSxcZ4zZ7XZJkm6++ebS0lKLxeLz+e677z7YE8FgsLm5ORQKGXfOycmZMmWKzWazWCyRSARVJqgEjEk+7k8gQyE9PR0Et0NjeaWU8q60pp0xnDEUZAbcrPg8oCgNeAQiZk3/ogSMUO4jhhN/w4YN48ePnzRpkiRJiqKAs5YfpaqqIAgNDQ2NjY3Lli2TrBIjsfV6vYB+F0D8hiiKYrPZrFYr+LVSUlIgNS0Wi8vlysvLQ2CD0EuEDc4hSQJC36qqgmik3+yMGKkA8T927FgWx9o0eAHbwufzoXCyr0smTQxY9JrMSKKqyxVtxIcHlAbEleJ4a0AUxUAwoGkaFkpVVf/0pz+VlpbOmDEDLHuoxuBgjMDyOHPmzIIFC9BikxdCx9//mBSj7iNGDvXu/TSe2Zj+xHOfYn7UyALSLlo6FgSMRPOGsZbFi+reHXyCTYwxjIRFm3kkvofJmrE9uj94Rk2NTSmpKSBESXB4X9x8EwMEQ8Hhyxgj5Asf68BJU+Ej4emwMVtdLhdrp40Kb926tbS0dMqUKcgUihEYhBC8trW1tW63e/z48f1yBSYuB3jQqqoOsYRUSmkoHMJnM1Y0bDFEfFNoMgFWPjgEkj2odqBxUDxLICEERXnw2vMsKV57EX8q6G4fffTRrFmzhhIjxdADzMGLFy/KspybmzugDN8rBGy4yzBeTQwZDIWlJxKJnD9/Hq3cHA4HGvgke1CEEBIMBkePHg1C03gxpigK/MJvv/327NmzS0pKKKexox0010OOkCzLJSUl/XYJJi4Pmqa1tLSkpKRkZWUNjXgGZmN+fj54beM6xZoYLrgimQGlHnp9l07bXgdfVffs2bNv776s7CxQMGmadgndKWGUUPzl3xBjJMCwKfYnONU2oR0eaPyXf8MLzZqammbPnr1o0SJCCNMZI8xYjiAIQjgcfueddyZPnjxx4kRCCDpnIFUUdWHGwYiiuHfv3oULF8J26dI5gCfSodXFn1p7HIhQTdf498afpn1Av4rzG8tNAE4EO0BEvhH8ZhpvO+4VTMOY/Vm0vUf85bTP2y+I3KkgJPL+GzMpOsuquLz9eZoAPvCIPY8OxuyP/hlI1mBxDTZ4aIqY8YwhjcuXGXzSNDQ0bNy4MT09nTcvi9+ZdlT/TDqZWzGFyvEn4UELvJZHjhyZNm3ajTfcKNvlzo7tH4A8iqfKHD9+/P333/f5fPgXrVvr6uqws6Iob7zxxoMPPigIws6dOyHw+Km4ROQfVFU9cOBAfn7+6dOnqYFgymiRMAOp+MmTJ9PT09GIIobBoq6u7vChwzU1Ndybhx6llNJTp06h2zP6b8+bNy8vLy/mMq9kTccjq62tPXTokCiKFRUV6Gen63ooFPr444/RFD3x0tOdJalH08z4i8Yv+WdZlhVFaWtrq6qqQgNzURSrq6u3b98eDAZBS8x/AtwhNTU1Dofj5MmTMRIFDy4YDObm5oZCoVAoZHzu/Qn0EASxo81mCwQCkUjEbrcrigKTl0vK+GM7vL2iKJ4/fx4RctDAmBh66PrdQ/ZqU1PT8uXLjxw5wl2ZUEzg38Qq2VnEL97N0hl6tCcx5Gg+9NBDv/rVr2RZTm7ZrZFcgVL6wgsvPProo7AJ0CEDHEqUUvTdi0Qi6OEKw4J0tBzzB4S+2ampqYqixGRwxqc5UUpDoRCyyGB7GRdHZPG2sxNGFUxsCoVCPFUpLS3txRdfXLVqVYxGeSUyAyN56aWXvv/972OpCgaD3BLqTGHv8FQxm/p0Ty4/jGo7jRJ24R7yA/n3SLqNtwgppRaL5Qc/+EEgEBg9ejSW1xhJadQDjAfGfxlzZuPIY46NGTx0BbtsV1QlEAgcOnRo06ZN3ZHHHd5AnuaO+c9XA+g36enpmzZtmjNnTl9Yrib6E5dvZ2CVweqT2J/Q/flxeTPJYrEcP378zTffhAxD72jS0UvCD4l5K+Lfrs72TDBgxhiKkKE1u93ukydPEkJQXoCcWu6QoZRCfoRCIZTmddn4DJVibrcbuyXOycFSxRgLh8Pxe1osFgwGKzhMDQw+NTU1EAjA64Ieeb1b6BAMBmH3QFLCyFBVlTAiWjpI3+z+vOrTPa1WaygUgoQzzihKqd1uD4fDMQfCYdXh3YNLMD09/f777z916tScOXOSZWeQaP7I559/Hg6HHQ7H1q1buUmaQHh0eAPx3vFmWSaGKi5fZkBRxdIDxbkXh9V94LUcPXo0nGMlJSVJJI2AXskYa2hoUBQlMzMTtwgvEhQuePPhu8c7hk6ZLEpq2xkgaXgX8S7fTMaYqqq8vNwIrAtclmAHyA+fz4dqaiyIqK27glsSC1mW8XOUUlw1JxMcOMkL8cBQeaSHx2MIIX6/P37YXCfAEzdugiyHBGpsbKyoqLhy8+jywDWYtrY2OJQwtfg4e7T6Q/xzk8uUHEMVPZAZMUoHTNF2JTGpNX2UUqfT6XA49u3b5/F4bDZbsvLiWbQwzefzybKcnZ2tqioPhxJCEDPg8QlEvHmpc2KZAS85uNC78z4bOdJjNiHOyR1cRkc8d7+IothhhUFn+QLdBDO00cZ6Sg2B4njnyZX8Vi+CW9UopsGXfITx4+QPKF5m45IVRSkvLw+Hw5mZmcnStyD/8P6eP3++qqqKp0WQnifUYsLEzCgj+IztdeFnoj+RSGYwxngTR+6iNe7ANcTkvtsWi6Wurq6urq64uLi4uDgcDie3d0IoFPK1+T6v+vzChQt8KeQiAeoqdsYNxL9dLhy4+d0PLXJ+qg5PRaO5W7A5jN36WLRJuNVqxQToxTecG1g8AGZMoKJRVnb4dpLIZx4DvoBygUESTvsYGy4GCDI5HI7ly5ZbrBZjqlL8ehpvbcScKsGY6aWR6pgdeBgyMzNz5MiiiooKSBGu+nR25g7R2TRm0Qy9SCTC1aMendnEgEKih6frTBQFLdKeDTWgtAPjEqNpmmSVpk6dGolEXC4XnMvxeiuJCzPyL40nNAY/Onw/E3zJGEP2enZ2dnZOdlVVlSAIMMXi+JGSCaPdw5+s0S6Bx0zX9e50muv+Kkaipgy3t2J2htziPTMGyO3qdWAZLS4uzsvLS25BNTfyFEVBG2Bjit0V3n/jSyqKIjiJe1cFMdH/SCQzkDYOvcCogAwcYHiCIKS50saOLbbZpHbtOEmA2o5gsiAI+/btQ/4+3smBc/f4SHjKMo+m8FcaCze3jRKcLV4vTvzr0LKR0NnhzvhRRIa6f1GDCJRSztae9AWU23YxQbLe8g1yLyge6EC4ZBNXgi6MRMYYMjUVRZEkCSRInSnaHWr08XvyM8fs2Zkd3WGOk1GF0XU9HA6fOXNaFMSwEgb7dDevv3dh5C23WCxVVVWyLCMBHwlmMVfdoYlj3Gr8SxJq9D26nzySAV4TvMlQ7ZEFB9tIluXKysry8nLjIyZx3pIEMoNdmjPKn11dXZ3dbo9xU2ATFhfkJXd4Hzq8UpJwBnbm84l5fJ2tZV3u2c2f5qPVNE2W5QMHDjQ3NxujSl0OoMMd4m9yhyfp8Jx8eJqmNTQ0INQUw5MWf1Ed3oeYPY2PjHei5I+4OyM0MTDRhSrBHQXhcHjDhg1utztm8epsLYs/bYc8fVe4J5Riu93u8Xgg3sAgEuMgjhlnYm9V9/eMPwphbTh2IpGIJEnhcDgYDGZmZobDYRRkYMxGBT/BbaQd5Z/E34qe7olwgqIodXV1kiT5fL4RI0Y47I5QOIQmd06ns62traWlxWq15uXlJX7J+U+waOFOgp0JIZqmnT592uVyZWdnxzxoTdNCodDp06cLCwt9Pl9xcTE3ejqcEiTuSRn37LsHHX+qDvfs8EHDzPL5fDabDfZostZQaDYsWp1jsVh8bb6U1BR4LI3R+yt8T3GBK1euzMzMhFJiio3Bix6Yn/Hzw8TgBaVUUZSPP/74qquu2rdv38033wwFkzNhaJpWWVnZ2tp61VVXxbzhMVokTmW1Ws+dO1dYWIhFkOdcxq8Ouq7v3r177NixhYWF8aPy+/1vvvnmihUrjh07tmjRIpM/dWjAfI5DBj1LYOim2WtigAOLPvdfx6uKvJrE6/V26ICmUfISXoWwd+/e73znO8uWLfvhD39ot9u5LyLxSGLOjPBPJIr4HUyYMJFc9EBmmG/vkAF3+NBOiBxgIthsNq/Xy+JyPfEvov3IiH3//ff/7d/+rba29uTJk16v9+c//7nT6WSM2WV74syrmJ8WLgWMmN66ahMmTFw5TINx+IJSocM4CqwQRVHsdrvP54vJuI8JZfl8vnfffffRRx9taVR/+UEAAAIpSURBVGmBE/wvf/nLv//7vzc3NwuCoLOe5fgjDs9xRZdnwoSJPoBZXDN8oeuakSuCRGu8KaWiICqagtQmJFDxfeCSikQiomjx+do++OCDRx55pL6+nkUZI3Rdf/nll9va2p599tmMjIyOGg52Cm5btOPKas5NmDDR6zDtjGEKngR5CQ0Jjea9UGKTbbIsS5LU3NxMojUTehSCIEQi6t///vdvfOMbdXV1PCQOuhFK6dtvv/29732vubk5EAhwDhIjEwnrqLGH0RnFGOtORaEJEyb6E6bMMBELLNzIV544cWJTUxOcTvAVYaGPRCJ//OMfH3/88dbWVh5RJ4Sg3Bf1em+99dbDDz/c1NSEghUW16XHhAkTgw7mO2yiA3CuqpKSErfbHe3I1G6F+P3+X/7ylz//+c99Ph83VvixqDmAmNm2bdvXvva1o0ePJu9STJgw0ZswZYaJDsCrK2RZDgaDPp+vnX6KMY/H89JLLz3zzDOMMVmWeU4tqGpR4UyifK42m23Xrl0PP/zwwYOHeN8nEyZMDF6YMXATseANUSAn0tPTA4GA0+lE646NGzd+8MEHM2fORHcmQRCCwWB5eXlbWxsOV1V1woQJWVlZoiiibaKqqq+++t+jR4/Kzs5OYn8hEyZMXDlMmWEiFnA0gerRZrONKx639f2t9913HyIWd9555z333GO0GHw+35IlS06ePMl56B555JH7778fcRHONWSS05kwMQTw/xFbfBvLs47qAAAAAElFTkSuQmCC;rotation=0;" vertex="1" parent="1">
          <mxGeometry x="230" y="20" width="529" height="692" as="geometry" />
        </mxCell>
        <mxCell id="2A0srAFayTk-dAzB0zZN-3" value="" style="shape=image;verticalLabelPosition=bottom;labelBackgroundColor=default;verticalAlign=top;aspect=fixed;imageAspect=0;image=data:image/png,iVBORw0KGgoAAAANSUhEUgAAAbsAAAFUCAIAAAAyGQUeAAAACXBIWXMAAA7EAAAOxAGVKw4bAAAgAElEQVR4nOydeXgUVdb/7621O70k6YQsJJCFJGwZQgiruACC6MjioCIi7gruzqjg8qrviPjOuPxEZ3AbGJcBRhQdFRUEEVHZhl1QZN8CSci+9VJdy/39cZKyTSBpIEl3kvN5eHg6SXXVrapb3zr33HPOpYwxgiAIggQBF+oGIAiCtBtQMREEQYIFFRNBECRYUDERBEGCBRUTQRAkWFAxEQRBggUVE0EQJFhQMREEQYIFFRNBECRYUDERBEGCBRUTQRAkWFAxEQRBggUVE0EQJFhQMREEQYIFFRNBECRYUDERBEGCBRUTQRAkWFAxEQRBggUVE0EQJFhQMREEQYIFFRNBECRYUDERBEGCBRUTQRAkWFAxEQRBggUVE0EQJFhQMREEQYIFFRNBECRYUDERBEGCBRUTQRAkWFAxEQRBggUVE0EQJFhQMREEQYIFFRNBECRYUDERBEGCBRUTQRAkWIQQHtswDMYYz/OMMU3TeJ6nlIawPUhLYRiGYRiUUp7nFUWRZbn1jqVruiAKfr9fEATCCOWwC3UcFEXheV4QBEJImIgDZYyF8PC6roNiUkp1XTcMI4SNaTkoIUFe1bbZsq3bw3Ecx3HmDaWUtl531zRNEARQZ0KIqqqtdKDT0dlv9LluGRSKogiCIAgC3NkwUcxQ2pi6rlNKwcBUFOXo0aMg33BpQEZNQW/8ucEVbCz9Z7rEzW4Z5KHN1jb+a+D/jY8YeLjGR2mww6ab3UTDGhyuiZNq2YbBZqqqWiwWRVFkSdZ0rfEtC2ztaf9KznCjG5+LYRiSJFVXVzscjsDG4I0mrXyjyW9v35kOfW5PtCRJGRkZJOD6kzAglIrJ87yu64QQQRA2btx4zz33lJWVhbA9SEuh67rD4Xj66aeTk5MdDoeqqq03lOE4TlXVwsLCZ599trS0lOPQNd8R4Dhu0KBBixcvtlqsjLDwua2hVExVVcFDAW6vgoKCqqqqELYHaSlkWVZVdfjw4WlpaYy1bnfXNE0UxUOHDtXW1paXl3cUx05nh+O4yspKQRB0QxcEQdd10IqQE8pGiKIIpgdjzPwQwvYgLQXM9mzevDk/P99ut7e2ilVUVFRWVmqaBkMWpAMAL1qOciCUYSKXJLSKiXRUIAQiMTGxqqoqIyMDgiJa73C//PJLenp6+DxUSIsRFq7L34CdDGl5JEmilMbGxh4+fDg/P79V/ZiEkOLi4szMTFEURVFs27lypNOBiom0Crqur1+/XlVVRVFqa2tbzwA0DEPX9V27dpWVlYH/tJUOhCAEFRNpDSAfIScnJzMz02q1+v3+1jsWx3GDBw8uLCx0Op0FBQWtdyAEIWGumIwxQRBgQCdJEpoPYUuDQTdMjsuyHBkZyfO8xWJpvWA6iOMrLS2FnDFKqcVi8fv9jDEzqYzjOJxUDEMMw+B5HkJlQt2WYAlrxYTUkSlTpnTv3t1qtQZGwJ42LjeQJjYI/rvNbnnafTYO5Q3cjFJq9o8mtjzt/oPZ/rTB1a26Pcdxjed2CgoKUlJS4GRbNbrIMAxBEGJjY8eMGZOYmCjLsq7ruq6XlpYuXry4qqqKUpqXlzdhwoS6TMpG50LwRge3Pbx4zhRgH/yeAcYY3Kk33nijvLyctJNQmbBWTFmWGWPXXXfdiBEjRFFskELQNKfNFWn2Tw02C/5YwWzZII/iTM1onG4R5JZNNKNB6kWD/TfYMvC4wWwJ1lyDzb755ptjx47Z7XYSED3WdO5H41STM8lZ4G94nldV1efzXXrppZdddpkkSaIoEkL279//6aefgmIOGDDgj3/8IyEE8imbuDhNgze6ic3O1Iymt3G73R9++GFVVVV7iQwLa8U0DENVVZ4XJEniOC5M0qSQxjQYVVFKhw0b5vF4KKUcx2madlrz4UzWWbOGT+BvOI6TJMnt9iQmJtpsNshB9vv94MYB85ZSDmQU/oqEBYwwwuCF19rxZy1IWCsm1OkgpM6EwYC7sIXn+cAiDH7VHxkZ6XQ6dV1XVc1qbUU/JvSN6OjowLG/KIpRUVHQMMMwdF1T/Sov8NiFwghKCCO6rttstiAH8uFAWHegurI0hMIUUKibgzRJgCRKkkQIAQMTjLvWo4GTFDwAlFKv18sY0zQNXIqCIPACGpjhBbztoCIP/B/qFjVPuOS3N0U7uIxI+FJnudBwKX6DBNJeTEuT9qCYCIIg4QEqJoIgSLCgYiIIggQLKiaCIEiwoGIiCIIECyomgiBIsKBiIgiCBAsqJoIgSLCgYiIIggQLKiaCIEiwoGIiCIIECyomgiBIsKBiIgiCBAsqJoIgSLCgYiIIggQLKiaCIEiwoGIiCIIECyomgiBIsKBiIgiCBAsqJoIgSLCgYiIIggQLKiaCIEiwoGIiCIIECyomgiBIsKBiIgiCBAsqJoIgSLCgYiIIggQLKiaCIEiwoGIiCIIECyomgiBIsKBiIgiCBAsqJoIgSLCgYiIIggQLKiaCIEiwoGIiCIIECyomgiBIsKBiIgiCBAsqJoIgSLCgYiIIggRLKBXTMAxd1xljHMd5vV5BEBhjhBCe5wkhjDGr1cpxHGOMUmoYRgibiiAIQkKrmIwxgRcYY7quc5TTNZ3jOEqppmmgkj6fjzGmaRohhOPQHEYQJMSEUoY4jiOUgPHI8RyhhBBiGAalFPQRzE+O4ymlfr8awqYiCIKQkNuYjDFRFAVBUBSFEGK1Wi0WC8/x8EtRFBljNTXVZWVlPI82JoIgIUYI4bE5jgOLUlXVxMTEP/zhDx6Px+PxxMbG6rpeXl6emJioqqrVav3ggw9uvfVWp9MZwta2LOCxpZSaH0LdIgRBmieUiknqJYPnecbYM888Y7PZVq9enZ6WLsnS4cOHL7/8ckqpruuLFi0CZekA6Lqu63pJSYlhGHBSjLHY2Fir1UopNXTDYAYhpKyszGKxEEIMw3A4HBzH6bquaVpERISqqoIgaJrG8zzHcX6/Hz4wxgzDgIupqZogCj6fT5Zl8A4zgxFK/H6/JEmEEfCBgMtYFEW/3y/Lsq7rlFKQbxTxVgVsBUqowQx4CuCCw81Fr33YEmLFDITneUEQZFkuKy9zOBxOp5PnedMK6zBQSg8ePHjnnXeWlZUJgqDrOs/z8+bNu+SSS1RV5Xle1/TKysoZM2ZkZ2dHRETs2bNn3rx5Tqdz+/btSUlJoihylCssLCwvL8/IyIA9iKJoip2mavkn8r0eb89ePSVJMkXZr/olSQJHh67rglB36+G7kiSB2uq6DttDxALSqjBS17cpoYQQuJUdrMN3MMLrVaaqqiiK3bt3T0lJ6ag2jq7rLpfrwgsvTE1NPXToUHx8/KBBg+Lj48HoMAwDXhuXXnrpwIEDBwwYMGzYMIvFUlRU9Oijj65fv94wDFVTFy1adOONNxYWFhqGYbFYNE3z+/2qqjLGGGGPPvro4n8v9nq9hBBN0yCKSxAEj8cDtgzP84qieL1enudVVaWUg6+rfhUeV7Rx2gBVVVVVhVGUwQyY54Q3X6ibhpyRMLIx/X6/0+lkjHk8nujoaEmSQt2iVoHjuOjo6GeffXbt2rWbNm267rrrrr766h9++EGSpKSkpBP5J7bv2D569Ohhw4bt2LHDZrNdc801fr//66+/Pnbs2JYtW6Kiolwu13fffed2u7ds2VJeXt6vX79169YdO3YsMzMzOzt71apVR44ccbvdq1atuuKK369b94MkSUOHDt21a9e+ffuuueYaQRD27t27Y8cOv9+fl5fXt2/fwsKCTZs2FRUV9evXb9DAQZIs4UPb2hiGYRiGpmlgJYBTBcbjaGOGM2GkmJIkwfBQkqSampoOHLIuSZKmaTU1NRzHCYJQVFT02GOPDRgw4B9v/ePe++4tKiqKjo5++umn7Xb7zp07R4wYMWfOnH/9618FBQUff/zxsWPH+vfv/+OPP1ZVVT333HN33HHH6tWr586dm5WVdfTo0RdffHHlypW//PLL8ePH3W539+7dn3zyyfj4+HfeeWf+/PnLly8fOXLk4cOHH3jggZKSEo7jZFleu3bt0qVLP/roI4/HU1RU9Oqrr06aNCnUV6iDwxg7ePDgE088UV1dzRiLiYm57777Bg0aRAmlHMXXVTgTXoMv8KPBXAT8xpyI6DAvXvDMGoYBHitN0zIzM4cOHbpu3bqvVn61fv36W2+9NScnZ9myZW+99dZ99923YcMGn8/30ksv2Wy2WbNmLVy4cPr06ZdddllycvKnn356/fXXb968OTEx8c0333z11Vd79Ojxt7/9LSMj48orr/z888+7devG87xhGDDcI4QoivLiiy9ardavvvrqjjvu8Pv95eXlM2bMWLJkyb///W+O43bu3KlpGj60LQ77LV6v96effjp06BAhZP369ZMnT96/f79f9RsGgylBxhhkcJjeFcYYOF50XVdVFUxUyO+A7Q3D8Hq98HXYHp4mwzD8fj9YtfAjPE0+nw82CCS0Vyn8CSMbs5MA+sVxnMViASuPEHLVVVctW7bs9ddfj46OvuSSS06ePDljxgxKaVlZmdfrhRRSiFHlOM5ut+u6DiJos9kefPDBF154YerUqZGRkXPmzIFRHvg0BEEwHxLz85EjRzIzM7t37x4REcEYi4yMnD9//jvvvON0Or1eb35+PiHEnLpFWgmO49xu99VXX/3UU099/vnnDz/88KZNm1wu165duyoqKnJzc9PT048ePbpr167Bgwfn5+e73e7+/fuLovj111/36NHD5XL9+OOPWVlZaWlpW7dura6u7tu375YtW7Kzs1VVPXXq1EUXXVRRUXHgwIFevXodOHCgvLx88ODBe/bsqaqquvTSS9etW8fz/ODBg10uV6ivRDsDFbOtAauZ53ifz2cYBsyPX3zxxTk5ORs2bJg8eXJqaurrr7++d+/eBQsWrFmz5uOPPyaEOJ1OURQLCgrKy8udTqfD4dA0vaKiwuFwMMZuvvlmq9X6wAMPvPrqq//4xz94ni8oKKioqBBFMSIioqqqqrCw8OTJkxB4lJCQUFhYuH///uLiYrBT3n//fZfL9cgjj9x4440goz6fz2q1hvpSdWRUVZUkSRAEi8XSrVs3RVF8Pt/HH388f/58+Lxw4cLCwsJ77703KyvL5/OdOnVqwoQJd999z2OPPWa1Wu12e3FxcWxs7EcffbR48eKPPvqod+/e+fn5t99+u8fjeeeddzZu3PjDDz88/vjjr7/++tdff71kyZK8vLwDBw54vd7LLrts+/bt5eXlTz311IwZMzAo4qwIr1F5Z4BSqms6I4zjOFEUYdQcFRX10EMPybJ8ww032O32rKwsWZafeeaZ5cuXU0pXrlwZHR2dl5e3YMGCu+66q6CgYPDgwYWFBTfddNO8efO++OKL+++///nnn6+pqcnLy7NarUOGDNm4ceO11167b9++3r17Hz16dNq0aXv37q2trd2yZcsdd9xx4sSJa6655t1334WRWkpKyp49ex5//HGn07lhw4bDhw+D5Yu0HrIsK4qyf//+RYsWvfbaaxaLJS0t7dprr/34449fe+01RVFWrlw5atSo5ORkn883b968kSNHfvjhh5GRzuHDh5eVld17773333//oUOH9uzZM2bMGMMwEhISPvjgg6lTpxJC3G43IQSCdgVBmDJlCsdxTqdz7ty5Pp/v6NGj8+bNc7lcK1asUFVMPj470MYMAYIoaJrWu3fvJ554YtCgQZA7P3To0JdffnnEiBGU0tGjR/+///f/9u3bN3ny5F27dimK4nA4Zs+e/cknn4DZeNVVV6mqeuzYsby8vOHDh/fu3fuXX365++67x40bRyl95JFHsrKyTp48mZSU9MADD3Tr1s1ut+fm5n7//fcJCQlDhgzx+/0HDx7cv3//hg0bLBbLY489lpOTk5SUNHjw4MWLFzudTlVVUTTbgDVr1vz3v/+NjIy888478/Lyvvzyy3fffddqtdbU1EDslyiKycnJmZmZaWlp4F1JTk6OiYkZPnw4xJa53W6bzcZx3JgxY/Ly8gghiqJA0S/Ia9B13Wq1GoZx0UUX9evXz+Vypaen9+7dWxAEeFuH+hq0M1Ax2xoIdeR5Pi0t7b777uM4jqMcIywuLu62226DoP2oqKipU6eC87Fv376wfb9+/fr27QtlSiilN998M8Sccxx300031Vct4Qgh3bp1u+uuu8zDPfzwwzClNmTIEErprl27hgwZMvaysbMenRUVFWWxWPr06ZOdnQ0bP/PMM2YlFKT1AE/xVVdd9eSTT0LEWH5+/pw5c0aOHHn11Vf/9NNPEKoJaR3gwjYMw+fz1dbWCoKgqirE4RqGIUkyISQqKgoC4K1Wq6Zp1dXVx44d8/l8oija7XaYzauresNxzGAQkxvqy9D+QMUMDeDNNIWJkt/+SKmZkxP4y0AhMzdo8Lnxb2AWiOM4mGD99ttv//Wvf9lstsLCwmnTptlsNjA3WvgMkSaBN1xCQkKPHj1EUVQUJTIyMikpadu2bT6fz+l0Hjp0COLPAmfJKaURERF+vx9yvcCENHQdNpMkiVLap08fjuNmzZrl9Xo5jlu9evXUqVMlSWLs10oOHM+BHIf6MrQ/UDE7C6YK33777f3799+/f3+3bt0uueQSmLKHGfZQt7ETERMTc/311w8ZMoQQQim1WCyU0pdeemnevHmZmZlTpkz59ttv3W732LFj4+PjJVEaMmQITPTl5uZCvIRhGNOmTUtPT7dYLDfddBOkyVFKJ06ceOzosZ0/7rz//vu3bdtWVVVls9luvPHGrKxMi8UyefLk3r17S5I0YcIEp9Opa3qor0Q7I8RZ23B0wzC2b9/erVs3p9O5bt26rl27Op3O/Pz8oUOHwsvzvffeu+aaa6KiokLY1PYOhBaZKSXwmZC62hwwwA91G1sAM6jwxIkTgwYNKisrI4RMnz791VdfFQQhhCFTDR40CI8FIxF8JmbMLMwN8gIPAZWSJMH7DLaBoQYkU0L6P5RoEUURxt3mOcLSBpBQRAg1dJ0RxvM8YUTxKzDygP0HNqwtL5Gu67W1tcOGDdu/f3+D9FCO4y6++OKVK1fCaz58Yt3QXdVZ4DiO53i/3w9PGtiVlFIYyoVPj+wkwLAa6k7BAJnneEEQ4U+yRYZpH3irybIM4ghua5gBh7sG0Q4cx0NNLPBlw+/9fr/FYmGMcZRjzBBEAWSXF3iLxQLTPh01F7n1wFF5Z4L+6tMErfz1L6iYrUzjKwzRCIGlTyghUG6KEgq+bVmWmVFXPMVMKzCd1DAsaDg4YIQRBpLKGKvLZeDqFtEC3wuorfm5VU+8g4GK2blo/HhgNczQEnjlA+8F1H8jhFCu7pfmlvDhjPEMlHCUC9yy6QMhZwWOyhEEQYIFFRNBECRYUDERBEGCBRUTQZA2IrCsHARCmdXnzCgiSilhBBZBgrT3sCpDh4qJIEhoqK2tPXXqlMPhgFl7KIEoiqIgCjzPU64u54ISCpGq4QDOlSMIEgI0TVu3bt2pU6f69u2bnp7u8Xhqamri4uJqampAKF2uGFK/9lf4pFegYiIIEho0Tbv44otvuOEGxhjUbI2MjCwsLIyPj8/JyXn//fchtTes6lvjqBxBkBAAZUHMaHxBEOx2+759+6Kjo6HaCCzaQQgBX2dIG/sr4Whjgvc3fHy9CIK0BqCDMOKWJCkqKiouLi4qKsowjIiICFmWoQwC2phNgUKJIJ0E0zAyn3qzQAkhdZlLMDBHxUQQBGl/oGIiCIIECyomgiBIsIRYMZlR58Uw/RRmfL+5LAmCIJ0RCv+FV5mlUCqmmSkF694RQmpra6Fsn8/nUxSF1gOBCCFsKoIgbQytS5UMdTt+SyijiyilgigYhgFL4hFCbDbbqVOnSkpK4uLi3G43pVRVVSjKHz5B/wiCdFpCqZiqqsKaooIgOByOstIyQojNZsvNzXU4HJs3b66oqJBESZKlxmslIgiCtD2hVCKO42HBGcMwTp48+eyzz9bU1Ljd7piYGK/X6/f7ZVmWZfmmm26yWCw4KkcQJOSEUjF5noN1nWAZ+507d7rdbk3TYKk8UFKHw+FyuUaNGhUZGRnCpiIIgpCQZ0nCkk/gqSSEQDk8iPuHqnkej8fpdNpstjOuaoIgCNJWoAwhCIIECyomgiBIsKBiIgiCBAsqJoIgSLCgYiIIggQLKiaCIEiwoGIiCIIECyomgiBIsKBiIgiCBAsqJoIgSLCgYiIIggQLKiaCIEiwoGIiCIIECyomgiDhCCOMsFA3ohFY2xxBkBBgVhOHVc9g6RpY+4sQoiiKYRgGMzjG6boePovWoI2JIEgIYIxBJVwTkEWLxSIKoizLHMdxlIM1vvx+f4ia2RC0MREECQEcx1ksFjAqeZ5njB08eLC0tFRV1W7dusHi2wYz4IMoiqFubx1oYyIIEgI0TVMUBf5XFIUQIopi//79DcPw+/0+n0+SJFjDhuO48FmvHG1MBEFCAM/zoihu2bLlL3/5S3FxsaqqlFKbzVZZWckYs9vtERERU6ZMIYSArzNMRBMVE0GQNiJQ9QRBGD16dHV19ezZs48cOcLYb+bFOY676KKLaABt3tjTg4qJIEgIoJTKsixJkiAIlFJzltykgYaGCejHRBAkNJia2FguwxZUTARBQkXdiJsxFp4WZWNQMREECQ3gnATFDHVbggUVE0GQ0AAjcTPtp12AiokgCBIsqJgIgiDBgoqJIAgSLKiYCIIgwYIR7EhHxpxSgPiVdjTD0CE5qzlxQRB0XRcEgRLq8XgsFkvrNSwQ6CSqqnIcx/N8gz6Diol0ZNpX5AoSCIS1q6rK87zVam3L4zLGBEEwfwwUTRyVIwgSjkCNYUmSeJ7XNK3NjksphWpJ8K5FGxNBkHaAKIqCIDDGNE0zLb42wEzZhCF5AxsTFRNBkHDE5/MdO3bMarWCYLWZd0XXdYtsiYmNAduWUhq4ZkZYK6YoipIkqapKIDGAUEYY/E8IoaTeqd9o/SRzm8DNgt/S3H/g9o23DPzxTGs4BW7Z4FvNtiSYdaFOO3Ag9b4YXdclSaKUqqoKFWKa3WETBzILzDTeTzCn2eD2Bb/lWd1o3dAppYqimK0VBAHGd6Q+yaQ93ujf7L9+wAhnd54zWlCY0lQljuPO8zSDv9FwRHjAG5wCY2zbtm0TJkwwVwH6df+U1u2JnkZGz+GJNg1J+N8wjNjY2CVLlqSkpMDlDdx/+CpmXdl6w/j2229LSkrgpsJSShzHwWkE9pXGn0/r9TfT/pv4onn0wMPBrjiOI+aDF7Cl+TlwP+a3oDGBmzVog3m4wPMy2x94O0nAAwP9m9TnmZmjCcMwZFkWBEFRlN69ew8YMOD8F5YC/d2/f//27dtBfxs3MvBCmX8KvCaBm5m/aXBJG1/5s7rRHMdJklRdXV1VVQUrammatn///iVLlpzWnd8ubrQJ/KZnz565ubk8L5gyd86KyRg7cuTI1q1b/X4/rB7B83xgC0/byBa50bAHVVWhhDDP84HL/jDGvF7vwYMHYc+iKDZYFKgFMZsHnZwxVl5ebp5gA8JXMaG5uq6/+uqrhBCLxeLz+ULdqPACOhN0xMBeaxbOEkXxoYceysnJ4Tner/nPJz5DURRZlr/88sunnnoqrFaqaoAoitDvOY7z+/1wQdavX79hw4Y2nkBoPW677bbnn3/eZrMJvHCePj7DMDZv3jxjxgwIpoHVHFuwqU0A0gwDIErpaQXRtAP8fn/rLScJ4mg+NU0fKHwVk+M4Xdc1TYOXldvtPp+hR4cE+hmshRJo7MAth+4I0kY5ep7hbFarFXo2z/Nerzds74VpKymKAstpwaAPLO6wbfZZYRiGzWaDs9P8WuOYwbPC7XabL5hA07K1AYmEvsrqV+IN3AC6N5ydruutZ2MGjmxYc5U6w1cxod2mARVWqyOFCZRSiPIF6xu0EsYvMALleV6SJLiS5zN2I4TASBwEWpKkNnuuzhbTWhFFEV635rCR53noTu0d8+1FCAE/9fnsTRAEjuMg7JE0Z2G1IA2GvbquNzgRxlhERASM3CVJaj3FlGUZFmgjhDRwDjQmfBUToJQ+8sgj/fr1O9ONDHT9mI6V07q9Gv+ywfZNaEqDnZhfbNyGxts3blKDbRps1mD7wGM1OBD4eY8fPz579myv18tx3GWXXXbzzTfDnyCQLSMjAx6q83yuYLR71VVXZWRksHpOe0aNG9zEVWp8sk3fgmBuNJxscXHxE088UV1dTSkdOXLknXfeCVZMkDe6QQubOIU2uNENNu7Ro4fFYjF9r2e8Z0HAcdyoUaMWLlxICIHBypnOuvEZnf+N1jRN07SZM2eWlpY2cAhwHNe7d+/HH38cHvzGftUzHTSw5YENhplPeGRIfSeBv1JKDx48CA9Rs6Xn2oFiDh8+fOTIkVarNWztmlABg+49e/bMmTMHekBGRsbVV19N6ruIaWG11BEzMzMzMjLI6Tpl+ACdPj8//89//jO0MyMjY+LEieGz5vV5Yt7T8zeZKaUpKSkpKSkt0a5zoba29q9//SvMtASeDsdxLpfrD3/4gyiKiqKc7figQf8EFx+EFjSe/maM7dq167nnngtmz+GumAFQjgvfpzQcgJWdScALuVnDLXjMHZp23Pk2t5WBZ+xXO4K0jMR0PEJ1TcBjaBhGnz59YC4xcBxJKbXZbF9//TX8CJ7W4HfeoH+qqmqxWDIzMzMzM8lvDUwSMFMaDO1IMRkh4f6UtjGNX5WsPpijwYDuTKOVsyX8hbIBv44E21nDOz6MMU3TIiMj33rrLRhBNnAgQqAYGJhnq5gNMAzj4MGD4O4/T1dGO1LMMF2NM6xofIloo5DAVjpQmNDAd2b+EgjbZp8VHeNWUkolSSKEREdHkzN7SwVBUFVVluWzOusGJwUqCcOO8wwJCHfFBO9GyzrjOgyBE8Gm19K8YoHv0ha5eoE7CdvbweqTYeXabzwAACAASURBVCBQURCEwKiRNpsIbkeE6lbWjXsIhdSdxnYfuOklSQJhPSuomRcEx6LMMIyoqKjTevbPSj3bgWJ2mKCQFodSaoYBgycI3NumQ9PcrEWOdf47aQPg9DVNi42NnT59enFxMWPsggsuIIRAcF+oG4jUEcwL+By0EmgggpRSt9udnp7OAvK+zo1wV0ykCSBPA6LVampqBEGQZbnFB+DtEUqp0+GcOXOmKIq0vkBsh5krR84WwzCgJnFdhvt5PCOomO0YsJhSU1OfeeYZVVV1XR84cKAknuNruWPA8zyMSwglZjIMuMw6hhMTOQcg74vjON3Q0cbsvHAcp2t6TEzMjBkzIB5YEARV69TGFEy5wrsEfLumPxcVs9NSWFgYEWFrkeEX+gfbMYwRXoByMzxjzGKx8DwPSW+hbloogewOqGwYOHOIitmpMIPtNE07ceKE0+Gg9cXPzme3nfrRau/A+xL6AdiVtL76aaeNLjDPGgZfZhw7xKmEtGlI2wHdAHLVFUUpLy9PSk6C0cZ55qejYiII0tGAsn4Q+l5UVJSUlGS321sktRQVE0GQjoaqquCWoZT+/PPPqampoiiaRT3OZ884TkEQpKMBUWWGYeTn51ut1sjISFZfE/48vVVoYyII0u5pMK0Hs38+n++nn37q27evKNQtenH+s39oYyII0u4xs2PNCFzGWGlpqcPhSEhIIJTA1Oj5h5GgjYkgSLvHjCeDFGFd1ysqKnbs2NG7d++WDRpBxUQQpN1DCYVIZE3TIMNn8+bN/fr1i42Nbdn1nVAxEQRp98AK6ZqmQTbH1q1bo6KiunXrRghp2QRZVEwEQdo9jDGoGscY+/nnn/Pz8/Py8swiXi1oY+LMD4Ig7Q8wJ2n90qHgu2SMbd++vbS0dNKkSWZlv5Yt8Yc2JoIg7Q8IrlQUxXRTqqq6Y8fOkydPjh49uvVKK6CNiSBI+4MxpusGlBzWdb2ysnLLli1xcXGjRo4irVkAGxUTQZB2Cc9zXq+X5/njx48fOHAgLS0tLS1NkqTzrE7UNKiYCIK0P2CSx+PxrFy5MjExcdiwYXa7HSbKUTERpIMQuK6nuaJsG5fmMwxD1+tKkUOSDEybgGewzYqrMgbraTOYvQlcXN7cwO/3C4IAJYhIfcYOtP/48fwjRw6rqjp8+PDk5OTAUn6tupoTKiaCtB2mOPp8PlEUmcEYOd+1us4BQRA0TTPL+ZD6uea2XDmuXh+ppmocz6mq2uA6wHq5oKeqqsIigOXl5Xv27Nm/f39qauqwYcMiIiJI2y7bh4qJIG1Bg6o5UFyH47nGf2oDDMMQBAFWHuV5Xtd0QRTafqFNyGvcvGUzaGJgqDlYvpGRkT6fzzAMv9+vKIqu6xaLJSkpqV+/fjabDcKJ2vh9g4qJIG2KYRimoy1wsNlmgBiZ/gHGmCAKIVnMnef5mpqahx56aO/evVAsPbCR2dnZL7/8siRJTqczJiZGFMWIiAiwOmEVVVmWDcPwen2yLLVZ41ExEaTtYIxpmub3+zds2FBdXZ2SkpKTk0NazfUGJltj/yDg8/rWfrc2Pj4+Ly8PtmlLa5cxBgngFRUVXq8XPptwHGe1WgcOHAjZ4oZumPY4IUQUxTrFJ1QUW0bEgjxxVMx2DKybCMMrqEFgziSAl6oTLvUDT5Q5YWoYTBB48/dtb0YF4vf7KaUnTpx45JFHVqxYAW7E++677+GHH3Y4HGD3mc5E8HhCZguYVGAbgkcP/goL18CZwmbmCcKutmzZUlpaOnr0aEmSeJ5XFAXW0YMFcA4eOvjAAw/cfPPNWVlZDocD+k+b9RlYkwqWSobxdYNDwxlJkmROkZEAXav7QInA1U1hmb8/W92HK0nqo+Kb3hgVsx1jjqRgVRNC6lboNhPIQtq6kAHzv7W1tYsXL66qqtJ1PS8vb+zYsSFfS1IURa/X++yzz37zzTe33HLLxIkTFy9e/Nprr6Wmpk6bNo0xJopiTU2NLcJGKBEEwTAMQqhhGDzH+xSfxWKBO6vrOgirWVecEKKqqimjIEaU0uVfLl++YvnAgQOjo6NBm8AnAH+1WCzTp0+/7bbb7Ha7pmnhtqR7dXX1rl27BF6gXPMiKAiC3++XJKmqqgoWVQ3+QLDYZJArpqFitmNMY8F8Q/r9fovFApOM5jrdnQowxAghRUVFL730UlFREaX0tttuGz16dGgbBs/8oUOHvvrqq2HDhj333HOEkKysrKFDh3bv3v3zzz9fu3btBRdcsHv37tjY2OnTp3/xxRerVq6KsEVMmDAhMzNz3rx5ffv2nTx58tq1a7/44otJkybFxsYuXbr0xIkTeXl5k6+dvOCfC8rKygYMGLBx40a73X7zzTdv2rRp+Yrl5eXlzzzzzBVXXLFs2bLMzMwePXqsWbPm2muvTUtL+/LLLw8fPvzmm28++OCDdrs90JQLB2ApaRIwbjD/ZPoQzN/AIF1V1d27d3fv3j0xMbGJjRtgnvVpnRgNQMVsx+i6zlGupLRk3rx5iqLIsjxw4MAJEybA8Cqsen+bYegG1LBxOBy6rsNAOBy0ABTz6NGjbrd7wIABVqv122+/PXLkSGVlZWlpaXR09Mcff7x06dLU1NTs7Ow1a9bcf//9Vqu1trb2008/XbZs2d69ez///PORI0fOnz9/27Zt06ZNmz59emlp6aWXXjp79uzo6GhVVV955ZXs7GybzbZz506bzZacnOzxeKqqqsrKyioqKqxW6//93/+JopiRkTFgwIB33333+++/Hzdu3Ouvv67r+qxZs6xWa1iNSywWS58+fex2e/CjbE3TCgoKcnJyUlJSgj8Xxlh0dLQsy16vl6BidmDAd5mfn//qq6+63W5RFG+55ZYrrriic3ow66AEJJLnBb/fL8syOAFhTBrCdnEcpygKrJ1ACKGUbty4ceHChbW1tf1+12/hooWxsbEJCQnvvvuu3W6fMWNGQkLCggULTp48OW3atC1btlx11VUPPvjgwoULV61adfvttxuGsW/fvsmTJw8ePHjr1q3Lly+//vrrJUmaNm3alVdeecUVV+zevfvee+9dsWLFnj175s2b16VLF4/HY7FYnn/++fHjx1dXV//1r3/t16/fhRdeuGfPnh07dng8HqvVqmla+KzqLooieGnr4+qb7tIMnBXgoaoPjw8KXdfdbjep94E27ZoIl6uDnAMwAhUEAeQAHP9myEjnFE04d57n/X4FkkZIcKOt1sYwDFmWExISXC7Xpk2bFEWZOXPmxIkTr7zyyq5JXaHNSUlJ8fHxfr//xIkTsbGxqamplFJJkqqrq8eOHRsdHf3mm29KkjR+/Pji4mKe59esWbNu3Tqn09mrVy9wTSYkJPA8b7fbVVWF3Bi4Aoqi2Gw2SZIGDhzocrkKCwsNw9i5c2dZWRljbNiwYRaLhbR5nFPTMIPVTZQbBiGkubtHzckxUjdvdjbHqn9ems16QsXsIPz2xUgJCSMXPkLq52F79OhxzTXXvPPOO9OmTRs7duzatWt9Pt/EiRPBsouIiKipqbHZbFdcccXf//73f/3rX4WFhaqqZmRkdO/e/c4775wzZ87IkSN79uxZWlpqs9n69Okzc+bMgoKCuLi42tpayNsRRRG8EIIguFyu6urqH374Yfjw4VC0AiaF4uLiXC6Xy+V68skna2pqunTpEloD/PRQYoZ8NJuPZM56nduakZqmBTldjoqJIG0EpdRqtd5zzz1VVVXffPPN5s2bo6OjZ82aNWrUKMMwHA6HLMt2u51SOmXKlA0bNsydO5cQ8oc//KFfv36yLF977bVLly6dPn16ly5dIp2Rf/rTn1577bXrr7/ebrc//vjj8fHxUVFRoLx2u10URVmWL7vssh9++OGPf/zj7bff3qtXL5vNBgaUy+V68MEHX3jhhTvuuIPn+alTp+bm5kKURfiYmdASiNME0TzT5I9pT4LwaZoG2UTmloGbNRZEwzCsVqu5TBD6MREk9IB/TRCE1NTUl19+OT8/v7i4ODk5OTk5GazCf/7zn7IsG7ohSiI4NI8cOSJJUkpKit1u13WjR48eb7/9NiyOqOna7bffPnbs2JKSkujo6OTkZErpJ598kpqaarFY3n77bYivHDt2bHZ2dmlpaWJiosPhGDRoUNeuXSGzcMqUKRdddNHBgwddLldWVpaqqrIsh1V00alTp1avXk0pFUXR5/M1lsjAz6bYbdy4sba2NiYmBnbSYMsGH8wNSkpKYNqH4MwPgoQDPM8TVpfoEhER0bNnz549e0KkPYwo09LSwCUNpqjVapVlWZZlSZJgxp8QkpOTA1MTDofDMIz09PSMjAwz7j03Nxeizfr06WPGlmVkZPTo0YMQwhiz2+0wFQYFgdLS0tLT0xljXq/XYrG0fY5200RFRfXq1Qti7wOD85tA1/WSkpJ+/fp16dIleEemYRgHDx4UBAHSNHFU3pEJnNoDFxUhRNMaloEJfm9mHTDyW3c4JPOCZ90swIMEjznalWW5ib/ChYX/nU4nXHlZkhtP/AYqiPnZvHfmbwLvFPy1rghIwBFtNtt5nFlrQSmFICG4CE27C8CBq6pqZGRkbGxsUlJS8F2UUurxeCB3rtmNUTHbN4HvQ8MwKisrDx486HA4IIL3rHQT+iXMtldUVJSVlYGdQusXnwJEUUxKSjrtY4+0OGYuYMvvM+yh9QiCEDiOPi3mpBZ8OKt0T8MwTG9psxujYnYcwJP1xRdf9OnTZ+nSpQkJCWe7B5gu1DTtl19+mTx5MgzxCCGMMcg883g86enpS5YsAcdZy58DgtQDsatQdIMEHfkEIntWimkOzswfm9gYFbND4fF44H8IrztbzIrcFRUVJSUlmqaZA3NzMG6z2cIxEgXpcCiKYjqdgkn5Daxfd1ZTWOa34EdUzM4C6B1klUGJVjPDJBigo0B8CeR+QLqF2ZnAAvV4PK26jgqCAIIg+Hw+RVEgRtIUstNmZ0AwJuQsKIridrsDXfBNH4gZDHJ+gKa7Nypm+yZw9MFxXEpKSq9evTIzM6HI9tnuDXxGuq6npaWNGTMmoGaasWvXLrA6/X5/MEIMmmuWYgw0SxvbCw0sAkopLPAC7vyzPQukY1BQULB8+XKzzHDTZqMoihBRsH79+pMnT0ZFRTUtlA2qeFRWVsLkT4MynY1Bxew4UEqvvPLKZ599VpIkSZIgXyL4r4OuQZZYVlbWkiVLzJoxuq5fdtllpaWlEIDS7JQi1BMzdEM3dKgJAuHHXD1NfxfyVUCsO226J5KUlHTppZea/qVAC6BxLDqkOamqarPZcnNzk7omwXRZoGVqbtxAfHVd37t3r9VqrampIc05TFExOxQcx4GnnOf4c/M2Qs+zWq2Bv1RV1WKxBD+fWFdAgTBREBlhUBFD13VKKNitTbQNhmA+n48QEhEREVa1IZC2BPKgwO7jeb7p8Ax4s4KVIMuyNaLJOkyMMPIbtYUPYA00bRBgX+xQwKyfIAiMMGac3UqqgVoWGIkJmMXeg0mkgz4HgceGYUDOhiiK0FGblnJwRVVUVHTt2rWNVzdEwgp4dwqCYK5R0cTG0EWZwaAbBzXzA5tQwvO8xWIBXxBpLiYPFbNDAUNaULRzSxBuXPcIpsjNpRSC6YtwaK/XK8vyiRMnVq5cWVRUFB8ff/nll6ekpDQ90GaMffXVV3Pnzn3jjTeysrJwSN6ZMV3hzbqY6maH+KB6y2/6MPs1HpPneU3T0MYk5HRuYxjugQSYw0azVFSrtqTBLJ75oUWqppsB5/CqNM09+CscAmw3KEIM/5P6szaXkTG3h89m5cFgxsjmJHtFRcWsWbPWrFkTHx9fUFDw3Xffvfvuu2ZjzDU2zKQOOFx5efmOHTvqgksMxggzDEPgBYMxQs7OcEbaL6a1yIKobQrreUANjmZjOSihgaNyMDLM4CSMLjoNYO3Du4tSKkmSqVatbdTQ+kUmCKGMGbR+fasWST2sryRYFydk5pbBytQwgQ7jF47jJElSFAVWd/F6vQIviJIIUy5mQiQJsCuhRwYTWgRDeErp7t27v/jii1tuueWee+5ZtGjRd999V1hYaLVaOY5zOp2appWWljqdTkppWVkZz/PR0dE8z5t1ZBljftVfUV7hU3yxsbGiKEqSdJ6XCGkvwLsTOhIskUYazQQG/gjGgaIo1dXVZWVl5LfTPg2+FXgg8JuDaJomwpnopIoJQDANCRAF1vqlZ0Gt4Ii6bph2bosoJowpzLUGzdUBIUwHpNntdpsLAZlrZ1ssFqg+C3V0IPUY3iiGboCGmuLbbDthAAUeVYvF4vF4eJ5/5JFH7rnnHkEQ7rrrroSEhGeffXb16tUvvfTS008//fHHH+/YsYMQcs0110yfPh0ODatR/+c//3nllVfcbve4ceMeffRRyD46z6uEtAvKyspgqCHLMs/zzGCnr/tKCWGE4zlFUQRB2LlzJ6xdQYPMLaVE07SSkhKfzxdMHEgnVcwGbxJVVS2yxWAG/W0pvdYAxhdg9AU6HM8/jIbjuGPHjm3atCkrKys+Pt4wjPz8/MOHDzPGunfvnpGRIUuyx+vZuXOn3+/Pz8//7LPP7r777qFDh0ZERDDGjh07dujQIcZYYmJi3759GSNud+2hQ4dKS0shHt50kjY/6qkvhN6nT59bbrllyZIlq1at6tGjx80333zDDTdYrdYvv/zyjjvuWLFiRXV1dWpq2siRIy+99NKNGze+8cYbubm5UF9HVdWNGzbOnj374osvTktLe+WVVwYNGnT11VefzyVC2hGxsbGjRo2CFyTUW2piYzPJQlGU3Nzcbt26ndXTtHPnTkmSIGUObczTo6oqY0SWJVABj9fDGLNardXV1ZGRka13XBhschxHGKmtrYWKXsHnJzSBruu9evUefsFw3dDBrdO9e/fk5GRCKMdRQojBDKvVOnjwYELIe++99/333z/22GMglzzPp6enp6amwnDYMAxBECMjI/v27QsS+dxzz5kepWAaCfZpVFTU008/PWPGjHXr1n3wwQdPPvlkjx49xo8fv2HDho8++mj58uX33HNPRkYPn8/7ySefwjj98OHDsbGxgiAIgvDL3l9OnjzpV/zFxcWwROo5Xxyk3RG4sjT4zZrYGDxOMBg6h5w0KOFhsVh8Ph/m/NTDiKZrlNINGzZ88MEHhYWFiYmJ11133dChQymlb731FthiW7Zsefzxx6OioiDthNavROj3+30+X0REBNRqBusdnH0BbhFK6a9De/AkmtX9Aid2dF1fuXLlsmXL/vznP8fFxbWIC5XjOL9fMZgBrknGWIPpRdN9WVRU9J///Keqquqzzz6D0tyGYVDKNVgphdSXJlN8CixTBYHozbbTPPFt27a9/fbbN9544zXXXON0Om+55Zbjx4+PHTu2b9++7733ns1mmzZt2q5du2644Yb+/fubDnjTk+D3q5IkGcyIiIi47777Bg0ahAHtnYfASctmJ0XN0SGYomdbuwj2oKpqsx2ssyimqqq6rkuStG3bthkzZhQXF7tcru+//3716tULFiwYMmQIBP37/f6ff/7Z7/dDZBb4m8H399hjj/n9/r///e8QNEPqR9OGYdTU1ICS+nxeUAoIQoTpeCgfDWoLTkaO4yorK9977z2v12u3202FOv+5chAdSigsqdjgrzDjzBjbvHnzhg0bDMP45ptvHnroIV3XRVEihEEo0Wl2y3Pwqg+yF5pBIYSQZcuWff/995dffvmPP/5osViysrJcLtcNN9ywfv36ESNGxMbGHj9+vKysrFevXoZhfP311z6fr3v37hzHff311zk5ORaLJSoqavTo0SdOnIA5ovO5Pkg7ApzycMdra2vtdnvT25vp55C6FvyB4PUMs5qQb9bUUYLfb7sGRnk1NTV//etfKyoq5s6du2bNmvnz5zscjq+++srtdj/55JPXX3/973//+7ffftvlimGMnTx5cvv27SdPnDQM49DBQwcOHDh48OCePXuqq6t37txZUlJSVFS0d+/eioqK4uLi4uJiRVFKSkry8/N9Pt++ffsO7D/g8Xh27NhRXl5eW1t75MiREydOmNHgW7du3bJly7Rp06AfmBmB53OOzcbuiqLoV/2apn3++ee1tbU8z+/evXvTpk26rrfsSmp1L21Cf/e73z333HMul2vp0qWnTp169NFHc3NzRVG84IILhgwZctNNNzmdzuzs7NGjR7/99ttHjhwZP378unXrkpOTJ06c+Le//Y0QMnfu3P/+97/Tpk176623KisrzSxjpMMDIzxYtwemAZsG+r8ZFnJWBAYdYzwmIfVJ0wUFBd98883QoUOvvfZan883aOCgf//73xzHWSyW66+/ft++fW63e+rUqf/zP//z008//fGPfywrK5Nl+c0331y2bNm6desopZMmTbr77rv//ve/d+vWTRCEn376afbs2W+99daoUaPmzJnz6KOPFhUVLVq06PrrrzcMIyEhYceOHcOHD09OSl7ywZLsvtlLP1rapUsXmAKOjo6+6KKLIBDnfGLOA8+RnTk3gjFGKUcpLSkpWb9+PfRFr9f79ttvX3LJJWZUZotQF91GmCAI06ZNmzx5clVVVUREBFSK0zSte/fu8+fPT0xIZIzFxcW98847Pp8PzPna2touXbq8/PLLbrc7Li6OEDJ27NiampqoqCiLxQKmLtIZcLvdx44dg4CWZs1GxhiEcxQWFh47diyYiI7A75aWlsJAvlkfaGexMcEHV11dzfM8lMJfuXLluPHjJkyY8NBDDxmG8eyzz3788ce33HLLhx9+WF5W/uWXXxYUFLzyyitTpkwpKyu7/fbbu3XrNnjw4Pfff/+GG24YP378zp07BwwYMG/evKFDh1ZWVtbU1Pj9/tra2srKSk3TpkyZUlRUdMkll9x3331r1qxxOB2zZs36ec/P27dv53m+uLh4w4YN48aNi4mJCcylOf8hZ71gnrZvUUKYIAj/+c9/jh8/Dm9jURS/+eabHTt2iEJLlgiCncPpgE89ISHBarWCXML/CQkJlKNQPcHhcMTGxjqdTqvVGhMTIwhCTExMfHw8pdRqtdps9qSkJJvNRinF0KLOg6qqbrcbxuYVFRXeJnG73V6vT1EU8L95vV7P6TjT130+n9/vh/dx09HyYWRjNn6HmArSIlIiCEJkZKQkSQUFBYZhREdHZ2dn//DDDwUFBR6P5/PPP4dV6BRF8av+3NzcZcuWzZ8/v1evXhkZGbGxsTabLSoqKjs7W5KkmJgYm802Y8aM9PT0/Px8v9/PcRwMHCANVpIkXdcvvfRSVVVff/31QYMGRUdHWyyWkpISSujnn3/udrsnTJhgjgLOylF9JiilVVVVRUVFcXFxoCwVFRVQ+M9qtbpcLsNg1VXVUJQIwjNFUVQUZfXq1cOGDauqqqqqqoITiY2JJRwxDKO0tFTxKbqhQxpZ8H6DwGVkYJFCiPGE13hgNLIoipCpBv4j8IGaqb6KTxHEutEZGBroyuwkOJ3Ofv36wTPCNbeMOKDr+uHDh9PS0lJSUki9bjRbnYDVl00IJiY6jBSTNHogzUjsFnlINE2Li4u74IILNm7cuH79+uHDhzscju+//75Pnz4bNmz429/+9sILL+zbt2/Pnj0+n2/MmDHdu3f/+aef5zw3x+12z549W9O02tpa89EVBMHlcoElJQiC2+0GFxs4THmeh3kkKAKkaToMGXRdLy0rXbx48YgRI7Kzs83FSc7/7Eh9mb/CwkKLxQISXFBQcPLkSUJIfHx8ZGQkz/NenzcnJ6dv3761tbWlpaWpqamSJEVHR9fU1JSVlR04cIDjOJfLFR0dzVPe7/cfPXq0tLQUoiNJ0PFPplyaTnTzW41rdsH/AieYX6T1Vd8JIRarJXCfKJedB8YYVx+/QQltejzM6msXmV80mGG6epotMEjr05QJVhQ24Xne4XA88MADe/funTRpUk5OTmFhoSRJN910U3V1dURExNq1a0+cOKHr+r59+1atWvXPf/5z6tSptbW1EJFzwQUXfPbZZ08//fTEiRNh1EkIAbnp2bPn1q1bn3jiiV27dhFCjhw5Qgjx+XwCL/j9fsaYIPAQwSOK4saNGw8dOvTYY48JggD57C14gunp6f379wfHKGOsV89effr0IQGdIC4ubu7cuYIgVFRUbNmyZeTIkZIkgZo7HI60tDSIvoSxs9VqzcvLg0H0Cy+8AHs4h2A3BDk3DGZwjAPBNAwwp9hvF4qDH+tKdfA87/f7wTKQZRnsFVZfGLuJFeZo/dJAzdoEYeTHpI1owZ3Da4QxduGFF7755psTJkxQFGXIkCELFiwYOXLk6NGjb7311gMHDowbN/7uu+/eunXr5MmTx4wZs2LFigsuuODBBx+MjIycPn36mDFjNm7cWFhYmJWVdeWVV0IAV1RU1OzZs1NSUk6dOjVz5szMzMzCwsLU1NQLL7zQGemUZXnUqFEwazFixIi4uLgTJ06MGzeuX79+Pp+vZVdkhOlCiOOFetSCKMAa2WD2gj0LwcBwNSDOFFyNZpwpbGPm7RBCoDuy3y6HgiCtCgzgzBg+SgmloBIk4B/8WBeB5PP5INmXEFJTU2N+JqTxF3/9B/uHijDNdu/wsjEDVbJln0wwnWRZ9vmUoUOH5eXlud1uWZZBGux2+//8z//cc889LpcLnMdRUVEvvfRSTU2NKIpRUVGGYeTk5MydO1fXdYgHuuKKK1wuFwzS8/LyPvjgA0KIzWafMmWKw+FgjI0aNQpqoS9YsMBut/v9/jfffBOG6jfccIPFYhFFUdcNnm/Jl5apg7++ciA4M2Blc/irKIopKSmCIJizz2aMBWO/Jo9DblKDKGI0M5E2AN79Zj3WusQQQhlhdV2aMLMK0aJFi5YvX24YRn5+fpcuXSRJioyMfO6552JjY2FvTegJjBeDnEsIpWKa58CMumo6Zgxq4GPvdrtLS0vjpVSkrAAAIABJREFU4+PPM/gGAsstFpkxxvOcKIpQdQLy+aCgDpTziY2NBWdlYmIiZP6AWERFRbH6umRQkxxmeGRZFgQBPkdGRkKmjSRJPM97vV6Iu4ZROWMMJj3qiwO1sFcOwuPNwYUpbdB+UxxheiczM5ME1BmC7SmljBmgpGYKOa2Prg+sV9IuMN8cRn0BulC3CKnDzAQ/k4e6oqJi165dMK1a/y5vWPPB7IolJSUrVqxQFAWmEDmOS0xMPHjwYGFhYbOzRpTS48ePK4pCg1iHMpSKaV4sRhjHcSNGjHC73UVFRYmJiYqilJeXd+3alTHm8Xg++uijyZMnx8fHn/OxAgMe4erXZVNRrrSs1O12JyYmMsaqq6vLy8utVqsoihEREVANBZ40VVVFQfT4PBEREaTe02zUZ7NChg8kDHCUY6Qu/xomfM07bT7ArVG1jDEGWbFQggVEnwaUUg+cYoLyReZ6k+Z8vamM8F3DMCihmlGXDtGgemb40/jKI+GDadadVqSio6NjYmKgfxpNrnRCCBk1atQHH3ywa9cu6LSGYVx99dXJyckw89NsLGdlZSWsrdbsgUKpmDClAI+u0xn54osvOp3OtWvXpqSkiKJ48uTJESNGgNH0/vvvt3ggHgiZ2+N+/PHHd+zYsXDhwqSkpIcffvjrr79+7733hg0bFjjPWxf7QgkEUYNK+ny+n376qVu3blA5QlEUq9UKZhqYn2ZhZ1ZfiNOcPW8NYJreTHgnATEZIHamexsGOxAWbvorTecmtNMMFIWES57nzTzfdiQ95ssDPLZgTYe6UQghAUvgQcUgs4OZMMbi4+PhmQI3Ovlt5HKgY71Lly5jxozZs2cPhLLb7farJl6VkpIC972B4RJoq8Ln0tJS850avjk/5oNqGIbX67Fak0CJioqKoqKioKgPIURVVa/X27LrvcClgalqRVFOnTpFCNm6deuKFSsmTZqUm5sLegcPWFVVldPpJIQoigKTJHCrTp48eeuttz7++ONTp06trq6GcbrpfIGZOzDuYEQM64u14Fk0AOzxqqqqqKgoCLcsKyuDEYqiKA6HA7pdVVUVnPu2bduGDh0aGRkJBQg8nrrqTbW1tTabDfZZWVlJCJEkCW5BwLRj+8A0or1e73l6dZAWR9d1KN8Fw50GLzMYCHJcXaH+QG/mrw69+g+yLE+ZMuXdd98tLi4WBGHAgAF9s/uC0WOxWALH2o0/EEIgWNhc8bSJNofejwmGD8/zkKgSHR2dnJxssVgKCgoIIRzlYJ632XWEzwqwE2G3iqJomqYoyu7du2tqan7/+9/LslxaWvrVV18dPny4Z8+ev//973fv3v3pp58OHjy4oqLi+PHjF154YWZm5rvvvltZWblq1SqPx3PTTTcdOXLk22+/rays7NWr1+WXX75q1aqffvppyJAhP//8s8AL106+1uFwtOApNIYxVlZWduzYMZ7no6KiCCGVlZUFBQXwrna5XJCDePz48erqaq/Xu3v37i5duvTu3TsiIsIwDLfbfeTIEUppTExMr169OI7z+XwFBQVlZWWwTDn0p2DmE8MHmP1fseKrY8eOgZkf6hYhv4HjOKi30HjsXF85TPu1vswZYITout4jvcfYsWP//e9/S5L04IMPgnEKbnpCSBNfh+qIpre06U4SSsWEoaIoihAPSDkKlhEEA4Itoxt1I8GWNW3AOwnjAsMwampqnn/+eYhmv+SSSyjlXnzxxfnz59tsNo/HM2fOnH79+i1YsOD111+H0feiRYvefPPNlStX1tTUfPPNN4cOHRo/fvzMmTPXr18PowwQ0+effx7mf3r06DFh4gTIqm7Bs2iAYRjdu3fPzc2FH3meT0tLS01NJQETIHa7PTs7mxAC2Zw5OTmwuqkkSd26dUtOTg4cuVitVgjn1DQtMjLSLMXWbJ3q8AFu8cmTJ44dO2qO7JBgoK0cSUZ/W5/NaLRcBPzmV+9QE7sihDFqjbCOHz/+k08+ycrKGjt2LLiPOI7zer0RERFN7IGnvBlhbRqYZ7IMQjxOAeUCGzOwfaarAn7fSquwgljA/nfu3FlRUQEp5/n5xz/77LNx48atWrUqJydn8eLFcXFxmZmZCQkJ69evnzZtWnFxsdVqffnll10u15NPPrl8+fJdu3Z9++23jzzyyEcffZSSkvLOO+9ceeWVqampTqfzo48+eu+991wul64bLWspN8B8SYqCaPazuvdzwPxPgxQITdMDMxrN7QNnyUhAdSXIRm+9s2hZAuOidOQMmLMl5lMG9gToyDnsx3x+zbnEOgMoAHPNKFgCr7GigfcfOq35oWkGDhzYtWvXsWPHgk8fBNecqm0CM02O/Grb6kZ9PaTAVoVXPGab4ff7IRIT1oN3uVyvvvrqP/7xjzVr1kCxjKqqqrFjx2ZlZQ0bNmzRokVer5cQ4nK5unTpkp6eLsuyx+MB76TD4dA0raKiQpblgQMH9u3bNzExsaqqCiKKkpKSfve739H6mn2tqjVnNWSOiIjo0aMHTIx0YAefruuMsZiYmG7dupmeMtZoDuG0sEYzDA02DtwAftO0KRS4H9YoUOa0B21iV4GncLb7DNy5Xl89y+PxwLIljLGkpKTY2Fi9yQLSDc7afB9Dj9J13ev1OhwOmDUFF39g56T1QYT79u0z1xMN3H9lZeX27dth2ocQYsainxbQu9ra2iuuuCItLW3Dhg3Be2B0TS86VZSTk1NZWQnVuKEKhGm0BW7cSRUTHL1QrYQxBqGX995777p16/7yl788/9fnk5KSli5d2rdv302bNnXr1s1ut5trqMHLRxRFh8PBcdzhw4cFQejatauiKBs2bOB5/ujRo7169YIiF06nE9Jp4Lug1K10Uiz4te0JkWUZZhKN+pUsg/xi+wKCZCdMmPC///u/Dbr+2Z5yR71EMG6QJGnNmjUzZsyABcJmzJhx2223McYaJiU2CUx4woUqLi4+ceJE//79zUCL017A6urq66677ueff27sebPb7T179gQJ0zSt6QeHMQahb0OHDgUv01kopq7zPD969GhzV4ZhdOnS5bQbd1LFJPX11fX6yHlJkvLy8oYNG7Z169aiU0VXXnnlG2+8MWnSJELIzJkzIyMjNU3jKEcI0TQNVl6MjY3Nzs5+5513tmzZMmfOnClTprz22mv/eu9fgijceeedENMOL1uY9RN4obWvd72R2fyDDfY1Cajv0iEtTQhv4DiuS5culFJcvLcxrD6yGGoPgjVgs9ni4uIgLif4XYE9AR8kSaqoqOjSpUtgeEmgYhqGoSiKzWaDe6Q3co4LguB0OsHaCKY+JqlXf1ofbX1W2O12MDhg7AgVtuB5ChTfTqqYcE1hmHz33Xdfe+21cXFxlNIXX3zxu+++s9vts2bNuvDCC48cOdK/f27//jk+n++pp57yeDyiKE6aNCk2NrZnz57R0dFvvPHG6tWrCSHp6ekvvPDC1Vdfffjw4eHDh/fq2YsR9sgjjyQkJIBLhRCiG7/mybYSjUfljQeM8BtN02AhDTAzzzS6NDti67W5VYGXIqiAfjZVZjsPYMFBLwUzzRx4nZWlBoDjG3QH+tWvObu/NVdhZgYOSuvzzRo0jNXH+jTbA82p9nNwfEEiMRjIUDqnLpiaEU3TGpSO7byKCR8EQbjooovM++F0OiF3kBBy2WWXmdvLsjxixAj4nJ6enp6ebn6ePn26udnYsWMDjzJu3LjAY7XqRDlQU1Nz6tSp2NhYWJ+yqqqqsrKSUupwOKKjoznKqZpaXl7u8/k8Hs+PP/544YUXxsXFwSRybW1teXm5YRgOhyMmJsbQDcrRwsJCWJxPVesyLBvbAuEMJIZCgc5zeP47AyBJYFXRgGKGLOh1QwMxVwAEq9BceaI+bOc3e5Nluba2FkZsjXfFArLUgmlGs4FBTWMmN8OP8KGx/nZSxeyQ8DxfWVl5/PjxiIgIWIXt8OHDkMwQGRmZ0y+HctTj8Rw4cKCyslJVtf3793ft2lWW5ejoaFjb9ujRozAUioiI4HnB43EfPny4srKS53m/XwH14YJYrxxpR8CoE5xIsPwsM1hgAlioGxheoGJ2HHRdT0tLGzRoEEw68Tw/YMAAc/4UxqQOh+OCCy5gjJWXl0dEWIcNGwYZ8aIo9uzZMysri9RPcRiGERUVBRtDSABsSbCsb8fCtAE5jktLS6uurtZ1PTIykrRnb0zrgYrZcaD1GeKsriCmwJhZwO3XwCYzMBgg9R4lGI7BvCFkFjDj16XDSf1qqIQQSjvgHFGnhdUlK7NBgwZ9+OGH4Fjs0qVLMIvedEJQMTsU5vL2zGD1EcS/KY1ljrMsFktKSoo5U2SWFwHHv/mZBBRjNnXWMNqTK/NXziZQpvNQPxXJrFZrcnIyzBSb7sgQNy78QMUkpKMMMymlMMsJPT5w3twcm5tnGhERkZmZeVp3FaUUtmUBmRskIOQ4nAdrcEbmFCdMkcPvDc7gCVpMpwfEEaY7mg3NMTuGWUQVXrRmof4O/GrCd0jHwYwmg4lOmOMGlYTadLAwaeBXIH4N6iopigL1DjiOUxSfme5mhneYBdjDWTHNK+BX/ZIkQcVDWp/9GerWtXsapBUFvj55rpmQyY4B9qGOA+iCmYEL5ebMfGFZlk2npK7riqIUFxfDVxhjFosFautB0CjYGiC1oKogtY3jPcMNMHZofdkRp9Nps9nAhwuLfSLnQ4OBC2Ns4cKF99xzT0lJicEaBlR2SHBU3nFgjFVVVdXU1ERHR4OZ6fV6Tf+9zWaDYbXH49FUze1xb9u27eKLL3Y6naCPsM49xC1bLBYY17vdbtBcKFkCBwpnYw0CZSCD5YUXXoDaiF27dm2Q1IycGzAGN8cumqbt3r37q6++evTRRy0WS2vXMwwHUDE7DhzHlZeXHzx4sGdWz8ioSF3XT5w4AYYkLBHMcVxtrfvQoYPV1dVQDzQxMTE7O1uWZcMwysvKDx85DMGbvXv3hlp8hw4dqqqqIoSatRLOM064tTE9s3a7/fLLLzfr/JMg3HNIMIDDh+M4GMQ8+uijU6dOhcDeUDetLcA+1HEwDCMlJWXAgAFgM3Icl5mZmZmZaSodIcThsOfk5BBCqqqqNE0bOHAgTBNRSpOSkromdQ2URZ7nc3JyzHhM0h5G5SCOMMvfIIsjnIU+bIGCA2atL1VVq6qq7rrrLr/fP3Xq1Nzc3EWLFn3yyScrVqyIj4+HS20YRge+0qiYHYp6ZaSE/Oqhb6AUtL7epaZq5tw3/E9JQ/sx/I1KpFUBg91cAFXXdMbYkCFDVq9e/ac//SkiIkLTtKuuugqKe3WGHCFUzE6K1Wrt1bsXDahs2OH7OnIOsICSl+Xl5RBWcd11140aNWrGjBmiKD799NO9e/e22+2hbmkbgYrZSbFarRkZGbpuUEo6cH1MpEWAWcSZM2du27YNVqWmlObn5xNCnnzySYfDsWjRori4uM5QTA8Vs5MCY3DD0KEMOybDIafFzJE1DBYbG5v+/9s796CorjOAn3Pv3b27LG8RFsQQDI6ZaEFRcWAQIhqxbZxGnTaTjE2MSf5op5PM9DHtxKZJ00mN02ln0um0ccY0jkyTTswkbcemjQETkWAbiUoRJTwEQREUVmBf9336x7f3cF0erpF1YTm/Pxy4Xu7j3Hu++53vuWQJvC2Kotx7771Qv33BggU0hCvuYRIzrjBtlDptWmJFkiQoTiOKIrTPdLlcEMKJpnCMwEYOj7eLogVib3kZ8w0a3U3MGr00DMuaSoAmC8+CzFRZlmlJOlod0lrmFtz95FYdYmcQbPYmc7n4ffv2QePCjo6OBQsWQJHmrq6uL774AioSzIdohPi/w/kDx3Fer/fSpUs0JjFsXtE4G47j/H5/U1MTFP0kt+o9p+s6NDOwNrRihGEYBsYctBSDDALrp4iOPDGbmFr/ljpYIHCH5lnR2vhwQEgliMniF14qRVG8Xt+PfvSjxx9//LHHHuM47vjx4y+//PK6detyc3OZxGTMJSA6va+vT5Zl6GlMbm4VAFXgQP3s6empqalJS0uDQkcgDa07W3+GdRm0pmIWz6kws0hDdXDpR8iaaYrN6IOwv6WjCiV40XhJIQOOQ6VnbO0nv/nNb5qams6dO7d///6GhoaRkZHW1tacnByIzaRacBwT57c3r8AYFxQUVFZW0jlpnZm0wx9CiBCyf//+jo6OlJSU8vLyW4YQaZr2hz/8gR6T6ZgTCcUboFARClDnJUmy2Wy0kyJCiCCCyOTtHmmwPUTIIktdPviYQWdHFNNQ/NTUVISQrut+v7+joyM5ObmkpGTnzp333HMPfHpjdWF3jfi/w/mDWYrNUFUVEjCsSz/afxwhNDw8/N57742NjR05cmTlypVJSUnTq40QxA56EHMTTQp8SDw3PNevX4cSPna7PScnR9M0v9+fmJg4PDyclpY2lQmYOljOnDlz4sSJzZs3FxQU2O12msL04YcfOhyOyopKu2iPYR2273//+zt37vzlL3+5devWNWvWIIR0Xff5fBDiPh9i1GKZIDze/QNjhBCsIgVB4DDncDgwwhDEAMbm2ZzLPEsAWQZFN6CBIrYAyW0IIY7jTp48efr0aU3TamtroT6F9VlYVVT6A8wHZFriwBg31ZXQukdzqynQHaJp2l/+8pfq6ur169dXVFQ89thjgUDghz/84XPPPVdbW7tt27bu7m6aNEUHEHL/Mcaapnm93pdeeqm3t3fPnj0gieDBaZpWU1PzyiuvaPokfb2jSthboWu6w+H4+c9/PjQ0XFNTs3///l/96ldVVVVXr141DCOOi7xRYqljYrM7QsgPyAu6rnu9XsMwxrxj/oAfqnVBa1yY7YxpoMk8dEaFqTM2mw1anv79738PBoMIoY6Ojrq6ukceeQQqVkw8Jp3h0GXQMIxAIPD2229DXQ8qUsOkpyAIxCBVG6vuvfdemoUZnZueRXAcFwwGR0ZGNm3alJ+fn5qaKopiRUXFtWvXsrOzq6qqsrOzoVWhIAgwLNCGmxACAQw2m62srKylpQVa7LkSXGCS1jRNURSfz0cfR6zGk+M4n9/3+9///sCBAxhjKCH4yCOPJCUl8Tw/H4o2x1JiQtlX0ERSUlIIIoZhDA8Pq6qqaZrH41FVlcMcq0gXIYQQVdXA8jVRB6Qe29HR0YaGBtBrgsHgwYMHt2zZAt0WrfuDfKQKUUJCgq7puq77df9Pf/rT6a8EYyyK4htvvJF3T948EZfI1L5tNtvu3burq6t1XVdVdcOGDadOnWpra3vqqadsNlttbe3AwEBFRUVTU1NOTs7Y2JgkSatXr66vP1FQcN/SpUuhBkphYSHGWJIlSZL+9a9/Xb169fr161AwhcOcQWJmR9Z0ze8PfPDBB88+86ymax6Px+FwNDc3C4IQCATmQ+ZPLCWmIAi6oSOz6M6BAwdkWb58+fKyZcsIIX19fefOndM0rbS0dGRkBAI1GNPAcRy4FkDSYYwJQSCsCAnZIjmOq6mp8Xg81CHb2NgIZd/MWD9E5RtdzkM9TdEhBoNBiFsCcWx1rFuvBDzvdrvdIAZHJokMjVfAiNze3u52u1NTU9PS0nbv3t3Q0MBxnNvtPnToUGtr68svv5ybmxsMBjds2JCUlPTWW2/l5OTouv7000+3tbW99dZbPp/v9ddf37t3747tO/bs2fPuu++mp6cPDAwsW7ZM13WEx8Nj7z48zxNi2Gy2B5Y/0Nvb29zcnJGR0dLSMjAwsHjx4vlgx4zxqhzmFSw6Dh48KMsyIeSjjz6CCWkYhiAI+fn51dXVGRkZMbzUOYEgCMFgsP9qP62MHaqvYQpHwzBGR0f/+te/goEMmS6df/zjH3l5eQkJCdiMvraWwjQMw+/3B4NBwzAcDge4NcBvSzXQsHnC87zT6USmaXU+TCRAFEVVVV944QWbzfboo49u27atsbHxxRdffPDBB3fs2PGnP/3pmWeeEUUxLy/vjTfeEEWxra3t7bffXr9+/YsvvpiSkkIIKS4uHhoaeuKJJz7//PPy8vJ//vOfDz300C9+8Yuf/OQn/f39MPgwL2J1j1lZWQ8//LDD4SgqKnrzzTfPnj37jW98Iycnx+FwxOqS7iYx9pULggA6EbhfZVkGsyYx4Xn+viX3FRQUzJMpdyfIsjw6Ojo4OAhyCoe3WyGEEJ/Pt23bts2bNxuG0f5l+/IVyyVJysvL8/v9o6OjYF+jhdwhNaipqenQoUN5eXl79uxRVRWb2Sxghvvkk09Wr16dmJhII7ThZENDQwsXLpwP4SYU+JAIgvDss8/ef//9K1asqKurc7lclZWVK1asWLx4cW9vL6gIxcXFWVlZtMhxeXl5bm6uqqq//e1v33zzzaysrJGREUmSCCFer7e4uDg3N9fpdFJb/8zmI9I6LIODg++//z7cRUVFRVFRkTV+HptdpCRJev755xFCgiAcPnxYkqTk5OSkpKR50uI8xi80xpigUCoYMh0IVgOcYRgw65mv/JYIgpCbm7ty5UpzNY0mvrqGYaxduxZj7PP5/vOf/1RXV9POVjAlOMzxAg/aaH9//4ULFwYHBvPz80tLSysrK5HpPkIIQdlEj8dTUVHhdruteZmEkIsXL3q9XmtIU5xDQhECTqezvHz91q0PG4YxMDAgSVJ9ff2NGzcuX7789a9/3eVyybLscDhsgo0gAkEI2GzEdPjw4cLCwu9973vf/e53YbekpKQzZ86cPn26q6vL6XT6/L709PSZlUog6QzDaG5ufuGFFyCG9Ne//vXy5cshyQd8U4SQd9999/Dhw6Ioer1eu90O6wxRFBMSEn73u99BqKZJ3D7xeaQCxD3QTxybrXsQImGNxWFKOxwOyCThOM5us2MO08U1qISBQODq1auffPLJ6uLVSUlJBUsL1qxdoyiKpmkJCQkIIZrGZ412sH7SYD5rqkaDseNfaOJQPKyqqoLA8zwvCEJJSUlRUdGrr75qs9nS09N3796NzR5tHM9hjMHgC63cMMbFxcUffPBBV1dXZmbmuXPnCCGwMK+trV28eHFnZ2fz2eYNVRtmdjCh2D5cA7whoN6CCgwxofBNraysbG5uPnDggN/vX7hw4cjISEJCgt1uX7JkiaIo0PIk7jUbJjHjB3jpEUIgwjDGyOL9BsUE9AUI2IJgSdqclud5WZbPnz9/5coVp9O5ffv2U6dOOZ1OWZa/tuJr//38v3AcVVVtNps1YBOb6Sh0JsOaneO5+TCFAPhyVFVVJSYmPvDAA7A8z83N/eMf/1hfX+/z+UpKSlatWuXxePbt21dYWAjfkiVLluzdu3fdunUY40RX4p49e1atWuVyudauLTl5slFV1df2vlZVVaUoSllZ2ZEjRxZkLJjxJAKa2kh76lmTOyGqDMw1ixYteuWVV9asWbNv376enp4f//jHO3fudLlcgiCkpKSAshz3GbRMYsYPNFIPY4wRTdgLgdH4kpkYoWQ7RVWwWbajvb39xIkTS5cu3bhxo91ur62tVRQFbGo5i3JoEkGYawig2dAU6kyPYYLK3QRGfdWqVdDnAxQ0wzDy8/Pvu+8++F9N05KTk3ft2gXfGEEQ3G73U089BWV67XZ7VlbWD37wAzhgbu6i1NRUTdOeeOIJhJBhGCtWrIiGqg5PH5REqPQBQhnOBb4m6EUOS5Nt27aVlpbu3Lnztddea29v37t3r9vtng+yEmASM36gzutQAg/CGGGCSJjiQP1CoD6oqnrmzJlLly7l5eV961vfSk9PRwj9+9//TkxMXL++4uOPj5aXl8P0hr8KK5wD/iWLr2l8O6xA7/J6HKY6VYFBcMOWaMtuGAG4a1hr09sHOwl8V0C40OBNWPniUBemJGRaMOBBwH9pmgYBsyBqZzZLlS4+EhMT4eLReFWR0GeP/iqKYmdn5+uvv97W1lZdXf3kk09mZmZCmD29WbAIzeAVziqYxIxD6HtPY4yQKU9B9kHAEEKoq6ursbFx0aJFW7duhYoP4BxfuHBhcXHx9evXk5OTFyxYAFFfcHDrkdHU0yOGSgfGGFJrHA4HNeyi6NtSqXBEZms2ZPFYUjlO97T+a90+8WdYNcOWaCT1g4inASrW6yRmiZBgMKjr+smTJ1999dXGxsaMjIzMzMzGxsaTJ0/a7fbnn38e4snQZNFm8QSTmPEPnQkQx0cIGR0d7evrq6ury87O3r59uyiKgiDomo4QamxslGV58+bNuq5//PHHGzdunHO54RhjURRlWZZleTy8Kf7z96ICWMNBEf7zn//80ksvBQIBu93u8XhqamrAV56VlfXkk0+yeEzG3IYaHOk6ThAEv9/f1tZ25coV8MOuXr0aVouqquqG3tTUpCjKli1bgsHg1atXU1NTs7OzY30ftwcNG7Tb7cPDwxhjTdVciS6Hw4HNcuKMyCGE0C9NRUXFe++9B+mzEJQGtg6e5zMzM2FL3NusmcSMf8DRGQwGL1y4cPbs2aKiog0bNsiy/Omnn4LtSZZlnucbGhp4nt+0aZMsy06n89y5c6WlpcgsIhfrm4gUEIuqqvb29u7atWt4eJjn+e3btz/33HMOh2MO3cgsAUwcol30B/zZ2dkFBQXBYBAiLmC1DvFquq5zmJsPWjyTmPEDfPCpVwF+hWpDHR0dly9fTktL27ZtG0Qaq6rqdDoJIVAd6tixY6IoQpiLKIp9fX0OhyM9PZ3jODBi0pjN8fOZP5r/dVPAPLEWHr+LVi24GCh5d+HChRs3bhiGUVZW5nQ651UC0kwB3h5CiMvlIoSoqgo/wNtFg9t5nieI4HkgMtk7FD/AUpTjOEmSOQ5D44pLly7V1dXl5eU99NBDdrudhkyjUK0jleO4Tz/9VBCEsrIyCJ+UJOnDDz/85je/Cdl4oiiCm8h6IowxVNChkpSQkIueunSh4OldXqbRCwDnzySCnnE7WBMQMMbwSlh9XHHs5JkUJjHjB8hgjbIkAAANS0lEQVRpkyQJ5MWFCxcuXryYnp7+ne98JzU1FexNmqZxHI/NOrWaph0/fpzn+YqKSmQmPvb19d1zzz25ubm0jgaNMqHBMVYVEk1w/oL2AUv+qbonMhhzESYx4wdI3jAM49KlS62trcnJyWVlZRkZGSD1QFzyPI8xMnQD9IVTp04ZhrFlyxZZlu12BxS9b29vX7duHRwQHCmge9LQE2ugjDUIkW4EcQwBK0xWMuIJJjHjB1EUW1pajh49mpWV9eCDDyYlJUH8M0Sq0+RlQohu6ISQY8eOlZSUVFZWfvnll9nZ2UNDQ4Ig9PX1DQ4OKorS39+vaZog2FRV0VTtxo0b/f39kP5IXaKwfWhoCFb3VAMVBOHa4DWO54hBDBT//lPG/IFJzPhBluW0tLT169enpaUhS9oGpIFbC6obhtHZ2ZmfvyQjI+P8+fM8z/f19QmCAIV2ysrKzp8/TzsrYIwlSeru7u7u7g5LntF1/cqVK93dPUlJ4+kicNIbN25kZ2fTMh+xglkwbxcalPbVO4YSpBmhojA0BBi2x4FniEnMuCInJwey6+gimi6WMcb9/f2LFi2CopaEkGeeftrhdEA5L1VVDcMYGRlBCG3atIka+OFdlyTJ6/WWl5eHpUhKkhQMBouKihblLIJiPLAdY9zd3Q2V3mOrYFKJabUkMKYBlhF9fX319fUhkwvCCJsxD9A+mJYpwKGQCahcRwiRZRnSB+C9omI39KGNXfX4mYJJzHgGXmuqNeTk5IyOjra2tmKMq6qqwOgJGiiUMjp+/HhlZSU1VtKD8BwPk4eKP2I2zoZ8cxCXTCTFAbTlCTRwvq0IVkEQoD+7KIoY4+zsbEicn5gPOndhEjNuAeXAuhLHGLe2tvb09Hz7299GlvRzUAR6enoURUlPTwdvDzV6IowMYky6vIXZZU0rwvOgCnd843K5JEnKyclZu3ZtIBCAiqgRAh9gqAcIFQzi731gEjPOocFAhmF89tlnkiQ9+uij8GaPh1BirGlac3Pzli1bDN0QbEJY0R26PJ/49tOIcapjxtP0mIdAYWD4/kE1o8j/Ft4BQRCsgRMTf5jTMIkZP0yUZbTam67rZ86ckSSpqqrK2o8FcoEJIdeuXUtISEhNTQU7Pd1hQvOWm05BY5hppybGXAfeB/DY3G5lOegQFSpEzwth1s/4kJhz3hDLmAjNj7w+dB3E5dGPjo6NjVVUVIiiyHGczWYzdIPqnpIkNX7WeP/991td6vRQyFJ5k6ZGWoPVWfBQ/BFWsy5yYCVus9kwZ4nbxXGiYCKmY8Y3aWlpfr+/tbWVF/jKykpw9cBCm+ND4UE8z1+5ciUQDOTm5sJiikXkMBhTwbSDuAXSxqG+elVVFV2GQ/lYZBoldV0/f/789u3bkdlBnqY2MhiMMJiOGbfoun769Gmfz7djxw5ocg0rdHSz/fHatWsIIafTSZN2mJrJYEzFHNAx2eyNHGpwNAzjZONJRVE2btxIS71CcDK4MqGbLsdx77///qpVq2i9H2q8n/Y0t74MdFNZo5i1r0DjptiYXMIcAKPwD+TdtDnOudijWa1jQpNYGvQ3gyNLQwhp69FoQ6/fWrn6DgtVwMiAdxu6/amq6vP5HA5HXV2d3W4vLS0V7aKqqQ6HA7LLkSnIYGB7L/W63W63201bdxFLeU1kCU4iZn/B0LNA453KFUWh2+mFwQIfIWQYBOPQeh8MAlH1qsM16LoO1wbx+bquM5E5FQQRTdUQQvApBSBHFlK/onVe8x2jyWlzQjea1RJTFEVVVUOdXWc0KRWkAyKh+uRRfVRhsh4C1qxlB78yNPoHXm5CCM/zCQkJDQ0Nuq5DUiNBoYaFYQ1y4ar+1/K/6urqqXIZ6bBAIQ+owXFT3CVB0CMorGekruuEjLvsQarabDYYatrZNRpQ3z2tUAdVlDieI3NNnblLEETTZGF8oLapteRKlIAYJp/Ph8yvbPTONVPMaokJgG5Cv4QzAkxm6M782WefRXUuEUIw5jAeb95dWVkJ/VTv0MECYpemWKiqqmlafX29qqpbtmyxhv7Q2kLWq+rt7YVAENB2ww4+aaQ6Xd2HrhwjSZJhJK37C4KgaSqx9GIDN1Rra6vf75dlOaqeJZj8drsdlG6e52mpcFVVo3feOQohBGkIgoGgQB/GGF4JjLnojRjGmMMcIQQ+unPl0cxeiYkxDgaDDoejt7e3ra3NmnSFImjuOs0O2FInHKpJPv7444Iw6QKEmMUGbilPrXta9x/vf2sYhqIohw4dcrvdyEynueW90KsN+xchBAbHtrY2GCue58+cObNs2bKVK1d2dXXZbDZQ8ZCZEGmVU4ZhHDlypLS09OLFi6D2Wo+MLJGYYN+8du1aZ2cnNDCAlTUIyuvXr/X09EiSZL1mwzAGBwf9fv+XX35JtXjDMLq6uiorK5OSkjjulgvzyNcUN402XH9TU9Px48cVRYGzj46OtrW1oQmfgbDXKRKX1zSPI2w3ZMnoj+T4ER55Bve3/i8hpLu7G4poIIT6+/vb29upHSbspqY5snXLVFdCz4gx9vl8GGNVVeeKv3FWFOPSdf3EiRM7duyA2jkAjKDNZnO5XKAjoMmexKRPcdKHF7ZRFEVJkmw2W2ZmZn19Pe22POPQIEdVVf1+f0lJidfrhdBIuPep/nDSm7VugQUy1BwCQSaKYnp6OnWLQwtyMNRCeWD6h9CanOM4p9MJWqqmacgyyWn1I57nFUVRFAXKK8DyHJRWwzCgjdqkT0eWZF7gwZUEOwuC8Le//a2oqCh6az0Yk4MHD/7sZz/zeDwwAqIoJiUl0dgpNO0LM/HXqTZGslvkUji2W2CghoeH4aGnpKTA46Zf3BkfH/ogRkdHDcMAoUl34ziuoqLio48+svZqnw3MXh0ThlVVVasYnUGwSWJiIjLNKDCpIEt6pk4EplhEEMbY6/V6PB54RcANMrOvgiRJ/f39M3jAGYHqIAkJCT6fDyMMdw3m11u75m91cOuvsK5UVdXj8RBCFEVBCAUCgUAgcId3Ma8YHR29y2ecPTJxemavxIwqII7BJCfL8unTpxVFgaotbrfb4/FMo/rdFiCFYd4ihAKBADgi6P/OyFlmOdQJI8tyb2/vMeVYSkoKiDOHwxG2or8TYO1vs9mgIXtUXUyM+ck8lZjYDPSBpeLChQtbWlqWLFkCmghUPJupc+m67nQ6JUk6e/as2+0Gv7O119hMnWjWAp4E8MYkJiaOjY1lZGSAGYTjuMTExDtZpN+07iNIkqW2tjao7Qi1JO748hmMceapxEQWMwrHcVlZWUePHm1ubvb7/ASRMLMp/fe2jk//BAJrnE7n2NgYxJPPldCzmYIaEDmOy8zMPHfuHITB2mw28JvTsZ3KNRG2g/XgYW53MLlmZGSw+iCMaDB/JSYxK43LsvzFF18kJiZmZmZybk6WZVo4euL8nDiNJxWmVhcTjZMfGhpqaGigTRajfH+zCBgfu92uKEp3dzdCKD8/H6rVUifpxHG2bp/mixXmdNI0raWlpa+vz2azBYPBaN8aI7rMvlkSS4lJV0ywSr3L61NRFCH6xG63L126tLCwEEGbBzxZ/ATC5OanF2oIgSbXg6x70hqU+fn5AwMD0CqHhgfPE9EJ9mL4LBUWFtLE9nDv6oRxRmaofHiskdlehu5Dpery5cvfeecdWZbB/xulO2JEG8MwoPg/nk1FBWMpMWFFTHNCEEI0KtC6z6Qa3MR9JtVHpjka/YHjuOTkZIfDMfN3aAE+CampqXBGiDmHe5/mfiO8l4m/RkLkR7jDPYlZNgk07pSUlNu6ztuC5/hQ6y6MEUIQmzIxbjGSC/7KGyf9NRp7Rshde9CT7vPVZnQowQxhjDExQsUJZwOxjMcE2xaMVGdn5zvvvBMMBomZag3SJEz3pD5ua7oefTATheY062UzyRrxPLdmzRprgIvVjhahaEZTT0vrzj6fr6WlBSybEAFOk7itZySWFhFhipj12qgHie42UWuj12AdpbC/DbuRsMEMu7CJY0uf0cTjhOUschxXWFiYkJBgppSEh3mHPaZJF+zWE036v6qqDg8Pd3Z24pvDCSeOEv1mT/Wg6cVbH4T1Sz9xoWC9trBGcnH/oMNGgx7nK8xojuPy8vJ27doFeSvYbF4Zc2IcwQ6xioRAosxdvRIIqw7LhIkGYe8HfUVuV1OYu0BsPLLM3uitsOgUpdOPMXeh362voFlHiVhKTEIIGPju/ohQ3Yd+3qN0dmJ2H0MTlA74chok/mv3wo2D+yuqFXEIQbqugflylpi9GF+ZkG6BOYOEG69iyNzI5WQwGIzZAPsOMxgMRqQwiclgMBiRwiQmg8FgRAqTmAwGgxEpTGIyGAxGpDCJyWAwGJHCJCaDwWBECpOYDAaDESlMYjIYDEakMInJYDAYkcIkJoPBYEQKk5gMBoMRKUxiMhgMRqQwiclgMBiRwiQmg8FgRAqTmAwGgxEpTGIyGAxGpDCJyWAwGJHCJCaDwWBECpOYDAaDESlMYjIYDEakMInJYDAYkcIkJoPBYETK/wH3txWCLLAmoQAAAABJRU5ErkJggg==;" vertex="1" parent="1">
          <mxGeometry x="470" y="755" width="469.06" height="360" as="geometry" />
        </mxCell>
        <mxCell id="2A0srAFayTk-dAzB0zZN-4" value="&lt;font style=&quot;font-size: 9px;&quot;&gt;&lt;b style=&quot;&quot;&gt;Unifi Cloud Gateway&lt;/b&gt;&lt;/font&gt;" style="image;points=[];aspect=fixed;html=1;align=center;shadow=0;dashed=0;image=img/lib/allied_telesis/security/Router_VPN.svg;" vertex="1" parent="1">
          <mxGeometry x="850" y="890" width="28.18" height="20" as="geometry" />
        </mxCell>
        <mxCell id="2A0srAFayTk-dAzB0zZN-5" value="" style="verticalLabelPosition=bottom;shadow=0;dashed=0;align=center;html=1;verticalAlign=top;shape=mxgraph.electrical.transmission.optical_fiber2;" vertex="1" parent="1">
          <mxGeometry x="870" y="920" width="20" height="10" as="geometry" />
        </mxCell>
        <mxCell id="2A0srAFayTk-dAzB0zZN-6" value="&lt;font style=&quot;font-size: 9px;&quot;&gt;&lt;b&gt;Switch&lt;/b&gt;&lt;/font&gt;" style="image;html=1;image=img/lib/clip_art/networking/Switch_128x128.png" vertex="1" parent="1">
          <mxGeometry x="848.1800000000001" y="840" width="30" height="30" as="geometry" />
        </mxCell>
        <mxCell id="2A0srAFayTk-dAzB0zZN-9" value="" style="strokeColor=#666666;html=1;labelPosition=right;align=left;spacingLeft=15;shadow=0;dashed=0;outlineConnect=0;shape=mxgraph.rack.dell.power_strip;rotation=90;" vertex="1" parent="1">
          <mxGeometry x="878.18" y="860" width="40" height="5" as="geometry" />
        </mxCell>
        <mxCell id="2A0srAFayTk-dAzB0zZN-10" value="&lt;font style=&quot;font-size: 9px;&quot;&gt;&lt;b style=&quot;&quot;&gt;Eth&lt;/b&gt;&lt;/font&gt;" style="shape=image;html=1;verticalAlign=top;verticalLabelPosition=bottom;labelBackgroundColor=#ffffff;imageAspect=0;aspect=fixed;image=https://cdn1.iconfinder.com/data/icons/bootstrap-vol-2/16/ethernet-128.png" vertex="1" parent="1">
          <mxGeometry x="293" y="830" width="10" height="10" as="geometry" />
        </mxCell>
        <mxCell id="2A0srAFayTk-dAzB0zZN-12" value="&lt;font style=&quot;font-size: 9px;&quot;&gt;&lt;b&gt;Eth&amp;nbsp;&lt;/b&gt;&lt;/font&gt;" style="shape=image;html=1;verticalAlign=top;verticalLabelPosition=bottom;labelBackgroundColor=#ffffff;imageAspect=0;aspect=fixed;image=https://cdn1.iconfinder.com/data/icons/bootstrap-vol-2/16/ethernet-128.png" vertex="1" parent="1">
          <mxGeometry x="430" y="870" width="10" height="10" as="geometry" />
        </mxCell>
        <mxCell id="2A0srAFayTk-dAzB0zZN-13" value="" style="endArrow=none;dashed=1;html=1;rounded=0;entryX=0;entryY=0.5;entryDx=0;entryDy=0;entryPerimeter=0;exitX=0.548;exitY=0.915;exitDx=0;exitDy=0;exitPerimeter=0;fillColor=#60a917;strokeColor=#2D7600;strokeWidth=2;" edge="1" parent="1" source="2A0srAFayTk-dAzB0zZN-4" target="2A0srAFayTk-dAzB0zZN-5">
          <mxGeometry width="50" height="50" relative="1" as="geometry">
            <mxPoint x="870" y="897" as="sourcePoint" />
            <mxPoint x="610" y="870" as="targetPoint" />
          </mxGeometry>
        </mxCell>
        <mxCell id="2A0srAFayTk-dAzB0zZN-15" value="" style="endArrow=none;dashed=1;html=1;rounded=0;exitX=0.412;exitY=0.046;exitDx=0;exitDy=0;exitPerimeter=0;fillColor=#60a917;strokeColor=#2D7600;strokeWidth=2;" edge="1" parent="1" source="2A0srAFayTk-dAzB0zZN-4" target="2A0srAFayTk-dAzB0zZN-6">
          <mxGeometry width="50" height="50" relative="1" as="geometry">
            <mxPoint x="770" y="930" as="sourcePoint" />
            <mxPoint x="820" y="880" as="targetPoint" />
          </mxGeometry>
        </mxCell>
        <mxCell id="2A0srAFayTk-dAzB0zZN-16" value="" style="endArrow=none;dashed=1;html=1;rounded=0;entryX=0.5;entryY=0;entryDx=0;entryDy=0;fillColor=#60a917;strokeColor=#2D7600;strokeWidth=2;" edge="1" parent="1" target="2A0srAFayTk-dAzB0zZN-6">
          <mxGeometry width="50" height="50" relative="1" as="geometry">
            <mxPoint x="840" y="800" as="sourcePoint" />
            <mxPoint x="830" y="810" as="targetPoint" />
          </mxGeometry>
        </mxCell>
        <mxCell id="2A0srAFayTk-dAzB0zZN-18" value="" style="endArrow=none;dashed=1;html=1;rounded=0;exitX=0.25;exitY=1;exitDx=0;exitDy=0;edgeStyle=orthogonalEdgeStyle;entryX=0.362;entryY=0.486;entryDx=0;entryDy=0;entryPerimeter=0;fillColor=#60a917;strokeColor=#2D7600;strokeWidth=2;" edge="1" parent="1">
          <mxGeometry width="50" height="50" relative="1" as="geometry">
            <mxPoint x="851.6800000000001" y="880" as="sourcePoint" />
            <mxPoint x="635.79972" y="939.96" as="targetPoint" />
            <Array as="points">
              <mxPoint x="852" y="932" />
              <mxPoint x="770" y="932" />
              <mxPoint x="770" y="940" />
            </Array>
          </mxGeometry>
        </mxCell>
        <mxCell id="2A0srAFayTk-dAzB0zZN-22" value="&lt;font style=&quot;font-size: 10px;&quot;&gt;&lt;b&gt;Up&lt;/b&gt;&lt;/font&gt;" style="html=1;verticalLabelPosition=bottom;labelBackgroundColor=#ffffff;verticalAlign=top;shadow=0;dashed=0;strokeWidth=2;shape=mxgraph.ios7.misc.up;strokeColor=#0080f0;" vertex="1" parent="1">
          <mxGeometry x="630" y="910" width="12" height="6" as="geometry" />
        </mxCell>
        <mxCell id="2A0srAFayTk-dAzB0zZN-23" value="&lt;font style=&quot;font-size: 10px;&quot;&gt;&lt;b&gt;Up&lt;/b&gt;&lt;/font&gt;" style="html=1;verticalLabelPosition=bottom;labelBackgroundColor=#ffffff;verticalAlign=top;shadow=0;dashed=0;strokeWidth=2;shape=mxgraph.ios7.misc.up;strokeColor=#0080f0;" vertex="1" parent="1">
          <mxGeometry x="820" y="780" width="12" height="6" as="geometry" />
        </mxCell>
        <mxCell id="2A0srAFayTk-dAzB0zZN-30" value="" style="group" vertex="1" connectable="0" parent="1">
          <mxGeometry x="340" y="510" width="20" height="20" as="geometry" />
        </mxCell>
        <mxCell id="2A0srAFayTk-dAzB0zZN-28" value="" style="ellipse;whiteSpace=wrap;html=1;aspect=fixed;" vertex="1" parent="2A0srAFayTk-dAzB0zZN-30">
          <mxGeometry width="20" height="20" as="geometry" />
        </mxCell>
        <mxCell id="2A0srAFayTk-dAzB0zZN-29" value="" style="ellipse;whiteSpace=wrap;html=1;aspect=fixed;strokeColor=#3399FF;strokeWidth=1;" vertex="1" parent="2A0srAFayTk-dAzB0zZN-30">
          <mxGeometry x="5" y="5" width="10" height="10" as="geometry" />
        </mxCell>
        <mxCell id="2A0srAFayTk-dAzB0zZN-31" value="&lt;font style=&quot;font-size: 8px;&quot;&gt;&lt;b&gt;Unifi AP&lt;/b&gt;&lt;/font&gt;" style="text;html=1;align=center;verticalAlign=middle;whiteSpace=wrap;rounded=0;" vertex="1" parent="1">
          <mxGeometry x="320" y="520" width="60" height="30" as="geometry" />
        </mxCell>
        <mxCell id="2A0srAFayTk-dAzB0zZN-32" value="&lt;b&gt;&lt;font style=&quot;font-size: 9px;&quot;&gt;PoE Injector&lt;/font&gt;&lt;/b&gt;" style="image;points=[];aspect=fixed;html=1;align=center;shadow=0;dashed=0;image=img/lib/allied_telesis/media_converters/Industrial_Media_Converter_POE.svg;" vertex="1" parent="1">
          <mxGeometry x="250" y="540" width="10.53" height="20" as="geometry" />
        </mxCell>
        <mxCell id="2A0srAFayTk-dAzB0zZN-35" value="" style="endArrow=none;dashed=1;html=1;rounded=0;edgeStyle=orthogonalEdgeStyle;fillColor=#60a917;strokeColor=#2D7600;exitX=0.902;exitY=0.761;exitDx=0;exitDy=0;exitPerimeter=0;" edge="1" parent="1" source="2A0srAFayTk-dAzB0zZN-32">
          <mxGeometry width="50" height="50" relative="1" as="geometry">
            <mxPoint x="280" y="590" as="sourcePoint" />
            <mxPoint x="350" y="540" as="targetPoint" />
            <Array as="points">
              <mxPoint x="350" y="555" />
            </Array>
          </mxGeometry>
        </mxCell>
      </root>
    </mxGraphModel>
  </diagram>
</mxfile>
